<svg width="15" height="25" viewBox="0 0 15 25" fill="none" xmlns="http://www.w3.org/2000/svg">
<path d="M13.709 0.000493495C13.3846 0.00928036 13.0768 0.132527 12.8507 0.344124L0.365534 11.695C0.131482 11.9079 0 12.1966 0 12.4976C0 12.7986 0.131482 13.0872 0.365534 13.3001L12.8507 24.651C12.9657 24.7599 13.1035 24.8469 13.256 24.9068C13.4085 24.9668 13.5726 24.9984 13.7387 24.9999C13.9048 25.0015 14.0695 24.9729 14.2233 24.9158C14.3771 24.8587 14.5168 24.7743 14.6343 24.6675C14.7517 24.5607 14.8446 24.4337 14.9074 24.2939C14.9702 24.1541 15.0016 24.0043 14.9999 23.8532C14.9982 23.7022 14.9634 23.553 14.8975 23.4144C14.8316 23.2758 14.736 23.1505 14.6161 23.0459L3.01375 12.4976L14.6161 1.94921C14.7965 1.78977 14.9198 1.5845 14.9697 1.3603C15.0195 1.1361 14.9938 0.903423 14.8957 0.692767C14.7977 0.48211 14.6319 0.3033 14.4201 0.17977C14.2084 0.0562391 13.9605 -0.00624936 13.709 0.000493495Z" fill="#03A9F4"/>
</svg>
