<svg width="32" height="32" viewBox="0 0 32 32" fill="none" xmlns="http://www.w3.org/2000/svg">
<path d="M2.13278 1.00069C2.11294 1.00623 2.09339 1.01275 2.07419 1.02022C1.46741 1.10596 1 1.62022 1 2.25066C1 2.941 1.55963 3.50063 2.24997 3.50063C2.94031 3.50063 3.49993 2.941 3.49993 2.25066H6.41002C7.18916 2.25066 7.59364 2.41062 7.89435 2.68034C8.19015 2.94565 8.42863 3.39686 8.63652 4.08656L13.6364 24.2619C13.8251 24.9782 14.0135 25.7141 14.5348 26.3126C14.752 26.562 15.0254 26.7645 15.3551 26.9181C14.9899 27.353 14.7496 27.8922 14.7496 28.5001C14.7496 29.8733 15.8763 31 17.2496 31C18.6228 31 19.7495 29.8733 19.7495 28.5001C19.7495 28.0423 19.6157 27.6204 19.398 27.2501H23.226C23.0082 27.6204 22.8744 28.0423 22.8744 28.5001C22.8744 29.8733 24.0011 31 25.3744 31C26.7476 31 27.8743 29.8733 27.8743 28.5001C27.8743 27.8577 27.6133 27.2843 27.2103 26.8399C27.2448 26.7456 27.2561 26.6443 27.2431 26.5446C27.2302 26.445 27.1934 26.3499 27.1359 26.2675C27.0784 26.1851 27.0019 26.1177 26.9128 26.0712C26.8238 26.0247 26.7248 26.0003 26.6243 26.0001H17.0738C16.1106 26.0001 15.7165 25.7952 15.4527 25.4923C15.1919 25.1928 15.0318 24.6666 14.8473 23.9689V23.9494L14.4176 22.2502H25.8822C26.0102 22.2506 26.1352 22.2114 26.2401 22.1379C26.345 22.0645 26.4246 21.9605 26.4681 21.8401L30.9602 9.96533C30.9957 9.87098 31.0077 9.7694 30.9952 9.66936C30.9827 9.56932 30.946 9.47384 30.8883 9.39115C30.8306 9.30847 30.7537 9.24108 30.6641 9.19479C30.5745 9.14851 30.475 9.12473 30.3742 9.1255H11.1755L9.84743 3.7936C9.84784 3.78058 9.84784 3.76755 9.84743 3.75453C9.60856 2.94955 9.29906 2.24953 8.73417 1.74286C8.16929 1.23619 7.3777 1.00069 6.41002 1.00069H2.24997C2.23045 0.99977 2.21089 0.99977 2.19138 1.00069C2.17186 0.999776 2.1523 0.999776 2.13278 1.00069ZM11.488 10.3755H29.4758L25.4525 21.0002H14.1247L11.488 10.3755ZM17.2496 27.2501C17.9473 27.2501 18.4995 27.8023 18.4995 28.5001C18.4995 29.1978 17.9473 29.75 17.2496 29.75C16.5518 29.75 15.9996 29.1978 15.9996 28.5001C15.9996 27.8023 16.5518 27.2501 17.2496 27.2501ZM25.3744 27.2501C26.0721 27.2501 26.6243 27.8023 26.6243 28.5001C26.6243 29.1978 26.0721 29.75 25.3744 29.75C24.6766 29.75 24.1244 29.1978 24.1244 28.5001C24.1244 27.8023 24.6766 27.2501 25.3744 27.2501Z" fill="#03A9F4" stroke="#03A9F4" stroke-width="0.4"/>
</svg>
