<svg width="225" height="225" viewBox="0 0 225 225" fill="none" xmlns="http://www.w3.org/2000/svg">
<path d="M8.49587 0.00518578C8.34707 0.0467488 8.20041 0.0956354 8.05643 0.151667C3.50559 0.7947 0 4.65165 0 9.37997C0 14.5575 4.19722 18.7548 9.37475 18.7548C14.5523 18.7548 18.7495 14.5575 18.7495 9.37997H40.5751C46.4187 9.37997 49.4523 10.5796 51.7076 12.6026C53.9261 14.5924 55.7147 17.9765 57.2739 23.1492L94.7729 174.464C96.1884 179.836 97.6009 185.355 101.511 189.845C103.14 191.715 105.191 193.234 107.663 194.385C104.924 197.647 103.122 201.691 103.122 206.25C103.122 216.55 111.572 225 121.872 225C132.171 225 140.621 216.55 140.621 206.25C140.621 202.817 139.618 199.653 137.985 196.876H166.695C165.062 199.653 164.058 202.817 164.058 206.25C164.058 216.55 172.508 225 182.808 225C193.107 225 201.557 216.55 201.557 206.25C201.557 201.432 199.599 197.132 196.577 193.8C196.836 193.092 196.921 192.332 196.824 191.585C196.726 190.837 196.451 190.124 196.019 189.506C195.588 188.888 195.014 188.383 194.346 188.034C193.678 187.685 192.936 187.502 192.182 187.501H120.553C113.33 187.501 110.374 185.964 108.396 183.692C106.439 181.446 105.238 177.499 103.855 172.267V172.12L100.632 159.377H186.616C187.576 159.379 188.514 159.085 189.301 158.535C190.087 157.984 190.685 157.204 191.011 156.3L224.701 67.24C224.968 66.5323 225.058 65.7705 224.964 65.0202C224.87 64.2699 224.595 63.5538 224.162 62.9337C223.73 62.3135 223.152 61.8081 222.481 61.4609C221.809 61.1138 221.063 60.9355 220.307 60.9413H76.3164L66.3557 20.952C66.3588 20.8543 66.3588 20.7566 66.3557 20.659C64.5642 14.6216 62.243 9.37147 58.0063 5.57146C53.7696 1.77146 47.8327 0.00518578 40.5751 0.00518578H9.37475C9.22836 -0.00172859 9.08171 -0.00172859 8.93531 0.00518578C8.78891 -0.00167675 8.64227 -0.00167675 8.49587 0.00518578V0.00518578ZM78.6601 70.3161H213.569L183.394 150.002H98.4349L78.6601 70.3161ZM121.872 196.876C127.105 196.876 131.247 201.017 131.247 206.25C131.247 211.483 127.105 215.625 121.872 215.625C116.639 215.625 112.497 211.483 112.497 206.25C112.497 201.017 116.639 196.876 121.872 196.876ZM182.808 196.876C188.041 196.876 192.182 201.017 192.182 206.25C192.182 211.483 188.041 215.625 182.808 215.625C177.575 215.625 173.433 211.483 173.433 206.25C173.433 201.017 177.575 196.876 182.808 196.876Z" fill="#03A9F4"/>
</svg>
