<svg width="200" height="200" viewBox="0 0 200 200" fill="none" xmlns="http://www.w3.org/2000/svg">
<path d="M148.596 137.038L111.629 100.071L148.597 63.1031C151.806 59.8938 151.806 54.6844 148.596 51.4744C145.387 48.2653 140.177 48.2653 136.968 51.4744L100 88.4424L63.0321 51.4744C59.8229 48.2653 54.6134 48.2653 51.4042 51.4744C48.1943 54.6844 48.1941 59.8938 51.4034 63.1031L88.3713 100.071L51.4042 137.038C48.1943 140.248 48.1941 145.458 51.4034 148.667C54.6134 151.877 59.8229 151.877 63.0329 148.667L100 111.7L136.967 148.667C140.177 151.877 145.387 151.877 148.597 148.667C151.806 145.458 151.806 140.248 148.596 137.038Z" fill="#5E5E5E" stroke="#5E5E5E" stroke-width="3"/>
</svg>
