<svg width="30" height="30" viewBox="0 0 30 30" fill="none" xmlns="http://www.w3.org/2000/svg">
<path d="M29.7589 12.2234C29.8922 12.2234 30.0003 12.3315 30.0003 12.4648V15C30.0003 15.9489 29.9122 16.8766 29.7432 17.7766C28.4355 24.7674 22.2768 30.0505 14.8946 29.9996C6.61124 29.9425 -0.0179357 23.2496 0.000404172 14.9662C0.0186268 6.69762 6.72749 0 15.0003 0C19.0535 0 22.7309 1.60793 25.4309 4.2198C25.5284 4.31408 25.5309 4.46947 25.435 4.56533L21.8484 8.15191C21.756 8.24426 21.6068 8.24666 21.5122 8.1566C19.8176 6.54357 17.5249 5.55328 15.0003 5.55328C9.7872 5.55328 5.58925 9.72141 5.55386 14.9344C5.51829 20.1817 9.76142 24.4467 15.0003 24.4467C19.251 24.4467 22.8462 21.6386 24.0317 17.7766H15.2418C15.1084 17.7766 15.0003 17.6685 15.0003 17.5352V12.4648C15.0003 12.3314 15.1084 12.2233 15.2418 12.2233H29.7589V12.2234Z" fill="#2196F3"/>
<path d="M6.41953 11.0439L1.86398 7.7523C4.41973 3.12979 9.34465 0 15 0C19.0531 0 22.7306 1.60793 25.4305 4.2198C25.528 4.31408 25.5305 4.46947 25.4346 4.56533L21.848 8.15191C21.7559 8.24408 21.6067 8.24695 21.5123 8.15707C19.8177 6.54375 17.5247 5.55334 15 5.55334C11.1954 5.55334 7.9159 7.8024 6.41953 11.0439Z" fill="#F44336"/>
<path d="M26.0034 25.194C23.2642 28.1499 19.3479 30 15 30C9.1274 30 4.0431 26.6252 1.58087 21.7086L6.23175 18.5215C7.6274 21.9942 11.0276 24.4467 15 24.4467C17.4929 24.4467 19.7602 23.4809 21.4479 21.903L26.0034 25.194Z" fill="#4CAF50"/>
<path d="M5.55334 15C5.55334 16.2446 5.79416 17.4332 6.2318 18.5215L1.58086 21.7086C0.569238 19.6901 0 17.4115 0 15C0 12.3712 0.676055 9.90059 1.86398 7.7523L6.41953 11.0439C5.86359 12.2469 5.55334 13.5875 5.55334 15Z" fill="#FFC107"/>
</svg>
