<svg width="22" height="21" viewBox="0 0 22 21" fill="none" xmlns="http://www.w3.org/2000/svg">
<g filter="url(#filter0_d)">
<path d="M10.4459 17.0669L10.3892 17.0248L10.3821 17.0193C8.96695 15.9283 6.7857 14.1881 4.96127 12.0998C3.1183 9.99018 1.75 7.64919 1.75 5.35494C1.75 2.82434 3.84278 0.75 6.4541 0.75C7.67151 0.75 8.64849 1.26793 9.34175 1.81573C9.68679 2.08837 9.95226 2.36149 10.13 2.56475C10.2186 2.666 10.2844 2.74878 10.3264 2.80396C10.3475 2.83151 10.3625 2.85206 10.3714 2.86446L10.3801 2.87673L10.3801 2.87676L10.3806 2.87738L10.3806 2.87744L10.381 2.87802L11 3.78962L11.619 2.87802C11.619 2.87807 11.619 2.87805 11.6191 2.87794C11.6191 2.87791 11.6194 2.87744 11.6194 2.87738C11.6196 2.87717 11.6195 2.87724 11.6199 2.87676L11.6199 2.87673L11.6286 2.86446C11.6375 2.85206 11.6525 2.83151 11.6736 2.80396C11.7156 2.74878 11.7814 2.666 11.87 2.56475C12.0477 2.36149 12.3132 2.08837 12.6583 1.81573C13.3515 1.26793 14.3285 0.75 15.5459 0.75C18.1572 0.75 20.25 2.82434 20.25 5.35494C20.25 7.65472 18.8745 10.0019 17.0245 12.1156C15.1932 14.208 13.0063 15.9495 11.5953 17.0368L11.5734 17.0537L11.5725 17.0545L11.5557 17.0669C11.3972 17.1845 11.2023 17.2495 11.0003 17.25C10.7986 17.2492 10.6041 17.1843 10.4459 17.0669Z" stroke="#F39D0C" stroke-width="1.5"/>
</g>
<defs>
<filter id="filter0_d" x="0" y="0" width="22" height="21" filterUnits="userSpaceOnUse" color-interpolation-filters="sRGB">
<feFlood flood-opacity="0" result="BackgroundImageFix"/>
<feColorMatrix in="SourceAlpha" type="matrix" values="0 0 0 0 0 0 0 0 0 0 0 0 0 0 0 0 0 0 127 0"/>
<feOffset dy="2"/>
<feGaussianBlur stdDeviation="0.5"/>
<feColorMatrix type="matrix" values="0 0 0 0 0 0 0 0 0 0 0 0 0 0 0 0 0 0 0.25 0"/>
<feBlend mode="normal" in2="BackgroundImageFix" result="effect1_dropShadow"/>
<feBlend mode="normal" in="SourceGraphic" in2="effect1_dropShadow" result="shape"/>
</filter>
</defs>
</svg>
