<svg width="32" height="32" viewBox="0 0 32 32" fill="none" xmlns="http://www.w3.org/2000/svg">
<path d="M30.271 9.266C30.7379 8.79688 31.0001 8.1619 31 7.5C30.9987 7.07862 30.8773 6.66634 30.65 6.3115L28.158 2.394C27.6083 1.52856 26.6553 1.00305 25.63 1H6.37C5.34569 1.00283 4.39341 1.52732 3.8435 2.3915L1.35 6.312C1.12267 6.66663 1.00125 7.07876 1 7.5C1.00038 8.16426 1.26437 8.80122 1.734 9.271C1.95569 9.4882 2.21531 9.66292 2.5 9.7865V20C1.77028 19.9986 1.14596 20.5237 1.02231 21.2429C0.898653 21.9621 1.31173 22.6656 2 22.908V28.092C1.31173 28.3344 0.898653 29.0379 1.02231 29.7571C1.14596 30.4763 1.77028 31.0014 2.5 31H29.5C30.2297 31.0014 30.854 30.4763 30.9777 29.7571C31.1013 29.0379 30.6883 28.3344 30 28.092V22.908C30.6883 22.6656 31.1013 21.9621 30.9777 21.2429C30.854 20.5237 30.2297 19.9986 29.5 20V9.786C29.7865 9.66111 30.0478 9.48488 30.271 9.266V9.266ZM29.564 8.559C29.2816 8.8409 28.899 8.99946 28.5 9H27C26.1716 9 25.5 8.32843 25.5 7.5H30C29.9999 7.89666 29.8432 8.27725 29.564 8.559ZM24.5665 20L24.996 16.562C25.0138 16.4197 24.9696 16.2767 24.8747 16.1691C24.7799 16.0616 24.6434 16 24.5 16H21.5C21.3566 16 21.2201 16.0616 21.1253 16.1691C21.0304 16.2767 20.9862 16.4197 21.004 16.562L21.4335 20H17.5V18C17.5 17.4477 17.0523 17 16.5 17H11V15H11.5C12.0523 15 12.5 14.5523 12.5 14V13C12.5 12.4477 12.0523 12 11.5 12H7.5C6.94772 12 6.5 12.4477 6.5 13V14C6.5 14.5523 6.94772 15 7.5 15H8V17H7.5C6.94772 17 6.5 17.4477 6.5 18V20H5.5V9.95C6.10175 9.82397 6.63585 9.48036 7 8.985C7.46803 9.6213 8.21011 9.9979 9 10H11C11.79 9.99778 12.5321 9.62098 13 8.9845C13.4679 9.62098 14.21 9.99778 15 10H17C17.79 9.99778 18.5321 9.62098 19 8.9845C19.4679 9.62098 20.21 9.99778 21 10H23C23.79 9.99778 24.5321 9.62098 25 8.9845C25.3641 9.47986 25.8983 9.82347 26.5 9.9495V20H24.5665ZM22.0665 17H23.9335L23.5585 20H22.4415L22.0665 17ZM10.5 14H7.5V13H11.5V14H10.5ZM9 15H10V17H9V15ZM8.5 18H16.5V20H7.5V18H8.5ZM24.5 7.5C24.5 8.32843 23.8284 9 23 9H21C20.1716 9 19.5 8.32843 19.5 7.5H24.5ZM18.5 7.5C18.5 8.32843 17.8284 9 17 9H15C14.1716 9 13.5 8.32843 13.5 7.5H18.5ZM7.5 7.5H12.5C12.5 8.32843 11.8284 9 11 9H9C8.17157 9 7.5 8.32843 7.5 7.5ZM4.6885 2.926C5.05456 2.35094 5.68832 2.00193 6.37 2H25.63C26.3127 2.00197 26.9472 2.35204 27.313 2.9285L29.5865 6.5H25.3365L24.4645 4.314C24.3618 4.05746 24.0705 3.93278 23.814 4.0355C23.5575 4.13823 23.4328 4.42946 23.5355 4.686L24.2615 6.5H19.5V5.5C19.5 5.22386 19.2761 5 19 5C18.7239 5 18.5 5.22386 18.5 5.5V6.5H13.5V5.5C13.5 5.22386 13.2761 5 13 5C12.7239 5 12.5 5.22386 12.5 5.5V6.5H7.7385L8.4645 4.686C8.53095 4.52005 8.50382 4.33126 8.39333 4.19073C8.28284 4.05021 8.10577 3.97931 7.92883 4.00473C7.75189 4.03016 7.60195 4.14805 7.5355 4.314L6.6615 6.5H2.4115L4.6885 2.926ZM2 7.5H6.5C6.5 8.32843 5.82843 9 5 9H3.5C3.10193 9.0008 2.71994 8.84302 2.43846 8.56154C2.15698 8.28007 1.9992 7.89807 2 7.5V7.5ZM3.5 10H4.5V20H3.5V10ZM29 28H3V23H29V28ZM29.5 30H2.5C2.22386 30 2 29.7761 2 29.5C2 29.2239 2.22386 29 2.5 29H29.5C29.7761 29 30 29.2239 30 29.5C30 29.7761 29.7761 30 29.5 30ZM30 21.5C30 21.7761 29.7761 22 29.5 22H2.5C2.22386 22 2 21.7761 2 21.5C2 21.2239 2.22386 21 2.5 21H29.5C29.7761 21 30 21.2239 30 21.5ZM28.5 20H27.5V10H28.5V20Z" fill="#03A9F4" stroke="#03A9F4" stroke-width="0.5"/>
</svg>
