<svg width="209" height="209" viewBox="0 0 209 209" fill="none" xmlns="http://www.w3.org/2000/svg">
<path d="M24.1154 0C10.8916 0 0 10.5401 0 23.337V147.801C0 160.598 10.8916 171.138 24.1154 171.138H48.2308V209L106.949 171.138H184.885C198.108 171.138 209 160.598 209 147.801V23.337C209 10.5401 198.108 0 184.885 0H24.1154ZM24.1154 15.558H184.885C189.41 15.558 192.923 18.9579 192.923 23.337V147.801C192.923 152.18 189.41 155.58 184.885 155.58H102.051L64.3077 179.95V155.58H24.1154C19.5902 155.58 16.0769 152.18 16.0769 147.801V23.337C16.0769 18.9579 19.5902 15.558 24.1154 15.558ZM56.2692 77.7901C54.1373 77.7901 52.0927 78.6096 50.5852 80.0685C49.0777 81.5273 48.2308 83.5059 48.2308 85.5691C48.2308 87.6322 49.0777 89.6108 50.5852 91.0696C52.0927 92.5285 54.1373 93.3481 56.2692 93.3481C58.4012 93.3481 60.4458 92.5285 61.9533 91.0696C63.4608 89.6108 64.3077 87.6322 64.3077 85.5691C64.3077 83.5059 63.4608 81.5273 61.9533 80.0685C60.4458 78.6096 58.4012 77.7901 56.2692 77.7901ZM104.5 77.7901C102.368 77.7901 100.323 78.6096 98.816 80.0685C97.3084 81.5273 96.4615 83.5059 96.4615 85.5691C96.4615 87.6322 97.3084 89.6108 98.816 91.0696C100.323 92.5285 102.368 93.3481 104.5 93.3481C106.632 93.3481 108.677 92.5285 110.184 91.0696C111.692 89.6108 112.538 87.6322 112.538 85.5691C112.538 83.5059 111.692 81.5273 110.184 80.0685C108.677 78.6096 106.632 77.7901 104.5 77.7901ZM152.731 77.7901C150.599 77.7901 148.554 78.6096 147.047 80.0685C145.539 81.5273 144.692 83.5059 144.692 85.5691C144.692 87.6322 145.539 89.6108 147.047 91.0696C148.554 92.5285 150.599 93.3481 152.731 93.3481C154.863 93.3481 156.907 92.5285 158.415 91.0696C159.922 89.6108 160.769 87.6322 160.769 85.5691C160.769 83.5059 159.922 81.5273 158.415 80.0685C156.907 78.6096 154.863 77.7901 152.731 77.7901Z" fill="white"/>
</svg>
