<svg width="28" height="35" viewBox="0 0 28 35" fill="none" xmlns="http://www.w3.org/2000/svg">
<path d="M14 1.9C12.4438 1.9 11.1632 3.14414 11.1632 4.66667C11.1632 4.98306 11.2228 5.28544 11.3247 5.56759C7.51239 6.5633 5.00526 9.68797 5.00526 14C5.00526 18.9403 4.01378 21.1704 3.10356 22.3854C2.71403 22.9053 2.33237 23.2477 1.97379 23.5694C1.912 23.6249 1.8509 23.6797 1.79057 23.7347C1.3834 24.1059 0.9 24.6062 0.9 25.3333C0.9 26.2951 1.50084 27.093 2.3086 27.6177C3.11386 28.1408 4.15707 28.4876 5.3634 28.7488C6.68692 29.0354 8.22976 29.2056 9.8555 29.3077C9.8159 29.5331 9.79474 29.7645 9.79474 30C9.79474 32.2591 11.6878 34.1 14 34.1C16.3122 34.1 18.2053 32.2591 18.2053 30C18.2053 29.7638 18.1831 29.5328 18.1433 29.3077C19.7695 29.2056 21.3127 29.0354 22.6366 28.7488C23.8429 28.4876 24.8861 28.1408 25.6914 27.6177C26.4992 27.093 27.1 26.2951 27.1 25.3333C27.1 24.6062 26.6166 24.1059 26.2094 23.7347C26.1491 23.6797 26.088 23.6249 26.0262 23.5694C25.6676 23.2477 25.286 22.9053 24.8964 22.3854C23.9862 21.1704 22.9947 18.9403 22.9947 14C22.9947 9.71919 20.4887 6.57028 16.6741 5.57031C16.7766 5.28742 16.8368 4.98413 16.8368 4.66667C16.8368 3.14414 15.5562 1.9 14 1.9ZM14 3.43333C14.7111 3.43333 15.2684 3.98005 15.2684 4.66667C15.2684 5.35328 14.7111 5.9 14 5.9C13.2889 5.9 12.7316 5.35328 12.7316 4.66667C12.7316 3.98005 13.2889 3.43333 14 3.43333ZM8.13312 9.18889C9.12811 8.0067 10.5693 7.23285 12.3633 6.91174C12.8268 7.23559 13.3887 7.43333 14 7.43333C14.6106 7.43333 15.1721 7.23623 15.6354 6.913C17.4275 7.23212 18.8691 8.01458 19.865 9.20171C20.8684 10.3978 21.4263 12.013 21.4263 14C21.4263 19.1432 22.4876 21.767 23.6299 23.2917C24.1192 23.9448 24.6164 24.3887 24.9746 24.7085C25.0335 24.761 25.0886 24.8102 25.1392 24.8565C25.3215 25.0226 25.421 25.1214 25.4755 25.1929C25.5019 25.2274 25.515 25.2522 25.5221 25.2718C25.5288 25.2905 25.5316 25.3089 25.5316 25.3333C25.5316 25.5238 25.4872 25.6862 25.3807 25.8435C25.2724 26.0034 25.0963 26.1634 24.8234 26.3406C24.2816 26.6926 23.4004 27.0124 22.2976 27.2512C20.0934 27.7285 17.0518 27.9 14 27.9C10.9482 27.9 7.90657 27.7285 5.70239 27.2512C4.59959 27.0124 3.71842 26.6926 3.1766 26.3406C2.9037 26.1634 2.72757 26.0034 2.6193 25.8435C2.51282 25.6862 2.46842 25.5238 2.46842 25.3333C2.46842 25.3089 2.4712 25.2905 2.47794 25.2718C2.48499 25.2522 2.49811 25.2274 2.52446 25.1929C2.57904 25.1214 2.6785 25.0226 2.86075 24.8565C2.91145 24.8102 2.96654 24.761 3.02539 24.7085C3.38365 24.3887 3.88084 23.9448 4.37012 23.2917C5.51244 21.767 6.57368 19.1432 6.57368 14C6.57368 11.9943 7.13063 10.38 8.13312 9.18889ZM11.3632 30C11.3632 29.7879 11.3978 29.5853 11.4507 29.3865C12.2922 29.4156 13.1434 29.4333 14 29.4333C14.8566 29.4333 15.7077 29.4156 16.5493 29.3865C16.6021 29.5856 16.6368 29.7882 16.6368 30C16.6368 31.4235 15.4674 32.5667 14 32.5667C12.5326 32.5667 11.3632 31.4235 11.3632 30Z" fill="#03A9F4" stroke="#03A9F4" stroke-width="0.2"/>
<ellipse cx="20.5" cy="6" rx="6.5" ry="6" fill="#F39D0C"/>
</svg>
