<svg width="70" height="244" viewBox="0 0 70 244" fill="none" xmlns="http://www.w3.org/2000/svg">
<path d="M3 122C3 139.646 17.3545 154 35 154C52.6455 154 67 139.646 67 122C67 104.354 52.6455 90 35 90C17.3545 90 3 104.354 3 122ZM18.6667 122C18.6667 112.995 25.9945 105.667 35 105.667C44.0055 105.667 51.3333 112.995 51.3333 122C51.3333 131.005 44.0055 138.333 35 138.333C25.9945 138.333 18.6667 131.005 18.6667 122Z" fill="#F39D0C" stroke="#F39D0C" stroke-width="6"/>
<path d="M3 35C3 52.6455 17.3545 67 35 67C52.6455 67 67 52.6455 67 35C67 17.3545 52.6455 3 35 3C17.3545 3 3 17.3545 3 35ZM18.6667 35C18.6667 25.9945 25.9945 18.6667 35 18.6667C44.0055 18.6667 51.3333 25.9945 51.3333 35C51.3333 44.0055 44.0055 51.3333 35 51.3333C25.9945 51.3333 18.6667 44.0055 18.6667 35Z" fill="#F39D0C" stroke="#F39D0C" stroke-width="6"/>
<path d="M3 209C3 226.646 17.3545 241 35 241C52.6455 241 67 226.646 67 209C67 191.354 52.6455 177 35 177C17.3545 177 3 191.354 3 209ZM18.6667 209C18.6667 199.995 25.9945 192.667 35 192.667C44.0055 192.667 51.3333 199.995 51.3333 209C51.3333 218.005 44.0055 225.333 35 225.333C25.9945 225.333 18.6667 218.005 18.6667 209Z" fill="#F39D0C" stroke="#F39D0C" stroke-width="6"/>
</svg>
