<svg width="32" height="32" viewBox="0 0 32 32" fill="none" xmlns="http://www.w3.org/2000/svg">
<path d="M27.8776 31.15H27.8778C28.484 31.1492 29.0627 30.889 29.4876 30.4306C29.9122 29.9726 30.1493 29.3539 30.15 28.7107V28.7105V22.4415C30.15 22.2809 30.091 22.1249 29.9828 22.0081C29.8742 21.891 29.7244 21.8229 29.5656 21.8229C29.4068 21.8229 29.257 21.891 29.1485 22.0081C29.0403 22.1249 28.9812 22.2809 28.9812 22.4415V28.7103C28.9808 29.0326 28.8619 29.3395 28.6536 29.5642C28.4456 29.7886 28.1662 29.9124 27.8774 29.9128H3.1226C2.83379 29.9124 2.55439 29.7886 2.34645 29.5642C2.13816 29.3396 2.01919 29.0327 2.01876 28.7104C2.01876 28.7104 2.01876 28.7104 2.01876 28.7103L2.01876 8.08715L27.8775 8.08715C27.8775 8.08715 27.8775 8.08715 27.8776 8.08715C28.1663 8.0875 28.4457 8.21131 28.6537 8.43562C28.862 8.66034 28.9809 8.96729 28.9812 9.28961V15.559C28.9812 15.7196 29.0403 15.8756 29.1485 15.9923C29.257 16.1094 29.4068 16.1776 29.5656 16.1776C29.7244 16.1776 29.8742 16.1094 29.9828 15.9923L29.8728 15.8903L29.9828 15.9923C30.091 15.8756 30.15 15.7196 30.15 15.559V9.28946V9.28929C30.1493 8.6461 29.9122 8.02742 29.4876 7.56941C29.0627 7.11103 28.484 6.8508 27.8778 6.85H27.8776H1.43438C1.27557 6.85 1.12578 6.91816 1.01722 7.03527C0.909016 7.15199 0.85 7.30803 0.85 7.46858L0.85 28.7105L0.85 28.7107C0.850609 29.3539 1.08765 29.9727 1.51226 30.4307C1.93722 30.8891 2.51595 31.1493 3.12221 31.15H3.12238H27.8776Z" fill="#03A9F4" stroke="#03A9F4" stroke-width="0.3"/>
<path d="M29.8237 23.15L29.8239 23.15C30.1801 23.1496 30.5187 22.9949 30.7661 22.7249C31.0132 22.4554 31.15 22.0925 31.15 21.7165V16.2825V16.2823C31.1496 15.9066 31.0127 15.5441 30.7657 15.2748C30.5183 15.0051 30.1799 14.8506 29.824 14.85H29.8237H24.6701C23.6526 14.85 22.6796 15.2907 21.9644 16.0702C21.2496 16.8492 20.85 17.9033 20.85 19C20.85 20.0967 21.2496 21.1508 21.9644 21.9298C22.6796 22.7093 23.6526 23.15 24.6701 23.15L29.8237 23.15ZM24.6701 16.1112H24.6702L29.8234 16.1092C29.8579 16.1094 29.8938 16.1243 29.9224 16.1556L30.0311 16.056L29.9224 16.1556C29.9515 16.1873 29.9698 16.2328 29.9699 16.2827L29.9699 21.7165L29.9699 21.7178C29.9701 21.7424 29.9658 21.7665 29.9575 21.7887C29.9493 21.8108 29.9374 21.8302 29.923 21.846C29.9088 21.8617 29.8925 21.8734 29.8755 21.8812C29.8586 21.8889 29.8411 21.8926 29.8237 21.8927C29.8236 21.8927 29.8235 21.8927 29.8235 21.8927L24.6701 21.8927C24.3253 21.8927 23.9835 21.8187 23.6642 21.6745C23.3447 21.5303 23.0536 21.3186 22.8078 21.0507C22.562 20.7827 22.3664 20.464 22.2327 20.1123C22.0991 19.7606 22.0301 19.3832 22.0301 19.0019C22.0301 18.6206 22.0991 18.2433 22.2327 17.8916C22.3664 17.5399 22.562 17.2211 22.8078 16.9532C23.0536 16.6853 23.3447 16.4735 23.6642 16.3293C23.9835 16.1852 24.3253 16.1112 24.6701 16.1112Z" fill="#03A9F4" stroke="#03A9F4" stroke-width="0.3"/>
<path d="M1.24115 6.97816L1.24116 6.97816L17.7907 1.03665C18.287 0.85838 18.8169 0.806774 19.3363 0.886292C19.8557 0.965807 20.349 1.17404 20.7751 1.49311C21.2012 1.81214 21.5479 2.23267 21.7868 2.71929C22.0256 3.20589 22.1501 3.74483 22.15 4.29137V7.54745C22.15 7.70505 22.0903 7.85752 21.982 7.971C21.8735 8.08472 21.7248 8.15 21.5682 8.15C21.4115 8.15 21.2628 8.08472 21.1543 7.971C21.046 7.85752 20.9863 7.70505 20.9863 7.54745V4.29136C20.9863 3.93428 20.9049 3.58264 20.7493 3.26573C20.5937 2.94884 20.3685 2.67616 20.093 2.4699C19.8176 2.26368 19.4997 2.12972 19.1659 2.07859C18.8321 2.02746 18.4914 2.06053 18.172 2.17521L18.1214 2.0344L18.172 2.17521L1.62257 8.11666L1.24115 6.97816ZM1.24115 6.97816C1.10965 7.02539 1.0001 7.11933 0.930607 7.24141C0.861189 7.36337 0.83565 7.50638 0.857723 7.64531C0.879802 7.78428 0.948402 7.91193 1.05305 8.00486C1.15783 8.09791 1.29189 8.14994 1.43158 8.15M1.24115 6.97816L1.43158 8.15M1.43158 8.15C1.49662 8.15008 1.56111 8.1388 1.62236 8.11674L1.43158 8.15Z" fill="#03A9F4" stroke="#03A9F4" stroke-width="0.3"/>
<path d="M27.15 19.0001V19C27.15 18.5748 27.0239 18.1591 26.7877 17.8056C26.5515 17.452 26.2157 17.1765 25.8229 17.0137C25.4301 16.851 24.9978 16.8084 24.5808 16.8913C24.1637 16.9742 23.7806 17.1789 23.4799 17.4795C23.1792 17.7801 22.9744 18.1632 22.8914 18.5802C22.8084 18.9972 22.8509 19.4295 23.0135 19.8224C23.1761 20.2152 23.4516 20.5511 23.8051 20.7874C24.1586 21.0237 24.5742 21.1499 24.9994 21.15H24.9995C25.5697 21.1497 26.1164 20.9231 26.5196 20.52C26.9228 20.1169 27.1495 19.5703 27.15 19.0001ZM24.5904 18.3885C24.7115 18.3076 24.8538 18.2645 24.9994 18.2645C25.1946 18.2645 25.3818 18.3419 25.5198 18.4799C25.6578 18.6178 25.7354 18.8049 25.7355 19.0001C25.7356 19.1457 25.6925 19.2881 25.6117 19.4092C25.5309 19.5303 25.416 19.6247 25.2815 19.6805C25.147 19.7363 24.9989 19.7509 24.8561 19.7226C24.7133 19.6942 24.5821 19.6242 24.4791 19.5212C24.3761 19.4183 24.306 19.2871 24.2775 19.1443C24.2491 19.0015 24.2636 18.8535 24.3193 18.719C24.375 18.5844 24.4694 18.4694 24.5904 18.3885Z" fill="#03A9F4" stroke="#03A9F4" stroke-width="0.3"/>
</svg>
