<svg width="549" height="643" viewBox="0 0 549 643" fill="none" xmlns="http://www.w3.org/2000/svg">
<path d="M351.187 302.405C383.948 278.512 405.282 239.844 405.282 196.282C405.282 123.893 346.389 65 274 65C201.611 65 142.718 123.893 142.718 196.282C142.718 239.844 164.051 278.512 196.813 302.405C115.373 333.57 57.385 412.531 57.385 504.795C57.385 544.609 89.776 577 129.59 577H418.41C458.224 577 490.615 544.609 490.615 504.795C490.615 412.531 432.627 333.57 351.187 302.405ZM182.103 196.282C182.103 145.61 223.328 104.385 274 104.385C324.672 104.385 365.897 145.61 365.897 196.282C365.897 246.954 324.672 288.18 274 288.18C223.328 288.18 182.103 246.954 182.103 196.282ZM418.41 537.615H129.59C111.493 537.615 96.77 522.892 96.77 504.794C96.77 407.068 176.274 327.563 274.001 327.563C371.728 327.563 451.232 407.067 451.232 504.794C451.231 522.892 436.508 537.615 418.41 537.615Z" fill="black"/>
</svg>
