<svg width="768" height="589" viewBox="0 0 768 589" fill="none" xmlns="http://www.w3.org/2000/svg">
<path d="M681.774 588.331H85.6407C38.4335 588.331 0.0129395 549.924 0.0129395 502.704V85.6278C0.0129395 38.4206 38.4207 0 85.6407 0H681.774C728.994 0 767.402 38.4078 767.402 85.6278V502.704C767.402 549.924 728.994 588.331 681.774 588.331ZM85.6407 25.5796C52.5407 25.5796 25.5926 52.515 25.5926 85.6278V502.704C25.5926 535.817 52.5279 562.752 85.6407 562.752H681.774C714.887 562.752 741.822 535.817 741.822 502.704V85.6278C741.822 52.515 714.887 25.5796 681.774 25.5796H85.6407Z" fill="#E0E0E0"/>
<path d="M498.815 281.376C456.506 281.376 422.076 246.959 422.076 204.637C422.076 162.316 456.506 127.898 498.815 127.898C541.137 127.898 575.554 162.316 575.554 204.637C575.554 246.959 541.124 281.376 498.815 281.376ZM498.815 153.478C470.601 153.478 447.656 176.423 447.656 204.637C447.656 232.851 470.601 255.796 498.815 255.796C527.029 255.796 549.974 232.851 549.974 204.637C549.974 176.423 527.017 153.478 498.815 153.478Z" fill="#E0E0E0"/>
<path d="M681.774 588.332H389.386C384.347 588.332 379.781 585.377 377.722 580.786C375.663 576.194 376.481 570.81 379.832 567.049L578.79 343.228C583.638 337.766 593.051 337.766 597.911 343.228L758.053 523.385C761.365 527.12 762.209 532.44 760.201 537.019C746.554 568.188 715.769 588.332 681.774 588.332ZM417.869 562.752H681.774C702.928 562.752 722.318 551.612 733.1 533.821L588.344 370.969L417.869 562.752Z" fill="#E0E0E0"/>
<path d="M389.386 588.331H85.6278C38.4206 588.331 0 549.924 0 502.704V423.663C0 420.529 1.15108 417.511 3.23582 415.157L220.663 170.552C225.51 165.091 234.923 165.091 239.783 170.552L495.58 458.323C499.89 463.17 499.89 470.473 495.58 475.321L398.94 584.034C396.523 586.771 393.044 588.331 389.386 588.331ZM25.5924 428.523V502.704C25.5924 535.817 52.5278 562.752 85.6406 562.752H383.656L468.926 466.828L230.229 198.306L25.5924 428.523Z" fill="#E0E0E0"/>
</svg>
