<svg width="158" height="239" viewBox="0 0 158 239" fill="none" xmlns="http://www.w3.org/2000/svg">
<path d="M57.8049 170.262C51.4989 163.956 51.4989 153.971 57.8049 147.665L79 126.47L121.04 84.4302L79 0L53.2506 52.0244V100.545L37.1353 84.4302L0 159.051L51.3237 210.2L74.6208 186.902L57.8049 170.262Z" fill="#00BCFF"/>
<path d="M158 159.051L124.018 90.7361L83.5543 131.199L100.195 147.84C106.501 154.146 106.501 164.131 100.195 170.437L55.7029 214.929L79 238.226L158 159.051Z" fill="#00BCFF"/>
<path d="M53.2506 52.0243L121.04 84.6053L79 0.17511L53.2506 52.0243Z" fill="#00BCFF"/>
<path d="M53.2506 52.0244L86.357 119.288L121.04 84.6053L53.2506 52.0244Z" fill="#00A9FF"/>
<path d="M53.2506 100.545L86.357 119.288L53.2506 52.0244V100.545Z" fill="#00A4E5"/>
<path d="M53.2506 100.545L0 159.051L37.1353 84.4302L53.2506 100.545Z" fill="#00A9FF"/>
<path d="M0 159.051L57.8049 147.665L86.357 119.288L53.2506 100.545L0 159.051Z" fill="#00BCFF"/>
<path d="M57.8049 147.665L0 158.876L74.4457 186.902L57.8049 170.262C51.6741 164.131 51.6741 153.971 57.8049 147.665Z" fill="#00A9FF"/>
<path d="M53.2506 100.545L57.8049 147.665L86.357 119.288L53.2506 100.545Z" fill="#00A9FF"/>
<path d="M51.3237 210.2L37.3104 173.064L74.4457 187.078L51.3237 210.2Z" fill="#00A4E5"/>
<path d="M92.4878 122.091L124.018 90.561L158 159.051L92.4878 122.091Z" fill="#00BCFF"/>
<path d="M103.698 153.27L92.4878 121.916L83.5543 130.849L100.195 147.49C101.772 149.417 102.998 151.344 103.698 153.27Z" fill="#00A4E5"/>
<path d="M125.244 155.548L123.843 193.033L158 159.051L125.244 155.548Z" fill="#00A9FF"/>
<path d="M124.018 90.561L123.843 139.783L158 159.051L124.018 90.561Z" fill="#00A9FF"/>
<path d="M91.0865 179.721L79 238.051L123.843 193.033L91.0865 179.721Z" fill="#00BCFF"/>
<path d="M103.698 153.446L123.843 193.033L158 159.051L103.698 153.446Z" fill="#00A9FF"/>
<path d="M130.499 155.548L123.843 193.033L158 159.051L130.499 155.548Z" fill="#00BCFF"/>
<path d="M92.4878 122.091L103.698 153.446L158 159.051L92.4878 122.091Z" fill="#00A4E5"/>
<path d="M123.843 139.783L103.698 153.446L92.4878 122.091L123.843 139.783Z" fill="#00A9FF"/>
<path d="M91.0865 179.721L101.421 215.63L123.843 193.033L91.0865 179.721Z" fill="#00A9FF"/>
<path d="M91.0865 179.721L79 238.051L55.7029 214.754L91.0865 179.721Z" fill="#00A4E5"/>
</svg>
