<svg width="434" height="512" viewBox="0 0 434 512" fill="none" xmlns="http://www.w3.org/2000/svg">
<path d="M294.187 237.405C326.948 213.512 348.282 174.844 348.282 131.282C348.282 58.893 289.389 0 217 0C144.611 0 85.718 58.893 85.718 131.282C85.718 174.844 107.051 213.512 139.813 237.405C58.373 268.57 0.38501 347.531 0.38501 439.795C0.38501 479.609 32.776 512 72.59 512H361.41C401.224 512 433.615 479.609 433.615 439.795C433.615 347.531 375.627 268.57 294.187 237.405ZM125.103 131.282C125.103 80.61 166.328 39.385 217 39.385C267.672 39.385 308.897 80.61 308.897 131.282C308.897 181.954 267.672 223.18 217 223.18C166.328 223.18 125.103 181.954 125.103 131.282ZM361.41 472.615H72.59C54.493 472.615 39.77 457.892 39.77 439.794C39.77 342.068 119.274 262.563 217.001 262.563C314.728 262.563 394.232 342.067 394.232 439.794C394.231 457.892 379.508 472.615 361.41 472.615Z" fill="black"/>
</svg>
