<?xml version="1.0" encoding="utf-8"?>
<!-- Svg Vector Icons : http://www.onlinewebfonts.com/icon -->
<!DOCTYPE svg PUBLIC "-//W3C//DTD SVG 1.1//EN" "http://www.w3.org/Graphics/SVG/1.1/DTD/svg11.dtd">
<svg version="1.1" xmlns="http://www.w3.org/2000/svg" xmlns:xlink="http://www.w3.org/1999/xlink" x="0px" y="0px" viewBox="0 0 1000 1000" enable-background="new 0 0 1000 1000" xml:space="preserve">
<metadata> Svg Vector Icons : http://www.onlinewebfonts.com/icon </metadata>
<g><g transform="translate(0.000000,511.000000) scale(0.100000,-0.100000)"><path d="M877.1,4364.5c-41-21.6-97.1-77.7-123-123c-47.5-79.9-49.6-107.9-49.6-559.1v-474.9l-144.6-205.1c-420.9-602.2-459.8-667-459.8-753.3c0-107.9,64.8-319.5,136-438.2c71.2-123,246.1-284.9,369.1-345.4l99.3-47.5V-481.4c0-1828.3,2.2-1906,43.2-1992.3c23.7-54,71.2-110.1,112.2-136c69.1-41,105.8-43.2,1642.6-43.2h1569.3v-313v-313h-757.6h-757.7l-73.4-73.4l-73.4-73.4v-336.7c0-317.3,2.2-336.7,47.5-379.9c47.5-43.2,60.4-43.2,2696-43.2c2575.1,0,2648.5,2.1,2698.2,41c49.7,41,51.8,51.8,51.8,351.8c0,215.8-8.6,330.2-30.2,379.9c-56.1,131.7-71.2,133.8-897.9,133.8h-744.7v313v313h1420.3c1383.6,0,1420.3,2.1,1489.4,43.2c41,25.9,88.5,82,112.2,136c41,86.3,43.2,164.1,43.2,1962.1v1871.4l131.7,69.1c304.4,164,520.2,565.5,464.1,867.7c-8.6,45.3-127.3,237.4-304.3,492.1l-291.4,418.8v464.1c0,440.3-2.1,470.6-47.5,561.2c-30.2,58.3-77.7,107.9-125.2,133.8c-71.2,36.7-246.1,38.8-4122.8,38.8C1099.4,4405.5,948.3,4403.3,877.1,4364.5z M8993.2,3883.1c0-213.7,0-218-41-181.3c-110.1,101.5,17.3,97.1-3930.7,97.1c-2154.2,0-3758-6.5-3807.6-19.4c-47.5-10.8-112.3-38.8-146.8-64.8l-60.4-45.3v218v215.9h3993.3h3993.3V3883.1z M2006,3483.8c10.8-19.4-233.1-1178.5-254.7-1213.1c-8.6-15.1-231-23.7-673.5-23.7c-537.5,0-656.2,4.3-647.6,28.1c13,32.4,779.2,1128.9,831,1187.2c28.1,32.4,75.5,36.7,384.2,36.7C1839.8,3498.9,2001.7,3492.4,2006,3483.8z M3165.1,3462.2c0-90.7-110.1-1178.5-120.9-1195.8c-13-21.6-980-28.1-980-6.5c0,28.1,263.3,1206.6,272,1221.7c6.5,8.6,194.3,17.3,420.9,17.3C3130.6,3498.9,3165.1,3496.7,3165.1,3462.2z M4330.7,3440.6c0-79.9-107.9-1131.1-118.7-1165.6c-6.5-21.6-110.1-28.1-418.8-28.1c-224.5,0-414.4,6.5-418.8,17.3c-6.5,10.8,101.4,1202.3,112.2,1230.4c2.2,2.2,192.1,4.3,423.1,4.3h420.9V3440.6z M5345.2,3494.6c32.4-259,123-1219.6,114.4-1230.4c-12.9-21.6-906.6-21.6-921.7,0c-4.3,8.6,19.4,287.1,54,619.5c34.5,332.4,62.6,606.5,62.6,610.9c0,2.2,155.4,4.3,345.4,4.3C5189.8,3498.9,5345.2,3496.7,5345.2,3494.6z M6513,3494.6c10.8-30.2,116.6-1230.4,107.9-1236.8c-4.3-6.5-192.1-10.8-416.6-10.8c-306.5,0-410.1,6.5-416.6,28.1c-10.8,32.4-118.7,1083.6-118.7,1165.6v58.3h420.9C6320.9,3498.9,6510.8,3496.7,6513,3494.6z M7663.5,3479.5c10.8-15.1,272-1191.5,272-1219.6c0-21.6-967-15.1-980,4.3c-10.8,19.4-120.9,1100.9-120.9,1191.5c0,41,12.9,43.2,408,43.2C7469.2,3498.9,7657,3490.3,7663.5,3479.5z M8893.9,3250.7c243.9-338.9,662.6-943.3,675.6-975.7c15.1-38.9-1299.4-41-1323.2-4.3c-21.6,36.7-263.3,1193.7-252.5,1213.1c6.5,8.6,170.5,13,369.1,10.8l358.3-6.5L8893.9,3250.7z M1548.4,1886.5c-177-222.3-531-306.5-777.1-181.3c-99.3,51.8-211.5,142.5-241.8,198.6c-19.4,38.9-4.3,41,520.2,41h541.8L1548.4,1886.5z M2970.8,1929.6c0-38.8-120.9-164-211.5-215.9c-133.8-79.9-356.2-84.2-492.1-12.9c-86.3,47.5-224.5,183.5-224.5,222.3c0,13,181.3,21.6,464.1,21.6C2761.5,1944.8,2970.8,1938.3,2970.8,1929.6z M4266,1929.6c0-36.7-120.9-164-205.1-211.5c-235.3-140.3-578.5-60.4-708,159.7l-38.9,66.9h474.9C4052.3,1944.8,4266,1938.3,4266,1929.6z M5453.2,1925.3c0-21.6-82-129.5-129.5-170.5c-69.1-60.4-209.4-112.2-302.2-112.2s-233.1,51.8-302.2,112.2c-47.5,41-129.5,148.9-129.5,170.5c0,10.8,194.3,19.4,431.7,19.4C5258.9,1944.8,5453.2,1936.1,5453.2,1925.3z M6683.5,1921c0-15.1-45.3-71.2-101.5-127.3c-161.9-161.9-345.4-192.1-541.8-95c-99.3,49.6-220.2,174.8-220.2,228.8c0,10.8,194.3,17.3,431.7,17.3C6560.5,1944.8,6683.5,1938.3,6683.5,1921z M7877.2,1877.8c-92.8-161.9-295.7-254.7-487.8-226.6c-114.4,17.3-252.6,112.2-321.6,224.5l-43.2,69.1h446.8h446.8L7877.2,1877.8z M9511.2,1923.2c0-13-47.5-69.1-103.6-127.4c-263.3-263.3-692.9-222.3-910.9,84.2l-45.3,64.8h528.8C9336.4,1944.8,9511.2,1938.3,9511.2,1923.2z M8317.5,1614.5l71.2-79.9l-4.3-1172.1L8378-807.4H4999.9H1621.8l-6.5,1165.6L1611,1526l97.1,95l97.1,95l75.5-88.5c293.6-345.4,811.6-377.7,1174.2-73.4l99.3,84.2l103.6-95c144.6-131.7,304.4-187.8,533.2-189.9c161.9,0,200.7,6.5,323.8,64.8c77.7,36.7,179.2,99.3,222.3,138.1l79.9,69.1l60.4-58.3c287.1-289.2,759.8-295.7,1068.5-13l95,86.3l82-84.2c43.2-45.3,140.3-110.1,213.7-142.5c107.9-51.8,161.9-62.6,304.3-62.6c211.5,0,336.7,43.2,500.8,177l118.7,97.1l79.9-75.5c272-267.7,740.4-272,1025.3-13c64.8,58.3,140.3,142.5,166.2,183.5l45.3,75.5l34.5-49.7C8231.2,1718.1,8278.7,1659.8,8317.5,1614.5z M1308.8,220.1c0-755.5,8.6-1185,21.6-1226.1c13-36.7,47.5-75.5,77.7-90.7c77.7-34.5,7105.9-34.5,7183.6,0c30.2,15.1,64.8,54,77.7,90.7c12.9,41,21.6,468.4,21.6,1219.6c0,1090.1,2.1,1152.7,38.8,1137.6c19.4-8.6,88.5-19.4,151.1-25.9l112.2-12.9V-54v-1368.5H4999.9H1006.6V-43.2v1381.4l103.6,13c56.1,6.5,116.6,17.3,133.8,19.4c17.3,4.3,38.9,8.6,49.6,10.8C1302.3,1381.4,1308.8,861.2,1308.8,220.1z M7704.5-1742l1288.6-4.3v-302.2v-302.2H4999.9H1006.6v313v315.1l2704.6-6.5C5196.3-1733.4,6994.4-1737.7,7704.5-1742z M5917.2-2965.9v-302.2H5151h-766.3l-6.5,278.5c-2.2,155.4,0,293.6,4.3,308.7c8.6,23.7,159.7,28.1,772.8,23.7l762-6.5V-2965.9z M7611.7-3732.2v-151.1H5161.8H2711.8v151.1v151.1h2449.9h2449.9V-3732.2z"/><path d="M1990.9,992.8l-56.1-43.2V269.7c0-649.7,2.2-679.9,43.2-720.9c41-41,71.2-43.2,720.9-43.2h679.9l43.2,56.1c43.2,56.1,45.3,82.1,45.3,690.7c0,427.4-8.6,649.7-23.7,686.4c-15.1,30.2-54,64.8-90.7,77.7c-38.9,13-306.5,21.6-684.3,21.6C2072.9,1038.2,2047,1036,1990.9,992.8z M3160.8,267.6l4.3-459.8H2701h-464.1v464.1V736l459.8-4.3l457.6-6.5L3160.8,267.6z"/><path d="M3784.6,1025.2c-8.6-8.6-15.1-77.7-15.1-153.3V736h464.1h466.2l-6.5,146.8l-6.5,144.6l-444.7,6.5C3998.3,1036,3793.3,1031.7,3784.6,1025.2z"/><path d="M3769.5,261.1V110h1079.3H5928v151.1v151.1H4848.8H3769.5V261.1z"/><path d="M3769.5-343.3v-151.1h1079.3h1081.4l-6.5,146.8l-6.5,144.6l-1072.8,6.5l-1074.9,4.3V-343.3z"/></g></g>
</svg>