<?xml version="1.0" encoding="utf-8"?>
<!-- Generator: Adobe Illustrator 25.0.0, SVG Export Plug-In . SVG Version: 6.00 Build 0)  -->
<svg version="1.1" id="Layer_1" xmlns="http://www.w3.org/2000/svg" xmlns:xlink="http://www.w3.org/1999/xlink" x="0px" y="0px"
	 viewBox="0 0 190 200" style="enable-background:new 0 0 190 200;" xml:space="preserve">
<style type="text/css">
	.st0{fill:#00A9FA;}
	.st1{fill:#00BBF9;}
	.st2{fill:#00A3E0;}
	.st3{fill:none;stroke:#FFFFFF;stroke-width:15;stroke-miterlimit:10;}
	.st4{fill:#F39D0C;}
	.st5{fill:#FFFFFF;}
</style>
<g>
	<polygon class="st0" points="113.5,153.8 103.5,168.3 102.2,177.5 106,177.5 117.1,153.8 	"/>
	<polygon class="st1" points="124.5,138 124.5,138 124.6,138 154,117.5 149.2,85 136.9,111.4 	"/>
	<polygon class="st1" points="124.4,138.2 124.4,138.2 124.5,138 124.4,138.1 117.1,153.8 117.1,153.8 106,177.5 106,177.5 
		124.4,138.2 	"/>
	<path class="st2" d="M136.9,111.4L149.2,85l-2-13.6c-0.2-2.1-1.1-4-2.7-5.3l-10.9-9.4c-1.4-1.2-3.2-1.9-5.1-1.9H90.4l10.5,12.5
		L136.9,111.4z"/>
	<polygon class="st2" points="136.9,111.4 149.2,85 149.2,85 136.9,111.4 	"/>
	<path class="st1" d="M100.7,67.5L90.2,54.8H62c-2.2,0-4.4,0.8-6,2.2l-10,8.6c-0.4,0.4-0.8,0.8-1.1,1.2l8.8,48.5L100.7,67.5z"/>
	<polygon class="st1" points="100.9,67.3 90.4,54.8 90.2,54.8 100.7,67.5 	"/>
	<path class="st1" d="M30.1,159.7c0.2,2.1,1.2,4,2.6,5.5l9.7,9.6c1.7,1.6,3.9,2.6,6.3,2.7l4.9-8.1L30.1,159.7z"/>
	<path class="st2" d="M33.3,136.1l20.4-20.7l-8.8-48.5c-1.2,1.5-1.9,3.2-2.1,5.2L33.3,136.1z"/>
	<path class="st2" d="M53.6,169.4l19.6,8.1h29.1l1.3-9.2l-73.2-12.1l-0.3,1.7c0,0.6,0,1.2,0.1,1.8L53.6,169.4L53.6,169.4z"/>
	<polygon class="st0" points="124.5,138.1 124.5,138 124.4,138.2 	"/>
	<polygon class="st0" points="124.4,138.2 106,177.5 139.6,177.5 124.6,138.3 	"/>
	<polygon class="st0" points="136.9,111.4 100.7,67.5 53.6,115.4 54.2,118.6 33.2,136.6 30.9,151.6 124.4,138 	"/>
	<polygon class="st0" points="113.5,153.8 117.1,153.8 124.4,138.2 	"/>
	<polygon class="st0" points="124.4,138 124.5,138 136.9,111.4 136.9,111.4 	"/>
	<polygon class="st0" points="117.1,153.8 117.1,153.8 124.4,138.1 124.4,138.2 	"/>
	<polygon class="st0" points="136.9,111.4 100.9,67.3 100.7,67.5 136.9,111.4 	"/>
	<polygon class="st0" points="136.9,111.4 136.9,111.4 136.9,111.4 	"/>
	<polygon class="st0" points="53.6,115.4 33.3,136.1 33.2,136.6 54.2,118.6 	"/>
	<polygon class="st1" points="30.6,153.8 30.3,156.2 103.5,168.3 113.5,153.8 	"/>
	<polygon class="st1" points="124.5,138 124.5,138 124.4,138.1 	"/>
	<polygon class="st1" points="124.4,138.2 124.4,138 30.9,151.6 30.6,153.8 113.5,153.8 	"/>
	<polygon class="st1" points="124.4,138.2 124.4,138.1 124.5,138 124.4,138 	"/>
	<polygon class="st1" points="124.6,138 124.5,138 124.5,138.1 	"/>
	<path class="st1" d="M139.6,177.5h1.4c2.5,0,4.9-1,6.6-2.7l9.7-9.6c1.9-1.9,2.9-4.6,2.7-7.3l-0.9-5.8l-34.5-13.8L139.6,177.5z"/>
	<path class="st0" d="M48.7,177.5c0.1,0,0.2,0,0.3,0h24.1l-19.5-8.1L48.7,177.5z"/>
	<polygon class="st0" points="53.6,169.4 53.6,169.4 73.1,177.5 73.2,177.5 	"/>
	<polygon class="st2" points="124.4,138.2 124.4,138.2 124.4,138.2 	"/>
	<polygon class="st2" points="159.1,152 154,117.5 124.6,138 	"/>
	<polygon class="st2" points="124.4,138.2 124.6,138.3 124.5,138.1 124.4,138.2 	"/>
	<polygon class="st2" points="124.5,138.1 124.6,138.3 159.1,152.1 159.1,152 124.6,138 	"/>
	<path class="st3" d="M121.1,55.1"/>
	<g>
		<path class="st1" d="M119.2,54.8h-16.1V38.7h11.4c2.6,0,4.7,2.1,4.7,4.7V54.8z"/>
		<path class="st4" d="M70.8,54.8h16.1V38.7H75.5c-2.6,0-4.7,2.1-4.7,4.7V54.8z"/>
		<path class="st0" d="M103,38.6H86.9V27.2c0-2.6,2.1-4.7,4.7-4.7H103V38.6z"/>
	</g>
	<g>
		<path class="st4" d="M87.1,135.3c-2.3-2.3-2.3-6.1,0-8.5l7.9-7.9l0,0l15.7-15.7L95,71.6L85.3,91v18.2l-6-6l-13.9,28l19.2,19.2
			l8.7-8.7L87.1,135.3z"/>
		<path class="st5" d="M124.6,131.1l-12.7-25.6l-15.2,15.2l6.2,6.2c2.3,2.3,2.3,6.1,0,8.5L86.3,152l8.7,8.7L124.6,131.1z"/>
	</g>
</g>
</svg>
