<?xml version="1.0" encoding="UTF-8" standalone="no"?>
<svg
   xmlns:dc="http://purl.org/dc/elements/1.1/"
   xmlns:cc="http://creativecommons.org/ns#"
   xmlns:rdf="http://www.w3.org/1999/02/22-rdf-syntax-ns#"
   xmlns:svg="http://www.w3.org/2000/svg"
   xmlns="http://www.w3.org/2000/svg"
   xmlns:sodipodi="http://sodipodi.sourceforge.net/DTD/sodipodi-0.dtd"
   xmlns:inkscape="http://www.inkscape.org/namespaces/inkscape"
   width="160mm"
   height="160mm"
   viewBox="0 0 160 160"
   version="1.1"
   id="svg3855"
   inkscape:version="1.0.1 (3bc2e813f5, 2020-09-07)"
   sodipodi:docname="Selendra-Qr.svg">
  <defs
     id="defs3849" />
  <sodipodi:namedview
     id="base"
     pagecolor="#ffffff"
     bordercolor="#666666"
     borderopacity="1.0"
     inkscape:pageopacity="0.0"
     inkscape:pageshadow="2"
     inkscape:zoom="0.37782051"
     inkscape:cx="286.74104"
     inkscape:cy="358.64454"
     inkscape:document-units="mm"
     inkscape:current-layer="layer1"
     inkscape:document-rotation="0"
     showgrid="false"
     inkscape:pagecheckerboard="true"
     inkscape:window-width="1920"
     inkscape:window-height="1016"
     inkscape:window-x="0"
     inkscape:window-y="38"
     inkscape:window-maximized="1" />
  <metadata
     id="metadata3852">
    <rdf:RDF>
      <cc:Work
         rdf:about="">
        <dc:format>image/svg+xml</dc:format>
        <dc:type
           rdf:resource="http://purl.org/dc/dcmitype/StillImage" />
        <dc:title></dc:title>
      </cc:Work>
    </rdf:RDF>
  </metadata>
  <g
     inkscape:label="Layer 1"
     inkscape:groupmode="layer"
     id="layer1"
     transform="translate(-29.966434,-53.275299)">
    <g
       id="g4038"
       transform="rotate(90,1065.0598,433.56467)">
      <path
         id="rect3785"
         style="fill:#ffffff;fill-opacity:1;stroke:none;stroke-width:1.4502;stroke-dasharray:2.90042, 1.4502;stroke-dashoffset:11.6017"
         d="m 694.43414,1400.7198 c 0,0 4.60454,4.9717 15.43878,15.8059 10.83424,10.8342 16.97082,9.6763 16.97082,9.6763 0,0 -1.60919,5.6854 10.45996,17.7545 12.06913,12.0692 6.90613,7.0785 13.71538,13.7154 6.80925,6.6369 21.14218,7.1599 28.83533,-0.6346 l 54.7164,-55.437 c 6.64279,-8.0638 4.96817,-20.7498 0.43667,-26.0439 0,0 -3.31388,-2.8273 -14.29129,-14.5789 -10.9774,-11.7517 -17.88549,-10.4278 -17.88549,-10.4278 0,0 2.20886,-5.2488 -9.54523,-17.0029 -11.75409,-11.7541 -15.95148,-15.2968 -15.95148,-15.2968 -4.82276,-3.9595 -19.68942,-6.3514 -27.43331,1.3924 l -54.07907,54.0791 c -7.21788,7.2179 -6.37488,21.3139 -1.38747,26.9983 z"
         sodipodi:nodetypes="szczzscszczssss" />
      <g
         id="g3791"
         transform="matrix(0.23002632,-0.03213441,0.03213441,0.23002632,605.51976,1174.9686)"
         style="fill:#ff8735;fill-opacity:1">
        <path
           sodipodi:nodetypes="cssc"
           id="path3787"
           d="m 588.25353,805.49145 c 0.0687,1.23005 0.17861,2.86163 0.60177,4.67717 0.89887,4.09879 2.5538,6.40908 5.26656,12.05394 1.01275,2.04312 2.01525,4.33614 2.68511,6.86404 0.66197,2.46638 0.91549,5.17242 0.47226,7.9177 -0.49697,2.86982 -1.79449,5.4691 -3.61152,7.54344 -1.60447,1.8317 -3.50813,3.13386 -5.41374,3.94193 -6.20158,2.58396 -10.9202,0.20739 -12.51696,-1.12338 -2.00936,-1.67463 -0.39003,-1.46817 1.73173,-1.25394 2.05779,0.20779 5.63088,0.32622 8.86951,-1.57768 2.708,-1.55954 5.1982,-4.69342 5.68744,-8.35813 0.2724,-1.79623 0.0532,-3.75893 -0.42269,-5.76555 0,0 0,0 0,0 -0.48018,-1.98814 -1.28699,-3.9951 -2.14974,-6.04846 -0.35794,-0.82204 -0.71582,-1.63322 -1.07585,-2.47749 -1.86532,-4.37413 -2.91456,-7.79888 -3.03377,-11.30612 -0.0958,-4.06115 1.14813,-6.51467 1.87411,-7.30088 0.82266,-0.89089 0.91742,0.0932 1.03578,2.21341 z"
           style="fill:#ff8735;fill-opacity:1;stroke:none;stroke-width:0.264583px;stroke-linecap:butt;stroke-linejoin:miter;stroke-opacity:1" />
        <path
           sodipodi:nodetypes="cssc"
           id="path3789"
           d="m 577.51986,847.51232 c -10e-6,0 -0.0646,0.0188 -0.0646,0.0188 -2.10849,0.62215 -6.95918,1.84532 -11.91038,0.56493 -1.94514,-0.52978 -3.95227,-1.49444 -5.73888,-3.00599 -1.63143,-1.38844 -3.01144,-3.20181 -3.92003,-5.34473 -1.65702,-4.04151 -1.51665,-8.72234 0.29212,-12.85837 1.72958,-3.93004 4.46934,-7.07018 7.30502,-9.72199 0,0 0,0 0,-1e-5 1.13969,-1.08375 2.30321,-2.12106 3.48581,-3.11078 7.54383,-6.31351 14.43936,-9.50395 17.85233,-10.64348 3.95537,-1.32063 3.65452,-0.39719 0.72587,1.79089 -4.09933,3.06269 -11.03737,7.59548 -18.66564,15.41015 -2.42801,2.53263 -4.82638,5.22831 -6.08679,8.25895 -1.23386,2.94342 -1.57358,6.33212 -0.49786,9.1052 0.22532,0.61252 0.51156,1.20453 0.84902,1.76414 0.46694,0.77434 1.02092,1.4687 1.62783,2.06653 1.17048,1.16253 2.59604,1.99631 3.98611,2.54712 3.3056,1.37789 8.76541,1.1653 10.44262,1.21959 3.94584,0.10055 4.36548,0.75729 0.31747,1.93905 z"
           style="fill:#ff8735;fill-opacity:1;stroke:none;stroke-width:0.264583px;stroke-linecap:butt;stroke-linejoin:miter;stroke-opacity:1" />
      </g>
      <g
         transform="matrix(-0.03789327,-0.22914805,0.22914805,-0.03789327,590.62071,1518.5511)"
         id="g3797"
         style="fill:#ff8735;fill-opacity:1">
        <path
           style="fill:#ff8735;fill-opacity:1;stroke:none;stroke-width:0.264583px;stroke-linecap:butt;stroke-linejoin:miter;stroke-opacity:1"
           d="m 588.25353,805.49145 c 0.0687,1.23005 0.17861,2.86163 0.60177,4.67717 0.89887,4.09879 2.5538,6.40908 5.26656,12.05394 1.01275,2.04312 2.01525,4.33614 2.68511,6.86404 0.66197,2.46638 0.91549,5.17242 0.47226,7.9177 -0.49697,2.86982 -1.79449,5.4691 -3.61152,7.54344 -1.60447,1.8317 -3.50813,3.13386 -5.41374,3.94193 -6.20158,2.58396 -10.9202,0.20739 -12.51696,-1.12338 -2.00936,-1.67463 -0.39003,-1.46817 1.73173,-1.25394 2.05779,0.20779 5.63088,0.32622 8.86951,-1.57768 2.708,-1.55954 5.1982,-4.69342 5.68744,-8.35813 0.2724,-1.79623 0.0532,-3.75893 -0.42269,-5.76555 0,0 0,0 0,0 -0.48018,-1.98814 -1.28699,-3.9951 -2.14974,-6.04846 -0.35794,-0.82204 -0.71582,-1.63322 -1.07585,-2.47749 -1.86532,-4.37413 -2.91456,-7.79888 -3.03377,-11.30612 -0.0958,-4.06115 1.14813,-6.51467 1.87411,-7.30088 0.82266,-0.89089 0.91742,0.0932 1.03578,2.21341 z"
           id="path3793"
           sodipodi:nodetypes="cssc" />
        <path
           style="fill:#ff8735;fill-opacity:1;stroke:none;stroke-width:0.264583px;stroke-linecap:butt;stroke-linejoin:miter;stroke-opacity:1"
           d="m 577.51986,847.51232 c -10e-6,0 -0.0646,0.0188 -0.0646,0.0188 -2.10849,0.62215 -6.95918,1.84532 -11.91038,0.56493 -1.94514,-0.52978 -3.95227,-1.49444 -5.73888,-3.00599 -1.63143,-1.38844 -3.01144,-3.20181 -3.92003,-5.34473 -1.65702,-4.04151 -1.51665,-8.72234 0.29212,-12.85837 1.72958,-3.93004 4.46934,-7.07018 7.30502,-9.72199 0,0 0,0 0,-1e-5 1.13969,-1.08375 2.30321,-2.12106 3.48581,-3.11078 7.54383,-6.31351 14.43936,-9.50395 17.85233,-10.64348 3.95537,-1.32063 3.65452,-0.39719 0.72587,1.79089 -4.09933,3.06269 -11.03737,7.59548 -18.66564,15.41015 -2.42801,2.53263 -4.82638,5.22831 -6.08679,8.25895 -1.23386,2.94342 -1.57358,6.33212 -0.49786,9.1052 0.22532,0.61252 0.51156,1.20453 0.84902,1.76414 0.46694,0.77434 1.02092,1.4687 1.62783,2.06653 1.17048,1.16253 2.59604,1.99631 3.98611,2.54712 3.3056,1.37789 8.76541,1.1653 10.44262,1.21959 3.94584,0.10055 4.36548,0.75729 0.31747,1.93905 z"
           id="path3795"
           sodipodi:nodetypes="cssc" />
      </g>
      <g
         id="g3803"
         transform="matrix(0.0449351,0.2278718,-0.2278718,0.0449351,935.55805,1184.7106)"
         style="fill:#ff8735;fill-opacity:1">
        <path
           sodipodi:nodetypes="cssc"
           id="path3799"
           d="m 588.25353,805.49145 c 0.0687,1.23005 0.17861,2.86163 0.60177,4.67717 0.89887,4.09879 2.5538,6.40908 5.26656,12.05394 1.01275,2.04312 2.01525,4.33614 2.68511,6.86404 0.66197,2.46638 0.91549,5.17242 0.47226,7.9177 -0.49697,2.86982 -1.79449,5.4691 -3.61152,7.54344 -1.60447,1.8317 -3.50813,3.13386 -5.41374,3.94193 -6.20158,2.58396 -10.9202,0.20739 -12.51696,-1.12338 -2.00936,-1.67463 -0.39003,-1.46817 1.73173,-1.25394 2.05779,0.20779 5.63088,0.32622 8.86951,-1.57768 2.708,-1.55954 5.1982,-4.69342 5.68744,-8.35813 0.2724,-1.79623 0.0532,-3.75893 -0.42269,-5.76555 0,0 0,0 0,0 -0.48018,-1.98814 -1.28699,-3.9951 -2.14974,-6.04846 -0.35794,-0.82204 -0.71582,-1.63322 -1.07585,-2.47749 -1.86532,-4.37413 -2.91456,-7.79888 -3.03377,-11.30612 -0.0958,-4.06115 1.14813,-6.51467 1.87411,-7.30088 0.82266,-0.89089 0.91742,0.0932 1.03578,2.21341 z"
           style="fill:#ff8735;fill-opacity:1;stroke:none;stroke-width:0.264583px;stroke-linecap:butt;stroke-linejoin:miter;stroke-opacity:1" />
        <path
           sodipodi:nodetypes="cssc"
           id="path3801"
           d="m 577.51986,847.51232 c -10e-6,0 -0.0646,0.0188 -0.0646,0.0188 -2.10849,0.62215 -6.95918,1.84532 -11.91038,0.56493 -1.94514,-0.52978 -3.95227,-1.49444 -5.73888,-3.00599 -1.63143,-1.38844 -3.01144,-3.20181 -3.92003,-5.34473 -1.65702,-4.04151 -1.51665,-8.72234 0.29212,-12.85837 1.72958,-3.93004 4.46934,-7.07018 7.30502,-9.72199 0,0 0,0 0,-1e-5 1.13969,-1.08375 2.30321,-2.12106 3.48581,-3.11078 7.54383,-6.31351 14.43936,-9.50395 17.85233,-10.64348 3.95537,-1.32063 3.65452,-0.39719 0.72587,1.79089 -4.09933,3.06269 -11.03737,7.59548 -18.66564,15.41015 -2.42801,2.53263 -4.82638,5.22831 -6.08679,8.25895 -1.23386,2.94342 -1.57358,6.33212 -0.49786,9.1052 0.22532,0.61252 0.51156,1.20453 0.84902,1.76414 0.46694,0.77434 1.02092,1.4687 1.62783,2.06653 1.17048,1.16253 2.59604,1.99631 3.98611,2.54712 3.3056,1.37789 8.76541,1.1653 10.44262,1.21959 3.94584,0.10055 4.36548,0.75729 0.31747,1.93905 z"
           style="fill:#ff8735;fill-opacity:1;stroke:none;stroke-width:0.264583px;stroke-linecap:butt;stroke-linejoin:miter;stroke-opacity:1" />
      </g>
      <g
         transform="matrix(-0.22838457,0.0422517,-0.0422517,-0.22838457,933.14992,1525.9182)"
         id="g3809"
         style="fill:#ff8735;fill-opacity:1">
        <path
           style="fill:#ff8735;fill-opacity:1;stroke:none;stroke-width:0.264583px;stroke-linecap:butt;stroke-linejoin:miter;stroke-opacity:1"
           d="m 588.25353,805.49145 c 0.0687,1.23005 0.17861,2.86163 0.60177,4.67717 0.89887,4.09879 2.5538,6.40908 5.26656,12.05394 1.01275,2.04312 2.01525,4.33614 2.68511,6.86404 0.66197,2.46638 0.91549,5.17242 0.47226,7.9177 -0.49697,2.86982 -1.79449,5.4691 -3.61152,7.54344 -1.60447,1.8317 -3.50813,3.13386 -5.41374,3.94193 -6.20158,2.58396 -10.9202,0.20739 -12.51696,-1.12338 -2.00936,-1.67463 -0.39003,-1.46817 1.73173,-1.25394 2.05779,0.20779 5.63088,0.32622 8.86951,-1.57768 2.708,-1.55954 5.1982,-4.69342 5.68744,-8.35813 0.2724,-1.79623 0.0532,-3.75893 -0.42269,-5.76555 0,0 0,0 0,0 -0.48018,-1.98814 -1.28699,-3.9951 -2.14974,-6.04846 -0.35794,-0.82204 -0.71582,-1.63322 -1.07585,-2.47749 -1.86532,-4.37413 -2.91456,-7.79888 -3.03377,-11.30612 -0.0958,-4.06115 1.14813,-6.51467 1.87411,-7.30088 0.82266,-0.89089 0.91742,0.0932 1.03578,2.21341 z"
           id="path3805"
           sodipodi:nodetypes="cssc" />
        <path
           style="fill:#ff8735;fill-opacity:1;stroke:none;stroke-width:0.264583px;stroke-linecap:butt;stroke-linejoin:miter;stroke-opacity:1"
           d="m 577.51986,847.51232 c -10e-6,0 -0.0646,0.0188 -0.0646,0.0188 -2.10849,0.62215 -6.95918,1.84532 -11.91038,0.56493 -1.94514,-0.52978 -3.95227,-1.49444 -5.73888,-3.00599 -1.63143,-1.38844 -3.01144,-3.20181 -3.92003,-5.34473 -1.65702,-4.04151 -1.51665,-8.72234 0.29212,-12.85837 1.72958,-3.93004 4.46934,-7.07018 7.30502,-9.72199 0,0 0,0 0,-1e-5 1.13969,-1.08375 2.30321,-2.12106 3.48581,-3.11078 7.54383,-6.31351 14.43936,-9.50395 17.85233,-10.64348 3.95537,-1.32063 3.65452,-0.39719 0.72587,1.79089 -4.09933,3.06269 -11.03737,7.59548 -18.66564,15.41015 -2.42801,2.53263 -4.82638,5.22831 -6.08679,8.25895 -1.23386,2.94342 -1.57358,6.33212 -0.49786,9.1052 0.22532,0.61252 0.51156,1.20453 0.84902,1.76414 0.46694,0.77434 1.02092,1.4687 1.62783,2.06653 1.17048,1.16253 2.59604,1.99631 3.98611,2.54712 3.3056,1.37789 8.76541,1.1653 10.44262,1.21959 3.94584,0.10055 4.36548,0.75729 0.31747,1.93905 z"
           id="path3807"
           sodipodi:nodetypes="cssc" />
      </g>
      <path
         id="path3811"
         style="fill:#333d81;fill-opacity:1;stroke:none;stroke-width:0.204057;stroke-miterlimit:4;stroke-dasharray:1.22434, 0.204057;stroke-dashoffset:1.22434;stroke-opacity:1"
         d="m 768.2839,1353.9941 a 2.6684551,2.6684551 0 0 1 -2.66856,2.6684 2.6684551,2.6684551 0 0 1 -2.66856,-2.6684 2.6684551,2.6684551 0 0 1 2.66856,-2.6685 2.6684551,2.6684551 0 0 1 2.66856,2.6685" />
      <path
         sodipodi:nodetypes="cccssccsssccsscccccccccscccscccscsscsscc"
         d="m 774.70342,1375.8996 -2.45384,-2.3423 v 0 l 12.94677,-12.9467 c 1.66955,-1.6694 2.50332,-3.8769 2.50332,-6.0877 0,-2.2109 -0.83377,-4.4183 -2.50156,-6.0877 l -14.23158,-14.23 v 0 c -1.66754,-1.6679 -3.87502,-2.5034 -6.08601,-2.5034 -2.20899,0 -4.41823,0.8355 -6.08601,2.5034 v 0 l -14.23134,14.23 c -1.66779,1.6694 -2.50181,3.8768 -2.50181,6.0877 0,2.2108 0.83402,4.4183 2.50332,6.0877 l 7.11491,7.1146 7.11492,7.115 v 0 l 7.54837,7.5483 4.44785,4.448 7.54838,7.5483 v 0 l 7.11491,7.1165 7.11491,7.1131 c 3.7045,3.7045 5.55863,8.5858 5.55863,13.4587 0,4.8745 -1.85413,9.7524 -5.55863,13.4585 l -14.22982,14.2299 v 0 c -3.70626,3.7045 -8.58406,5.5585 -13.45859,5.5585 -4.87429,0 -9.75033,-1.854 -13.45683,-5.5585 v 0 l -14.23159,-14.2299 c -3.70449,-3.7061 -5.55837,-8.584 -5.55837,-13.4585 0,-0.1788 0,-0.3576 0,-0.536 -0.17831,0 -0.35687,0.01 -0.53618,0.01 -4.87453,0 -9.75233,-1.8524 -13.45859,-5.5585 l -14.23133,-14.2299 v 0 c -3.70299,-3.7061 -5.55687,-8.584 -5.55687,-13.4584 0,-4.8745 1.85388,-9.7524 5.55687,-13.4569 v 0"
         style="fill:none;fill-opacity:0;fill-rule:nonzero;stroke:#333d81;stroke-width:1.66;stroke-linejoin:round;stroke-miterlimit:4;stroke-dasharray:none;stroke-opacity:1"
         id="path3813" />
      <path
         sodipodi:nodetypes="ccccsssccscccc"
         d="m 804.74648,1411.7657 c -0.70318,-0.9349 -0.81268,-1.0074 -1.46462,-2.2688 l 1.39581,-1.0455 14.2798,-14.0645 v 0 c 1.66954,-1.6694 2.50532,-3.8769 2.50532,-6.0877 0,-2.209 -0.83578,-4.4183 -2.50532,-6.0878 v 0 l -14.22958,-14.2299 c -1.66779,-1.6695 -3.87677,-2.5035 -6.08777,-2.5035 -2.21099,0 -4.41822,0.834 -6.08776,2.5035 l -12.94678,12.947 v 0 l -2.38378,-2.3734"
         style="fill:none;fill-opacity:0;fill-rule:nonzero;stroke:#333d81;stroke-width:1.66001;stroke-linejoin:round;stroke-miterlimit:4;stroke-dasharray:none;stroke-opacity:1"
         id="path3815" />
      <path
         sodipodi:nodetypes="ccccsccsssccsccccccccccscccscccscscccsscccc"
         d="m 755.29293,1400.676 2.21978,2.3559 v 0 l -12.94677,12.9467 c -1.6693,1.6694 -2.50332,3.8769 -2.50332,6.0877 0,2.2109 0.83402,4.4183 2.50181,6.0877 l 14.23133,14.2315 v 0 c 1.66779,1.6695 3.87703,2.5035 6.08626,2.5035 2.21075,0 4.41823,-0.834 6.08601,-2.5035 v 0 l 14.23159,-14.2315 c 1.66779,-1.6694 2.50156,-3.8768 2.50156,-6.0877 0,-2.2108 -0.83377,-4.4183 -2.50332,-6.0877 l -7.11491,-7.115 -7.11492,-7.115 v 0 l -7.54837,-7.5483 -4.4461,-4.448 -7.54862,-7.5498 v 0 l -7.11642,-7.115 -7.11491,-7.115 c -3.7045,-3.706 -5.55863,-8.5858 -5.55863,-13.4584 0,-4.8744 1.85413,-9.7523 5.55863,-13.4588 l 14.23133,-14.2295 v 0 c 3.70651,-3.7045 8.58255,-5.5566 13.45708,-5.5566 4.87429,0 9.75209,1.8521 13.45859,5.5566 v 0 l 14.22958,14.2295 c 3.70449,3.7065 5.55862,8.5844 5.55862,13.4588 0,0.1788 0,0.3577 -0.0251,0.538 0.17831,-0.01 0.35711,0 0.53617,0 4.87454,0 9.75435,1.8521 13.45859,5.5585 l 14.23158,14.2296 v 0 c 3.70475,3.7045 5.55713,8.5824 5.55713,13.4568 0,4.8745 -1.85238,9.7524 -5.55713,13.4584 v 0 l -14.23158,14.23 c -1.42393,1.4256 -1.75368,1.6212 -2.67233,2.2889 -0.8953,-1.112 -2.53194,-3.2398 -2.53194,-3.2398"
         style="fill:none;fill-opacity:0;fill-rule:nonzero;stroke:#333d81;stroke-width:1.66001;stroke-linejoin:round;stroke-miterlimit:4;stroke-dasharray:none;stroke-opacity:1"
         id="path3817" />
      <path
         sodipodi:nodetypes="ccccsssccscccc"
         d="m 723.93492,1364.9324 c 0,0 0.78455,1.038 1.492,2.6574 v 0 L 710.79,1382.2025 v 0 c -1.66954,1.6694 -2.50532,3.8784 -2.50532,6.0877 0,2.2109 0.83578,4.4183 2.50532,6.0878 v 0 l 14.23134,14.2295 c 1.66954,1.6699 3.87526,2.5054 6.08626,2.5054 2.21074,0 4.41822,-0.8355 6.08752,-2.5054 l 12.94677,-12.9466 0.26646,-0.056 2.21074,2.2111"
         style="fill:none;fill-opacity:0;fill-rule:nonzero;stroke:#333d81;stroke-width:1.66001;stroke-linejoin:round;stroke-miterlimit:4;stroke-dasharray:none;stroke-opacity:1"
         id="path3819" />
      <path
         sodipodi:nodetypes="cccc"
         d="m 703.41743,1374.8314 11.9239,-12.222 c 1.50229,-1.4134 2.49829,-2.4084 4.23916,-3.6163 l 1.9473,2.6441"
         style="fill:none;fill-opacity:0;fill-rule:nonzero;stroke:#333d81;stroke-width:1.66001;stroke-linejoin:round;stroke-miterlimit:4;stroke-dasharray:none;stroke-opacity:1"
         id="path3821" />
      <path
         sodipodi:nodetypes="cssssc"
         style="fill:none;fill-opacity:1;stroke:#333d81;stroke-width:1.98714;stroke-linecap:butt;stroke-linejoin:miter;stroke-miterlimit:4;stroke-dasharray:11.9228, 1.98714;stroke-dashoffset:11.9228;stroke-opacity:1"
         d="m 724.81666,1361.5131 c 0,0 -17.64577,16.4141 -20.16114,19.8822 -2.77956,3.8321 -3.14321,8.4564 0.48419,14.0555 4.1696,6.4358 16.48226,16.7345 18.13749,18.1083 1.65523,1.3738 10.82117,4.2907 15.47671,0.2754 4.65555,-4.0154 14.87223,-14.5763 15.72132,-15.3201"
         id="path3823" />
      <path
         id="path3825"
         d="m 739.49577,1414.5618 c -2.55782,3.2103 -5.38836,8.4848 -0.8074,14.635 4.58121,6.1497 16.35066,17.406 18.16185,18.5666 4.15603,2.6629 9.26337,3.9583 14.36845,0.7797 5.21909,-3.2494 12.17076,-11.62 13.0196,-12.3638"
         style="fill:none;fill-opacity:1;stroke:#333d81;stroke-width:1.98714;stroke-linecap:butt;stroke-linejoin:miter;stroke-miterlimit:4;stroke-dasharray:11.9228, 1.98714;stroke-dashoffset:11.9228;stroke-opacity:1"
         sodipodi:nodetypes="csssc" />
      <path
         id="path3827"
         d="m 788.02866,1365.4197 c 2.82451,-2.517 9.60768,-8.1887 17.11059,-3.3458 5.8291,3.7627 17.05083,16.1653 18.59255,17.6654 1.85815,1.8076 4.90166,10.72 1.36693,15.1389 -5.53728,6.9227 -19.88564,19.104 -19.88564,19.104"
         style="fill:none;fill-opacity:1;stroke:#333d81;stroke-width:1.98714;stroke-linecap:butt;stroke-linejoin:miter;stroke-miterlimit:4;stroke-dasharray:11.9228, 1.98714;stroke-dashoffset:11.9228;stroke-opacity:1"
         sodipodi:nodetypes="csssc" />
      <path
         sodipodi:nodetypes="cscssc"
         style="fill:none;fill-opacity:1;stroke:#333d81;stroke-width:1.98714;stroke-linecap:butt;stroke-linejoin:miter;stroke-miterlimit:4;stroke-dasharray:11.9228, 1.98714;stroke-dashoffset:11.9228;stroke-opacity:1"
         d="m 740.4654,1345.1345 c -1.46311,1.6319 12.20944,-13.0365 15.60881,-15.4208 5.42703,-3.8066 8.40198,-4.923 15.14973,-1.6339 6.41651,4.1995 15.44231,14.3146 17.90846,17.014 2.24037,2.4526 5.32632,9.8941 1.82299,15.6608 -2.81372,4.6314 -14.71703,16.1201 -15.4079,17.0127"
         id="path3829" />
      <path
         sodipodi:nodetypes="csscsc"
         style="fill:none;stroke:#333d81;stroke-width:1.98714;stroke-linecap:butt;stroke-linejoin:miter;stroke-miterlimit:4;stroke-dasharray:11.9228, 1.98714;stroke-dashoffset:11.9228;stroke-opacity:1"
         d="m 740.4654,1345.1345 c 0,0 -4.63998,6.5135 -3.76602,11.13 0.73281,3.8715 2.31521,6.3282 5.8409,9.8486 3.52569,3.5204 48.21018,47.9568 48.21018,47.9568 0,0 4.70979,9.245 1.18134,13.8663 -3.77858,4.949 -7.69353,8.2431 -7.69353,8.2431"
         id="path3831" />
      <g
         style="fill:#ff8735;fill-opacity:1"
         id="g3837"
         transform="matrix(0.23002632,-0.03213441,0.03213441,0.23002632,604.06222,1243.0762)">
        <path
           sodipodi:nodetypes="cssc"
           id="path3833"
           d="m 588.25353,805.49145 c 0.0687,1.23005 0.17861,2.86163 0.60177,4.67717 0.89887,4.09879 2.5538,6.40908 5.26656,12.05394 1.01275,2.04312 2.01525,4.33614 2.68511,6.86404 0.66197,2.46638 0.91549,5.17242 0.47226,7.9177 -0.49697,2.86982 -1.79449,5.4691 -3.61152,7.54344 -1.60447,1.8317 -3.50813,3.13386 -5.41374,3.94193 -6.20158,2.58396 -10.9202,0.20739 -12.51696,-1.12338 -2.00936,-1.67463 -0.39003,-1.46817 1.73173,-1.25394 2.05779,0.20779 5.63088,0.32622 8.86951,-1.57768 2.708,-1.55954 5.1982,-4.69342 5.68744,-8.35813 0.2724,-1.79623 0.0532,-3.75893 -0.42269,-5.76555 0,0 0,0 0,0 -0.48018,-1.98814 -1.28699,-3.9951 -2.14974,-6.04846 -0.35794,-0.82204 -0.71582,-1.63322 -1.07585,-2.47749 -1.86532,-4.37413 -2.91456,-7.79888 -3.03377,-11.30612 -0.0958,-4.06115 1.14813,-6.51467 1.87411,-7.30088 0.82266,-0.89089 0.91742,0.0932 1.03578,2.21341 z"
           style="fill:#ff8735;fill-opacity:1;stroke:none;stroke-width:0.264583px;stroke-linecap:butt;stroke-linejoin:miter;stroke-opacity:1" />
        <path
           sodipodi:nodetypes="cssc"
           id="path3835"
           d="m 577.51986,847.51232 c -10e-6,0 -0.0646,0.0188 -0.0646,0.0188 -2.10849,0.62215 -6.95918,1.84532 -11.91038,0.56493 -1.94514,-0.52978 -3.95227,-1.49444 -5.73888,-3.00599 -1.63143,-1.38844 -3.01144,-3.20181 -3.92003,-5.34473 -1.65702,-4.04151 -1.51665,-8.72234 0.29212,-12.85837 1.72958,-3.93004 4.46934,-7.07018 7.30502,-9.72199 0,0 0,0 0,-1e-5 1.13969,-1.08375 2.30321,-2.12106 3.48581,-3.11078 7.54383,-6.31351 14.43936,-9.50395 17.85233,-10.64348 3.95537,-1.32063 3.65452,-0.39719 0.72587,1.79089 -4.09933,3.06269 -11.03737,7.59548 -18.66564,15.41015 -2.42801,2.53263 -4.82638,5.22831 -6.08679,8.25895 -1.23386,2.94342 -1.57358,6.33212 -0.49786,9.1052 0.22532,0.61252 0.51156,1.20453 0.84902,1.76414 0.46694,0.77434 1.02092,1.4687 1.62783,2.06653 1.17048,1.16253 2.59604,1.99631 3.98611,2.54712 3.3056,1.37789 8.76541,1.1653 10.44262,1.21959 3.94584,0.10055 4.36548,0.75729 0.31747,1.93905 z"
           style="fill:#ff8735;fill-opacity:1;stroke:none;stroke-width:0.264583px;stroke-linecap:butt;stroke-linejoin:miter;stroke-opacity:1" />
      </g>
      <g
         style="fill:#ff8735;fill-opacity:1"
         transform="matrix(-0.03789327,-0.22914805,0.22914805,-0.03789327,589.1632,1586.6586)"
         id="g3843">
        <path
           style="fill:#ff8735;fill-opacity:1;stroke:none;stroke-width:0.264583px;stroke-linecap:butt;stroke-linejoin:miter;stroke-opacity:1"
           d="m 588.25353,805.49145 c 0.0687,1.23005 0.17861,2.86163 0.60177,4.67717 0.89887,4.09879 2.5538,6.40908 5.26656,12.05394 1.01275,2.04312 2.01525,4.33614 2.68511,6.86404 0.66197,2.46638 0.91549,5.17242 0.47226,7.9177 -0.49697,2.86982 -1.79449,5.4691 -3.61152,7.54344 -1.60447,1.8317 -3.50813,3.13386 -5.41374,3.94193 -6.20158,2.58396 -10.9202,0.20739 -12.51696,-1.12338 -2.00936,-1.67463 -0.39003,-1.46817 1.73173,-1.25394 2.05779,0.20779 5.63088,0.32622 8.86951,-1.57768 2.708,-1.55954 5.1982,-4.69342 5.68744,-8.35813 0.2724,-1.79623 0.0532,-3.75893 -0.42269,-5.76555 0,0 0,0 0,0 -0.48018,-1.98814 -1.28699,-3.9951 -2.14974,-6.04846 -0.35794,-0.82204 -0.71582,-1.63322 -1.07585,-2.47749 -1.86532,-4.37413 -2.91456,-7.79888 -3.03377,-11.30612 -0.0958,-4.06115 1.14813,-6.51467 1.87411,-7.30088 0.82266,-0.89089 0.91742,0.0932 1.03578,2.21341 z"
           id="path3839"
           sodipodi:nodetypes="cssc" />
        <path
           style="fill:#ff8735;fill-opacity:1;stroke:none;stroke-width:0.264583px;stroke-linecap:butt;stroke-linejoin:miter;stroke-opacity:1"
           d="m 577.51986,847.51232 c -10e-6,0 -0.0646,0.0188 -0.0646,0.0188 -2.10849,0.62215 -6.95918,1.84532 -11.91038,0.56493 -1.94514,-0.52978 -3.95227,-1.49444 -5.73888,-3.00599 -1.63143,-1.38844 -3.01144,-3.20181 -3.92003,-5.34473 -1.65702,-4.04151 -1.51665,-8.72234 0.29212,-12.85837 1.72958,-3.93004 4.46934,-7.07018 7.30502,-9.72199 0,0 0,0 0,-1e-5 1.13969,-1.08375 2.30321,-2.12106 3.48581,-3.11078 7.54383,-6.31351 14.43936,-9.50395 17.85233,-10.64348 3.95537,-1.32063 3.65452,-0.39719 0.72587,1.79089 -4.09933,3.06269 -11.03737,7.59548 -18.66564,15.41015 -2.42801,2.53263 -4.82638,5.22831 -6.08679,8.25895 -1.23386,2.94342 -1.57358,6.33212 -0.49786,9.1052 0.22532,0.61252 0.51156,1.20453 0.84902,1.76414 0.46694,0.77434 1.02092,1.4687 1.62783,2.06653 1.17048,1.16253 2.59604,1.99631 3.98611,2.54712 3.3056,1.37789 8.76541,1.1653 10.44262,1.21959 3.94584,0.10055 4.36548,0.75729 0.31747,1.93905 z"
           id="path3841"
           sodipodi:nodetypes="cssc" />
      </g>
      <g
         style="fill:#ff8735;fill-opacity:1"
         id="g3849"
         transform="matrix(0.0449351,0.2278718,-0.2278718,0.0449351,934.10071,1252.8181)">
        <path
           sodipodi:nodetypes="cssc"
           id="path3845"
           d="m 588.25353,805.49145 c 0.0687,1.23005 0.17861,2.86163 0.60177,4.67717 0.89887,4.09879 2.5538,6.40908 5.26656,12.05394 1.01275,2.04312 2.01525,4.33614 2.68511,6.86404 0.66197,2.46638 0.91549,5.17242 0.47226,7.9177 -0.49697,2.86982 -1.79449,5.4691 -3.61152,7.54344 -1.60447,1.8317 -3.50813,3.13386 -5.41374,3.94193 -6.20158,2.58396 -10.9202,0.20739 -12.51696,-1.12338 -2.00936,-1.67463 -0.39003,-1.46817 1.73173,-1.25394 2.05779,0.20779 5.63088,0.32622 8.86951,-1.57768 2.708,-1.55954 5.1982,-4.69342 5.68744,-8.35813 0.2724,-1.79623 0.0532,-3.75893 -0.42269,-5.76555 0,0 0,0 0,0 -0.48018,-1.98814 -1.28699,-3.9951 -2.14974,-6.04846 -0.35794,-0.82204 -0.71582,-1.63322 -1.07585,-2.47749 -1.86532,-4.37413 -2.91456,-7.79888 -3.03377,-11.30612 -0.0958,-4.06115 1.14813,-6.51467 1.87411,-7.30088 0.82266,-0.89089 0.91742,0.0932 1.03578,2.21341 z"
           style="fill:#ff8735;fill-opacity:1;stroke:none;stroke-width:0.264583px;stroke-linecap:butt;stroke-linejoin:miter;stroke-opacity:1" />
        <path
           sodipodi:nodetypes="cssc"
           id="path3847"
           d="m 577.51986,847.51232 c -10e-6,0 -0.0646,0.0188 -0.0646,0.0188 -2.10849,0.62215 -6.95918,1.84532 -11.91038,0.56493 -1.94514,-0.52978 -3.95227,-1.49444 -5.73888,-3.00599 -1.63143,-1.38844 -3.01144,-3.20181 -3.92003,-5.34473 -1.65702,-4.04151 -1.51665,-8.72234 0.29212,-12.85837 1.72958,-3.93004 4.46934,-7.07018 7.30502,-9.72199 0,0 0,0 0,-1e-5 1.13969,-1.08375 2.30321,-2.12106 3.48581,-3.11078 7.54383,-6.31351 14.43936,-9.50395 17.85233,-10.64348 3.95537,-1.32063 3.65452,-0.39719 0.72587,1.79089 -4.09933,3.06269 -11.03737,7.59548 -18.66564,15.41015 -2.42801,2.53263 -4.82638,5.22831 -6.08679,8.25895 -1.23386,2.94342 -1.57358,6.33212 -0.49786,9.1052 0.22532,0.61252 0.51156,1.20453 0.84902,1.76414 0.46694,0.77434 1.02092,1.4687 1.62783,2.06653 1.17048,1.16253 2.59604,1.99631 3.98611,2.54712 3.3056,1.37789 8.76541,1.1653 10.44262,1.21959 3.94584,0.10055 4.36548,0.75729 0.31747,1.93905 z"
           style="fill:#ff8735;fill-opacity:1;stroke:none;stroke-width:0.264583px;stroke-linecap:butt;stroke-linejoin:miter;stroke-opacity:1" />
      </g>
      <g
         style="fill:#ff8735;fill-opacity:1"
         transform="matrix(-0.22838457,0.0422517,-0.0422517,-0.22838457,931.69233,1594.0257)"
         id="g3855">
        <path
           style="fill:#ff8735;fill-opacity:1;stroke:none;stroke-width:0.264583px;stroke-linecap:butt;stroke-linejoin:miter;stroke-opacity:1"
           d="m 588.25353,805.49145 c 0.0687,1.23005 0.17861,2.86163 0.60177,4.67717 0.89887,4.09879 2.5538,6.40908 5.26656,12.05394 1.01275,2.04312 2.01525,4.33614 2.68511,6.86404 0.66197,2.46638 0.91549,5.17242 0.47226,7.9177 -0.49697,2.86982 -1.79449,5.4691 -3.61152,7.54344 -1.60447,1.8317 -3.50813,3.13386 -5.41374,3.94193 -6.20158,2.58396 -10.9202,0.20739 -12.51696,-1.12338 -2.00936,-1.67463 -0.39003,-1.46817 1.73173,-1.25394 2.05779,0.20779 5.63088,0.32622 8.86951,-1.57768 2.708,-1.55954 5.1982,-4.69342 5.68744,-8.35813 0.2724,-1.79623 0.0532,-3.75893 -0.42269,-5.76555 0,0 0,0 0,0 -0.48018,-1.98814 -1.28699,-3.9951 -2.14974,-6.04846 -0.35794,-0.82204 -0.71582,-1.63322 -1.07585,-2.47749 -1.86532,-4.37413 -2.91456,-7.79888 -3.03377,-11.30612 -0.0958,-4.06115 1.14813,-6.51467 1.87411,-7.30088 0.82266,-0.89089 0.91742,0.0932 1.03578,2.21341 z"
           id="path3851"
           sodipodi:nodetypes="cssc" />
        <path
           style="fill:#ff8735;fill-opacity:1;stroke:none;stroke-width:0.264583px;stroke-linecap:butt;stroke-linejoin:miter;stroke-opacity:1"
           d="m 577.51986,847.51232 c -10e-6,0 -0.0646,0.0188 -0.0646,0.0188 -2.10849,0.62215 -6.95918,1.84532 -11.91038,0.56493 -1.94514,-0.52978 -3.95227,-1.49444 -5.73888,-3.00599 -1.63143,-1.38844 -3.01144,-3.20181 -3.92003,-5.34473 -1.65702,-4.04151 -1.51665,-8.72234 0.29212,-12.85837 1.72958,-3.93004 4.46934,-7.07018 7.30502,-9.72199 0,0 0,0 0,-1e-5 1.13969,-1.08375 2.30321,-2.12106 3.48581,-3.11078 7.54383,-6.31351 14.43936,-9.50395 17.85233,-10.64348 3.95537,-1.32063 3.65452,-0.39719 0.72587,1.79089 -4.09933,3.06269 -11.03737,7.59548 -18.66564,15.41015 -2.42801,2.53263 -4.82638,5.22831 -6.08679,8.25895 -1.23386,2.94342 -1.57358,6.33212 -0.49786,9.1052 0.22532,0.61252 0.51156,1.20453 0.84902,1.76414 0.46694,0.77434 1.02092,1.4687 1.62783,2.06653 1.17048,1.16253 2.59604,1.99631 3.98611,2.54712 3.3056,1.37789 8.76541,1.1653 10.44262,1.21959 3.94584,0.10055 4.36548,0.75729 0.31747,1.93905 z"
           id="path3853"
           sodipodi:nodetypes="cssc" />
      </g>
      <path
         id="path3857"
         style="fill:#333d81;fill-opacity:1;stroke:none;stroke-width:0.204057;stroke-miterlimit:4;stroke-dasharray:1.22434, 0.204057;stroke-dashoffset:1.22434;stroke-opacity:1"
         d="m 766.82631,1422.1015 a 2.6684551,2.6684551 0 0 1 -2.66856,2.6685 2.6684551,2.6684551 0 0 1 -2.66831,-2.6685 2.6684551,2.6684551 0 0 1 2.66831,-2.6685 2.6684551,2.6684551 0 0 1 2.66856,2.6685" />
      <g
         id="g3863"
         transform="matrix(0.23002632,-0.03213441,0.03213441,0.23002632,640.08363,1207.8388)"
         style="fill:#ff8735;fill-opacity:1">
        <path
           sodipodi:nodetypes="cssc"
           id="path3859"
           d="m 588.25353,805.49145 c 0.0687,1.23005 0.17861,2.86163 0.60177,4.67717 0.89887,4.09879 2.5538,6.40908 5.26656,12.05394 1.01275,2.04312 2.01525,4.33614 2.68511,6.86404 0.66197,2.46638 0.91549,5.17242 0.47226,7.9177 -0.49697,2.86982 -1.79449,5.4691 -3.61152,7.54344 -1.60447,1.8317 -3.50813,3.13386 -5.41374,3.94193 -6.20158,2.58396 -10.9202,0.20739 -12.51696,-1.12338 -2.00936,-1.67463 -0.39003,-1.46817 1.73173,-1.25394 2.05779,0.20779 5.63088,0.32622 8.86951,-1.57768 2.708,-1.55954 5.1982,-4.69342 5.68744,-8.35813 0.2724,-1.79623 0.0532,-3.75893 -0.42269,-5.76555 0,0 0,0 0,0 -0.48018,-1.98814 -1.28699,-3.9951 -2.14974,-6.04846 -0.35794,-0.82204 -0.71582,-1.63322 -1.07585,-2.47749 -1.86532,-4.37413 -2.91456,-7.79888 -3.03377,-11.30612 -0.0958,-4.06115 1.14813,-6.51467 1.87411,-7.30088 0.82266,-0.89089 0.91742,0.0932 1.03578,2.21341 z"
           style="fill:#ff8735;fill-opacity:1;stroke:none;stroke-width:0.264583px;stroke-linecap:butt;stroke-linejoin:miter;stroke-opacity:1" />
        <path
           sodipodi:nodetypes="cssc"
           id="path3861"
           d="m 577.51986,847.51232 c -10e-6,0 -0.0646,0.0188 -0.0646,0.0188 -2.10849,0.62215 -6.95918,1.84532 -11.91038,0.56493 -1.94514,-0.52978 -3.95227,-1.49444 -5.73888,-3.00599 -1.63143,-1.38844 -3.01144,-3.20181 -3.92003,-5.34473 -1.65702,-4.04151 -1.51665,-8.72234 0.29212,-12.85837 1.72958,-3.93004 4.46934,-7.07018 7.30502,-9.72199 0,0 0,0 0,-1e-5 1.13969,-1.08375 2.30321,-2.12106 3.48581,-3.11078 7.54383,-6.31351 14.43936,-9.50395 17.85233,-10.64348 3.95537,-1.32063 3.65452,-0.39719 0.72587,1.79089 -4.09933,3.06269 -11.03737,7.59548 -18.66564,15.41015 -2.42801,2.53263 -4.82638,5.22831 -6.08679,8.25895 -1.23386,2.94342 -1.57358,6.33212 -0.49786,9.1052 0.22532,0.61252 0.51156,1.20453 0.84902,1.76414 0.46694,0.77434 1.02092,1.4687 1.62783,2.06653 1.17048,1.16253 2.59604,1.99631 3.98611,2.54712 3.3056,1.37789 8.76541,1.1653 10.44262,1.21959 3.94584,0.10055 4.36548,0.75729 0.31747,1.93905 z"
           style="fill:#ff8735;fill-opacity:1;stroke:none;stroke-width:0.264583px;stroke-linecap:butt;stroke-linejoin:miter;stroke-opacity:1" />
      </g>
      <g
         transform="matrix(-0.03789327,-0.22914805,0.22914805,-0.03789327,625.18468,1551.4212)"
         id="g3869"
         style="fill:#ff8735;fill-opacity:1">
        <path
           style="fill:#ff8735;fill-opacity:1;stroke:none;stroke-width:0.264583px;stroke-linecap:butt;stroke-linejoin:miter;stroke-opacity:1"
           d="m 588.25353,805.49145 c 0.0687,1.23005 0.17861,2.86163 0.60177,4.67717 0.89887,4.09879 2.5538,6.40908 5.26656,12.05394 1.01275,2.04312 2.01525,4.33614 2.68511,6.86404 0.66197,2.46638 0.91549,5.17242 0.47226,7.9177 -0.49697,2.86982 -1.79449,5.4691 -3.61152,7.54344 -1.60447,1.8317 -3.50813,3.13386 -5.41374,3.94193 -6.20158,2.58396 -10.9202,0.20739 -12.51696,-1.12338 -2.00936,-1.67463 -0.39003,-1.46817 1.73173,-1.25394 2.05779,0.20779 5.63088,0.32622 8.86951,-1.57768 2.708,-1.55954 5.1982,-4.69342 5.68744,-8.35813 0.2724,-1.79623 0.0532,-3.75893 -0.42269,-5.76555 0,0 0,0 0,0 -0.48018,-1.98814 -1.28699,-3.9951 -2.14974,-6.04846 -0.35794,-0.82204 -0.71582,-1.63322 -1.07585,-2.47749 -1.86532,-4.37413 -2.91456,-7.79888 -3.03377,-11.30612 -0.0958,-4.06115 1.14813,-6.51467 1.87411,-7.30088 0.82266,-0.89089 0.91742,0.0932 1.03578,2.21341 z"
           id="path3865"
           sodipodi:nodetypes="cssc" />
        <path
           style="fill:#ff8735;fill-opacity:1;stroke:none;stroke-width:0.264583px;stroke-linecap:butt;stroke-linejoin:miter;stroke-opacity:1"
           d="m 577.51986,847.51232 c -10e-6,0 -0.0646,0.0188 -0.0646,0.0188 -2.10849,0.62215 -6.95918,1.84532 -11.91038,0.56493 -1.94514,-0.52978 -3.95227,-1.49444 -5.73888,-3.00599 -1.63143,-1.38844 -3.01144,-3.20181 -3.92003,-5.34473 -1.65702,-4.04151 -1.51665,-8.72234 0.29212,-12.85837 1.72958,-3.93004 4.46934,-7.07018 7.30502,-9.72199 0,0 0,0 0,-1e-5 1.13969,-1.08375 2.30321,-2.12106 3.48581,-3.11078 7.54383,-6.31351 14.43936,-9.50395 17.85233,-10.64348 3.95537,-1.32063 3.65452,-0.39719 0.72587,1.79089 -4.09933,3.06269 -11.03737,7.59548 -18.66564,15.41015 -2.42801,2.53263 -4.82638,5.22831 -6.08679,8.25895 -1.23386,2.94342 -1.57358,6.33212 -0.49786,9.1052 0.22532,0.61252 0.51156,1.20453 0.84902,1.76414 0.46694,0.77434 1.02092,1.4687 1.62783,2.06653 1.17048,1.16253 2.59604,1.99631 3.98611,2.54712 3.3056,1.37789 8.76541,1.1653 10.44262,1.21959 3.94584,0.10055 4.36548,0.75729 0.31747,1.93905 z"
           id="path3867"
           sodipodi:nodetypes="cssc" />
      </g>
      <g
         id="g3875"
         transform="matrix(0.0449351,0.2278718,-0.2278718,0.0449351,970.12205,1217.5807)"
         style="fill:#ff8735;fill-opacity:1">
        <path
           sodipodi:nodetypes="cssc"
           id="path3871"
           d="m 588.25353,805.49145 c 0.0687,1.23005 0.17861,2.86163 0.60177,4.67717 0.89887,4.09879 2.5538,6.40908 5.26656,12.05394 1.01275,2.04312 2.01525,4.33614 2.68511,6.86404 0.66197,2.46638 0.91549,5.17242 0.47226,7.9177 -0.49697,2.86982 -1.79449,5.4691 -3.61152,7.54344 -1.60447,1.8317 -3.50813,3.13386 -5.41374,3.94193 -6.20158,2.58396 -10.9202,0.20739 -12.51696,-1.12338 -2.00936,-1.67463 -0.39003,-1.46817 1.73173,-1.25394 2.05779,0.20779 5.63088,0.32622 8.86951,-1.57768 2.708,-1.55954 5.1982,-4.69342 5.68744,-8.35813 0.2724,-1.79623 0.0532,-3.75893 -0.42269,-5.76555 0,0 0,0 0,0 -0.48018,-1.98814 -1.28699,-3.9951 -2.14974,-6.04846 -0.35794,-0.82204 -0.71582,-1.63322 -1.07585,-2.47749 -1.86532,-4.37413 -2.91456,-7.79888 -3.03377,-11.30612 -0.0958,-4.06115 1.14813,-6.51467 1.87411,-7.30088 0.82266,-0.89089 0.91742,0.0932 1.03578,2.21341 z"
           style="fill:#ff8735;fill-opacity:1;stroke:none;stroke-width:0.264583px;stroke-linecap:butt;stroke-linejoin:miter;stroke-opacity:1" />
        <path
           sodipodi:nodetypes="cssc"
           id="path3873"
           d="m 577.51986,847.51232 c -10e-6,0 -0.0646,0.0188 -0.0646,0.0188 -2.10849,0.62215 -6.95918,1.84532 -11.91038,0.56493 -1.94514,-0.52978 -3.95227,-1.49444 -5.73888,-3.00599 -1.63143,-1.38844 -3.01144,-3.20181 -3.92003,-5.34473 -1.65702,-4.04151 -1.51665,-8.72234 0.29212,-12.85837 1.72958,-3.93004 4.46934,-7.07018 7.30502,-9.72199 0,0 0,0 0,-1e-5 1.13969,-1.08375 2.30321,-2.12106 3.48581,-3.11078 7.54383,-6.31351 14.43936,-9.50395 17.85233,-10.64348 3.95537,-1.32063 3.65452,-0.39719 0.72587,1.79089 -4.09933,3.06269 -11.03737,7.59548 -18.66564,15.41015 -2.42801,2.53263 -4.82638,5.22831 -6.08679,8.25895 -1.23386,2.94342 -1.57358,6.33212 -0.49786,9.1052 0.22532,0.61252 0.51156,1.20453 0.84902,1.76414 0.46694,0.77434 1.02092,1.4687 1.62783,2.06653 1.17048,1.16253 2.59604,1.99631 3.98611,2.54712 3.3056,1.37789 8.76541,1.1653 10.44262,1.21959 3.94584,0.10055 4.36548,0.75729 0.31747,1.93905 z"
           style="fill:#ff8735;fill-opacity:1;stroke:none;stroke-width:0.264583px;stroke-linecap:butt;stroke-linejoin:miter;stroke-opacity:1" />
      </g>
      <g
         transform="matrix(-0.22838457,0.0422517,-0.0422517,-0.22838457,967.71391,1558.7885)"
         id="g3881"
         style="fill:#ff8735;fill-opacity:1">
        <path
           style="fill:#ff8735;fill-opacity:1;stroke:none;stroke-width:0.264583px;stroke-linecap:butt;stroke-linejoin:miter;stroke-opacity:1"
           d="m 588.25353,805.49145 c 0.0687,1.23005 0.17861,2.86163 0.60177,4.67717 0.89887,4.09879 2.5538,6.40908 5.26656,12.05394 1.01275,2.04312 2.01525,4.33614 2.68511,6.86404 0.66197,2.46638 0.91549,5.17242 0.47226,7.9177 -0.49697,2.86982 -1.79449,5.4691 -3.61152,7.54344 -1.60447,1.8317 -3.50813,3.13386 -5.41374,3.94193 -6.20158,2.58396 -10.9202,0.20739 -12.51696,-1.12338 -2.00936,-1.67463 -0.39003,-1.46817 1.73173,-1.25394 2.05779,0.20779 5.63088,0.32622 8.86951,-1.57768 2.708,-1.55954 5.1982,-4.69342 5.68744,-8.35813 0.2724,-1.79623 0.0532,-3.75893 -0.42269,-5.76555 0,0 0,0 0,0 -0.48018,-1.98814 -1.28699,-3.9951 -2.14974,-6.04846 -0.35794,-0.82204 -0.71582,-1.63322 -1.07585,-2.47749 -1.86532,-4.37413 -2.91456,-7.79888 -3.03377,-11.30612 -0.0958,-4.06115 1.14813,-6.51467 1.87411,-7.30088 0.82266,-0.89089 0.91742,0.0932 1.03578,2.21341 z"
           id="path3877"
           sodipodi:nodetypes="cssc" />
        <path
           style="fill:#ff8735;fill-opacity:1;stroke:none;stroke-width:0.264583px;stroke-linecap:butt;stroke-linejoin:miter;stroke-opacity:1"
           d="m 577.51986,847.51232 c -10e-6,0 -0.0646,0.0188 -0.0646,0.0188 -2.10849,0.62215 -6.95918,1.84532 -11.91038,0.56493 -1.94514,-0.52978 -3.95227,-1.49444 -5.73888,-3.00599 -1.63143,-1.38844 -3.01144,-3.20181 -3.92003,-5.34473 -1.65702,-4.04151 -1.51665,-8.72234 0.29212,-12.85837 1.72958,-3.93004 4.46934,-7.07018 7.30502,-9.72199 0,0 0,0 0,-1e-5 1.13969,-1.08375 2.30321,-2.12106 3.48581,-3.11078 7.54383,-6.31351 14.43936,-9.50395 17.85233,-10.64348 3.95537,-1.32063 3.65452,-0.39719 0.72587,1.79089 -4.09933,3.06269 -11.03737,7.59548 -18.66564,15.41015 -2.42801,2.53263 -4.82638,5.22831 -6.08679,8.25895 -1.23386,2.94342 -1.57358,6.33212 -0.49786,9.1052 0.22532,0.61252 0.51156,1.20453 0.84902,1.76414 0.46694,0.77434 1.02092,1.4687 1.62783,2.06653 1.17048,1.16253 2.59604,1.99631 3.98611,2.54712 3.3056,1.37789 8.76541,1.1653 10.44262,1.21959 3.94584,0.10055 4.36548,0.75729 0.31747,1.93905 z"
           id="path3879"
           sodipodi:nodetypes="cssc" />
      </g>
      <path
         id="path3883"
         style="fill:#333d81;fill-opacity:1;stroke:none;stroke-width:0.204057;stroke-miterlimit:4;stroke-dasharray:1.22434, 0.204057;stroke-dashoffset:1.22434;stroke-opacity:1"
         d="m 802.8479,1386.8642 a 2.6684551,2.6684551 0 0 1 -2.66857,2.6685 2.6684551,2.6684551 0 0 1 -2.66831,-2.6685 2.6684551,2.6684551 0 0 1 2.66831,-2.6684 2.6684551,2.6684551 0 0 1 2.66857,2.6684" />
      <g
         transform="matrix(0.23002632,-0.03213441,0.03213441,0.23002632,570.59117,1209.7724)"
         id="g3889"
         style="fill:#ff8735;fill-opacity:1">
        <path
           style="fill:#ff8735;fill-opacity:1;stroke:none;stroke-width:0.264583px;stroke-linecap:butt;stroke-linejoin:miter;stroke-opacity:1"
           d="m 588.25353,805.49145 c 0.0687,1.23005 0.17861,2.86163 0.60177,4.67717 0.89887,4.09879 2.5538,6.40908 5.26656,12.05394 1.01275,2.04312 2.01525,4.33614 2.68511,6.86404 0.66197,2.46638 0.91549,5.17242 0.47226,7.9177 -0.49697,2.86982 -1.79449,5.4691 -3.61152,7.54344 -1.60447,1.8317 -3.50813,3.13386 -5.41374,3.94193 -6.20158,2.58396 -10.9202,0.20739 -12.51696,-1.12338 -2.00936,-1.67463 -0.39003,-1.46817 1.73173,-1.25394 2.05779,0.20779 5.63088,0.32622 8.86951,-1.57768 2.708,-1.55954 5.1982,-4.69342 5.68744,-8.35813 0.2724,-1.79623 0.0532,-3.75893 -0.42269,-5.76555 0,0 0,0 0,0 -0.48018,-1.98814 -1.28699,-3.9951 -2.14974,-6.04846 -0.35794,-0.82204 -0.71582,-1.63322 -1.07585,-2.47749 -1.86532,-4.37413 -2.91456,-7.79888 -3.03377,-11.30612 -0.0958,-4.06115 1.14813,-6.51467 1.87411,-7.30088 0.82266,-0.89089 0.91742,0.0932 1.03578,2.21341 z"
           id="path3885"
           sodipodi:nodetypes="cssc" />
        <path
           style="fill:#ff8735;fill-opacity:1;stroke:none;stroke-width:0.264583px;stroke-linecap:butt;stroke-linejoin:miter;stroke-opacity:1"
           d="m 577.51986,847.51232 c -10e-6,0 -0.0646,0.0188 -0.0646,0.0188 -2.10849,0.62215 -6.95918,1.84532 -11.91038,0.56493 -1.94514,-0.52978 -3.95227,-1.49444 -5.73888,-3.00599 -1.63143,-1.38844 -3.01144,-3.20181 -3.92003,-5.34473 -1.65702,-4.04151 -1.51665,-8.72234 0.29212,-12.85837 1.72958,-3.93004 4.46934,-7.07018 7.30502,-9.72199 0,0 0,0 0,-1e-5 1.13969,-1.08375 2.30321,-2.12106 3.48581,-3.11078 7.54383,-6.31351 14.43936,-9.50395 17.85233,-10.64348 3.95537,-1.32063 3.65452,-0.39719 0.72587,1.79089 -4.09933,3.06269 -11.03737,7.59548 -18.66564,15.41015 -2.42801,2.53263 -4.82638,5.22831 -6.08679,8.25895 -1.23386,2.94342 -1.57358,6.33212 -0.49786,9.1052 0.22532,0.61252 0.51156,1.20453 0.84902,1.76414 0.46694,0.77434 1.02092,1.4687 1.62783,2.06653 1.17048,1.16253 2.59604,1.99631 3.98611,2.54712 3.3056,1.37789 8.76541,1.1653 10.44262,1.21959 3.94584,0.10055 4.36548,0.75729 0.31747,1.93905 z"
           id="path3887"
           sodipodi:nodetypes="cssc" />
      </g>
      <g
         id="g3895"
         transform="matrix(-0.03789327,-0.22914805,0.22914805,-0.03789327,555.69212,1553.3548)"
         style="fill:#ff8735;fill-opacity:1">
        <path
           sodipodi:nodetypes="cssc"
           id="path3891"
           d="m 588.25353,805.49145 c 0.0687,1.23005 0.17861,2.86163 0.60177,4.67717 0.89887,4.09879 2.5538,6.40908 5.26656,12.05394 1.01275,2.04312 2.01525,4.33614 2.68511,6.86404 0.66197,2.46638 0.91549,5.17242 0.47226,7.9177 -0.49697,2.86982 -1.79449,5.4691 -3.61152,7.54344 -1.60447,1.8317 -3.50813,3.13386 -5.41374,3.94193 -6.20158,2.58396 -10.9202,0.20739 -12.51696,-1.12338 -2.00936,-1.67463 -0.39003,-1.46817 1.73173,-1.25394 2.05779,0.20779 5.63088,0.32622 8.86951,-1.57768 2.708,-1.55954 5.1982,-4.69342 5.68744,-8.35813 0.2724,-1.79623 0.0532,-3.75893 -0.42269,-5.76555 0,0 0,0 0,0 -0.48018,-1.98814 -1.28699,-3.9951 -2.14974,-6.04846 -0.35794,-0.82204 -0.71582,-1.63322 -1.07585,-2.47749 -1.86532,-4.37413 -2.91456,-7.79888 -3.03377,-11.30612 -0.0958,-4.06115 1.14813,-6.51467 1.87411,-7.30088 0.82266,-0.89089 0.91742,0.0932 1.03578,2.21341 z"
           style="fill:#ff8735;fill-opacity:1;stroke:none;stroke-width:0.264583px;stroke-linecap:butt;stroke-linejoin:miter;stroke-opacity:1" />
        <path
           sodipodi:nodetypes="cssc"
           id="path3893"
           d="m 577.51986,847.51232 c -10e-6,0 -0.0646,0.0188 -0.0646,0.0188 -2.10849,0.62215 -6.95918,1.84532 -11.91038,0.56493 -1.94514,-0.52978 -3.95227,-1.49444 -5.73888,-3.00599 -1.63143,-1.38844 -3.01144,-3.20181 -3.92003,-5.34473 -1.65702,-4.04151 -1.51665,-8.72234 0.29212,-12.85837 1.72958,-3.93004 4.46934,-7.07018 7.30502,-9.72199 0,0 0,0 0,-1e-5 1.13969,-1.08375 2.30321,-2.12106 3.48581,-3.11078 7.54383,-6.31351 14.43936,-9.50395 17.85233,-10.64348 3.95537,-1.32063 3.65452,-0.39719 0.72587,1.79089 -4.09933,3.06269 -11.03737,7.59548 -18.66564,15.41015 -2.42801,2.53263 -4.82638,5.22831 -6.08679,8.25895 -1.23386,2.94342 -1.57358,6.33212 -0.49786,9.1052 0.22532,0.61252 0.51156,1.20453 0.84902,1.76414 0.46694,0.77434 1.02092,1.4687 1.62783,2.06653 1.17048,1.16253 2.59604,1.99631 3.98611,2.54712 3.3056,1.37789 8.76541,1.1653 10.44262,1.21959 3.94584,0.10055 4.36548,0.75729 0.31747,1.93905 z"
           style="fill:#ff8735;fill-opacity:1;stroke:none;stroke-width:0.264583px;stroke-linecap:butt;stroke-linejoin:miter;stroke-opacity:1" />
      </g>
      <g
         transform="matrix(0.0449351,0.2278718,-0.2278718,0.0449351,900.62941,1219.5144)"
         id="g3901"
         style="fill:#ff8735;fill-opacity:1">
        <path
           style="fill:#ff8735;fill-opacity:1;stroke:none;stroke-width:0.264583px;stroke-linecap:butt;stroke-linejoin:miter;stroke-opacity:1"
           d="m 588.25353,805.49145 c 0.0687,1.23005 0.17861,2.86163 0.60177,4.67717 0.89887,4.09879 2.5538,6.40908 5.26656,12.05394 1.01275,2.04312 2.01525,4.33614 2.68511,6.86404 0.66197,2.46638 0.91549,5.17242 0.47226,7.9177 -0.49697,2.86982 -1.79449,5.4691 -3.61152,7.54344 -1.60447,1.8317 -3.50813,3.13386 -5.41374,3.94193 -6.20158,2.58396 -10.9202,0.20739 -12.51696,-1.12338 -2.00936,-1.67463 -0.39003,-1.46817 1.73173,-1.25394 2.05779,0.20779 5.63088,0.32622 8.86951,-1.57768 2.708,-1.55954 5.1982,-4.69342 5.68744,-8.35813 0.2724,-1.79623 0.0532,-3.75893 -0.42269,-5.76555 0,0 0,0 0,0 -0.48018,-1.98814 -1.28699,-3.9951 -2.14974,-6.04846 -0.35794,-0.82204 -0.71582,-1.63322 -1.07585,-2.47749 -1.86532,-4.37413 -2.91456,-7.79888 -3.03377,-11.30612 -0.0958,-4.06115 1.14813,-6.51467 1.87411,-7.30088 0.82266,-0.89089 0.91742,0.0932 1.03578,2.21341 z"
           id="path3897"
           sodipodi:nodetypes="cssc" />
        <path
           style="fill:#ff8735;fill-opacity:1;stroke:none;stroke-width:0.264583px;stroke-linecap:butt;stroke-linejoin:miter;stroke-opacity:1"
           d="m 577.51986,847.51232 c -10e-6,0 -0.0646,0.0188 -0.0646,0.0188 -2.10849,0.62215 -6.95918,1.84532 -11.91038,0.56493 -1.94514,-0.52978 -3.95227,-1.49444 -5.73888,-3.00599 -1.63143,-1.38844 -3.01144,-3.20181 -3.92003,-5.34473 -1.65702,-4.04151 -1.51665,-8.72234 0.29212,-12.85837 1.72958,-3.93004 4.46934,-7.07018 7.30502,-9.72199 0,0 0,0 0,-1e-5 1.13969,-1.08375 2.30321,-2.12106 3.48581,-3.11078 7.54383,-6.31351 14.43936,-9.50395 17.85233,-10.64348 3.95537,-1.32063 3.65452,-0.39719 0.72587,1.79089 -4.09933,3.06269 -11.03737,7.59548 -18.66564,15.41015 -2.42801,2.53263 -4.82638,5.22831 -6.08679,8.25895 -1.23386,2.94342 -1.57358,6.33212 -0.49786,9.1052 0.22532,0.61252 0.51156,1.20453 0.84902,1.76414 0.46694,0.77434 1.02092,1.4687 1.62783,2.06653 1.17048,1.16253 2.59604,1.99631 3.98611,2.54712 3.3056,1.37789 8.76541,1.1653 10.44262,1.21959 3.94584,0.10055 4.36548,0.75729 0.31747,1.93905 z"
           id="path3899"
           sodipodi:nodetypes="cssc" />
      </g>
      <g
         id="g3907"
         transform="matrix(-0.22838457,0.0422517,-0.0422517,-0.22838457,898.22127,1560.7221)"
         style="fill:#ff8735;fill-opacity:1">
        <path
           sodipodi:nodetypes="cssc"
           id="path3903"
           d="m 588.25353,805.49145 c 0.0687,1.23005 0.17861,2.86163 0.60177,4.67717 0.89887,4.09879 2.5538,6.40908 5.26656,12.05394 1.01275,2.04312 2.01525,4.33614 2.68511,6.86404 0.66197,2.46638 0.91549,5.17242 0.47226,7.9177 -0.49697,2.86982 -1.79449,5.4691 -3.61152,7.54344 -1.60447,1.8317 -3.50813,3.13386 -5.41374,3.94193 -6.20158,2.58396 -10.9202,0.20739 -12.51696,-1.12338 -2.00936,-1.67463 -0.39003,-1.46817 1.73173,-1.25394 2.05779,0.20779 5.63088,0.32622 8.86951,-1.57768 2.708,-1.55954 5.1982,-4.69342 5.68744,-8.35813 0.2724,-1.79623 0.0532,-3.75893 -0.42269,-5.76555 0,0 0,0 0,0 -0.48018,-1.98814 -1.28699,-3.9951 -2.14974,-6.04846 -0.35794,-0.82204 -0.71582,-1.63322 -1.07585,-2.47749 -1.86532,-4.37413 -2.91456,-7.79888 -3.03377,-11.30612 -0.0958,-4.06115 1.14813,-6.51467 1.87411,-7.30088 0.82266,-0.89089 0.91742,0.0932 1.03578,2.21341 z"
           style="fill:#ff8735;fill-opacity:1;stroke:none;stroke-width:0.264583px;stroke-linecap:butt;stroke-linejoin:miter;stroke-opacity:1" />
        <path
           sodipodi:nodetypes="cssc"
           id="path3905"
           d="m 577.51986,847.51232 c -10e-6,0 -0.0646,0.0188 -0.0646,0.0188 -2.10849,0.62215 -6.95918,1.84532 -11.91038,0.56493 -1.94514,-0.52978 -3.95227,-1.49444 -5.73888,-3.00599 -1.63143,-1.38844 -3.01144,-3.20181 -3.92003,-5.34473 -1.65702,-4.04151 -1.51665,-8.72234 0.29212,-12.85837 1.72958,-3.93004 4.46934,-7.07018 7.30502,-9.72199 0,0 0,0 0,-1e-5 1.13969,-1.08375 2.30321,-2.12106 3.48581,-3.11078 7.54383,-6.31351 14.43936,-9.50395 17.85233,-10.64348 3.95537,-1.32063 3.65452,-0.39719 0.72587,1.79089 -4.09933,3.06269 -11.03737,7.59548 -18.66564,15.41015 -2.42801,2.53263 -4.82638,5.22831 -6.08679,8.25895 -1.23386,2.94342 -1.57358,6.33212 -0.49786,9.1052 0.22532,0.61252 0.51156,1.20453 0.84902,1.76414 0.46694,0.77434 1.02092,1.4687 1.62783,2.06653 1.17048,1.16253 2.59604,1.99631 3.98611,2.54712 3.3056,1.37789 8.76541,1.1653 10.44262,1.21959 3.94584,0.10055 4.36548,0.75729 0.31747,1.93905 z"
           style="fill:#ff8735;fill-opacity:1;stroke:none;stroke-width:0.264583px;stroke-linecap:butt;stroke-linejoin:miter;stroke-opacity:1" />
      </g>
      <path
         id="path3909"
         style="fill:#333d81;fill-opacity:1;stroke:none;stroke-width:0.204057;stroke-miterlimit:4;stroke-dasharray:1.22434, 0.204057;stroke-dashoffset:1.22434;stroke-opacity:1"
         d="m 733.35526,1388.7978 a 2.6684551,2.6684551 0 0 1 -2.66831,2.6685 2.6684551,2.6684551 0 0 1 -2.66857,-2.6685 2.6684551,2.6684551 0 0 1 2.66857,-2.6685 2.6684551,2.6684551 0 0 1 2.66831,2.6685" />
    </g>
  </g>
</svg>
