<svg width="90" height="108" viewBox="0 0 90 108" fill="none" xmlns="http://www.w3.org/2000/svg">
<path d="M57.7717 90.9523L50.8447 100.997L49.9441 107.369H52.5764L60.2655 90.9523H57.7717Z" fill="#00A9FA"/>
<path d="M65.3915 80.0076H65.4607L85.8263 65.8071L82.5013 43.2942L73.981 61.5816L65.3915 80.0076Z" fill="#00BBF9"/>
<path d="M65.3222 80.1461L65.3915 80.0076L65.3222 80.0769L60.2655 90.9523L52.5764 107.369L65.3222 80.1461Z" fill="#00BBF9"/>
<path d="M73.981 61.5816L82.5013 43.2942L81.1159 33.8733C80.9774 32.4187 80.3539 31.1025 79.2456 30.202L71.6951 23.6906C70.7253 22.8593 69.4784 22.3744 68.1623 22.3744H41.7702L49.0436 31.0333L73.981 61.5816Z" fill="#00A3E0"/>
<path d="M73.981 61.5816L82.5013 43.2942L73.981 61.5816Z" fill="#00A3E0"/>
<path d="M48.9051 31.1718L41.6317 22.3744H22.0974C20.5734 22.3744 19.0495 22.9286 17.9411 23.8984L11.0141 29.8556C10.737 30.1327 10.4599 30.4098 10.2521 30.6869L16.3479 64.2831L48.9051 31.1718Z" fill="#00BBF9"/>
<path d="M49.0436 31.0333L41.7702 22.3744H41.6317L48.9051 31.1718L49.0436 31.0333Z" fill="#00BBF9"/>
<path d="M0 95.0393C0.138541 96.494 0.831248 97.8101 1.80104 98.8492L8.52029 105.499C9.69789 106.608 11.2218 107.3 12.8843 107.369L16.2786 101.759L0 95.0393Z" fill="#00BBF9"/>
<path d="M2.21664 78.6914L16.3479 64.3524L10.252 30.7562C9.42079 31.7952 8.93589 32.9728 8.79735 34.3582L2.21664 78.6914Z" fill="#00A3E0"/>
<path d="M16.2786 101.759L29.8556 107.369H50.0134L50.9139 100.997L0.207811 92.6148L0 93.7924C0 94.2081 2.63214e-07 94.6237 0.0692709 95.0393L16.2786 101.759Z" fill="#00A3E0"/>
<path d="M65.3915 80.0769V80.0076L65.3222 80.1461L65.3915 80.0769Z" fill="#00A9FA"/>
<path d="M65.3222 80.1461L52.5764 107.369H75.8514L65.4608 80.2154L65.3222 80.1461Z" fill="#00A9FA"/>
<path d="M73.9811 61.5816L48.9051 31.1718L16.2786 64.3524L16.6943 66.5691L2.14743 79.0378L0.554207 89.4284L65.3223 80.0076L73.9811 61.5816Z" fill="#00A9FA"/>
<path d="M57.7717 90.9523H60.2655L65.3222 80.1461L57.7717 90.9523Z" fill="#00A9FA"/>
<path d="M65.3222 80.0076H65.3915L73.981 61.5816L65.3222 80.0076Z" fill="#00A9FA"/>
<path d="M60.2655 90.9523L65.3222 80.0768V80.1461L60.2655 90.9523Z" fill="#00A9FA"/>
<path d="M73.9811 61.5816L49.0436 31.0332L48.9051 31.1718L73.9811 61.5816Z" fill="#00A9FA"/>
<path d="M16.2786 64.3524L2.21668 78.6914L2.14742 79.0378L16.6942 66.5691L16.2786 64.3524Z" fill="#00A9FA"/>
<path d="M0.346378 90.9523L0.138565 92.6148L50.8447 100.997L57.7717 90.9523H0.346378Z" fill="#00BBF9"/>
<path d="M65.3915 80.0076L65.3222 80.0769L65.3915 80.0076Z" fill="#00BBF9"/>
<path d="M65.3222 80.1461V80.0076L0.554171 89.4284L0.346359 90.9523H57.7717L65.3222 80.1461Z" fill="#00BBF9"/>
<path d="M65.3222 80.1461V80.0769L65.3915 80.0076H65.3222V80.1461Z" fill="#00BBF9"/>
<path d="M65.4607 80.0076H65.3915V80.0769L65.4607 80.0076Z" fill="#00BBF9"/>
<path d="M75.8514 107.369H76.8211C78.5529 107.369 80.2154 106.677 81.393 105.499L88.1123 98.8492C89.4284 97.533 90.1211 95.6627 89.9826 93.7924L89.3591 89.7747L65.4608 80.2154L75.8514 107.369Z" fill="#00BBF9"/>
<path d="M12.8843 107.369C12.9536 107.369 13.0229 107.369 13.0921 107.369H29.7864L16.2786 101.759L12.8843 107.369Z" fill="#00A9FA"/>
<path d="M16.2786 101.759L29.7864 107.369H29.8556L16.2786 101.759Z" fill="#00A9FA"/>
<path d="M89.3591 89.7055L85.8263 65.8071L65.4608 80.0076L89.3591 89.7055Z" fill="#00A3E0"/>
<path d="M65.3222 80.1461L65.4607 80.2154L65.3915 80.0768L65.3222 80.1461Z" fill="#00A3E0"/>
<path d="M65.3915 80.0769L65.4607 80.2154L89.3591 89.7747V89.7055L65.4607 80.0076L65.3915 80.0769Z" fill="#00A3E0"/>
<path d="M61.7201 22.3744H50.5676V11.2218H58.4644C60.2654 11.2218 61.7201 12.6765 61.7201 14.4776V22.3744Z" fill="#00BBF9"/>
<path d="M28.1932 22.3744H39.3457V11.2218H31.4489C29.6478 11.2218 28.1932 12.6765 28.1932 14.4776V22.3744Z" fill="#F39D0C"/>
<path d="M50.4983 11.1526H39.3457V3.25572C39.3457 1.45468 40.8004 0 42.6014 0H50.4983V11.1526Z" fill="#00A9FA"/>
<path d="M39.4843 78.1373C37.8911 76.544 37.8911 73.9118 39.4843 72.2493L44.9567 66.7769L55.8322 55.9014L44.9567 34.0119L38.2374 47.4504V60.0576L34.0812 55.9014L24.4526 75.2972L37.7525 88.5971L43.7791 82.5706L39.4843 78.1373Z" fill="#F39D0C"/>
<path d="M65.4608 75.2279L56.6634 57.4946L46.1343 68.0238L50.4291 72.3185C52.0223 73.9118 52.0223 76.544 50.4291 78.2065L38.9302 89.7055L44.9567 95.732L65.4608 75.2279Z" fill="white"/>
</svg>
