<svg width="221" height="198" viewBox="0 0 221 198" fill="none" xmlns="http://www.w3.org/2000/svg">
<path d="M44.09 38.6632C44.5772 38.4907 45.0484 38.2757 45.498 38.0208C46.1251 37.6344 46.6687 37.1268 47.0971 36.5277C47.5255 35.9285 47.83 35.2499 47.9928 34.5316C48.0974 34.0387 48.1388 33.5345 48.116 33.0312C48.0633 32.476 47.9542 31.9275 47.7904 31.3944C47.4868 30.2548 47.1568 29.014 46.8004 27.6896L44.398 18.652L41.494 7.69599C41.2344 6.71039 40.9704 5.71159 40.6976 4.69079C40.4815 3.6707 39.9811 2.73257 39.2544 1.98479C38.5041 1.22132 37.5412 0.701543 36.4912 0.493189C35.4002 0.305302 34.279 0.406953 33.2396 0.787989L4.41519 8.38239C3.18213 8.71118 2.10703 9.46952 1.38359 10.5208C0.666179 11.556 0.34594 12.815 0.481585 14.0672C0.572478 14.6913 0.710745 15.3076 0.895186 15.9108C1.05799 16.5312 1.21639 17.1472 1.37919 17.7588C1.70186 18.9849 2.02012 20.2008 2.33399 21.4064C3.59679 26.2464 4.81118 30.8796 5.97278 35.3148C6.55945 37.5324 7.12266 39.6913 7.66239 41.7916C7.84465 42.8223 8.28856 43.7889 8.95159 44.5988C9.60582 45.3668 10.465 45.933 11.4288 46.2312C13.356 46.9088 15.27 45.9892 17.096 45.5932L22.376 44.2248L38.2644 40.124L42.5896 39.0284L43.716 38.7556C43.9712 38.694 44.1032 38.6764 44.1032 38.6764C44.1032 38.6764 43.98 38.7248 43.7292 38.7952L42.6116 39.112L38.304 40.2824L22.464 44.5152L17.184 45.91L14.3856 46.6448C13.3579 46.9056 12.2779 46.8741 11.2672 46.5538C10.2565 46.2335 9.35541 45.6371 8.66559 44.832C7.96181 43.9834 7.48762 42.9683 7.28839 41.884C6.73399 39.7896 6.16492 37.6321 5.58118 35.4116C4.41518 30.9808 3.18759 26.3344 1.92039 21.512C1.60359 20.3064 1.28385 19.0905 0.961183 17.8644C0.796917 17.2543 0.634116 16.6383 0.472783 16.0164C0.277316 15.3936 0.130212 14.7566 0.0327827 14.1112C-0.113272 12.7584 0.231851 11.3983 1.00519 10.2788C1.78842 9.12848 2.96001 8.29899 4.30519 7.94239L33.134 0.39199C34.2321 -0.000203698 35.4132 -0.100275 36.5616 0.10159C37.6833 0.335737 38.7088 0.901369 39.5052 1.72519C40.2731 2.52281 40.8021 3.51973 41.032 4.60279C41.296 5.61919 41.56 6.62239 41.8152 7.60799C42.8404 11.568 43.7952 15.22 44.6664 18.5772C45.5376 21.9344 46.3208 24.9616 47.0116 27.628C47.3548 28.9627 47.6745 30.2005 47.9708 31.3416C48.1357 31.8899 48.2477 32.4527 48.3052 33.0224C48.3243 33.543 48.274 34.0639 48.1556 34.5712C47.9815 35.3039 47.6604 35.9937 47.2119 36.5987C46.7635 37.2038 46.1968 37.7115 45.5464 38.0912C45.2117 38.2892 44.8541 38.4458 44.4816 38.5576C44.222 38.6368 44.09 38.6632 44.09 38.6632Z" fill="#E0E0E0"/>
<path d="M32.5903 27.2645C32.5038 27.3033 32.4139 27.3342 32.3219 27.3569L31.5475 27.5769L28.6611 28.3733L18.9811 30.9781H18.9019L18.8667 30.9033L18.1979 29.3677L13.5119 18.1389L13.5823 18.1697L10.9951 18.8297L10.3043 18.9969L10.0623 19.0453C10.1373 19.0115 10.2154 18.985 10.2955 18.9661L10.9775 18.7681L13.5559 18.0553H13.6087V18.1037L18.3563 29.3105L19.0075 30.8637L18.8975 30.8065L28.6127 28.2633L31.5123 27.5241L32.2955 27.3349C32.3916 27.3034 32.4902 27.2798 32.5903 27.2645V27.2645Z" fill="#E0E0E0"/>
<path d="M17.793 28.1621C17.793 28.1621 17.815 28.1621 17.859 28.1357L18.057 28.0741L18.8358 27.8541L21.7486 27.0533L31.8158 24.3473L31.7498 24.4441C31.6002 22.6841 31.4374 20.7525 31.2658 18.7637C31.1822 17.7429 31.0942 16.7397 31.015 15.7805L31.1338 15.8641L19.2538 18.9793L15.7338 19.8857L14.7834 20.1233L14.537 20.1761C14.4798 20.1761 14.4535 20.1761 14.4491 20.1761L14.5326 20.1497L14.7746 20.0749L15.7206 19.8065L19.2406 18.8473L31.1206 15.6705L31.2262 15.6397V15.7497C31.3054 16.7089 31.389 17.7121 31.477 18.7329C31.6442 20.7217 31.8026 22.6401 31.9522 24.4177V24.4925H31.8774L21.7926 27.1325L18.8666 27.8805L18.079 28.0741L17.8766 28.1225L17.793 28.1621Z" fill="#E0E0E0"/>
<path d="M23.315 33.6841C23.315 33.6841 23.2666 33.5697 23.1522 33.3805C22.9917 33.1175 22.7489 32.9149 22.4614 32.8041C22.2535 32.7243 22.029 32.697 21.808 32.7246C21.587 32.7523 21.3762 32.8339 21.1942 32.9625C21.0577 33.0789 20.9463 33.2219 20.8669 33.3828C20.7875 33.5436 20.7417 33.719 20.7324 33.8982C20.723 34.0774 20.7503 34.2566 20.8126 34.4249C20.8748 34.5932 20.9707 34.747 21.0944 34.877C21.218 35.0069 21.3669 35.1103 21.5319 35.1808C21.6969 35.2513 21.8745 35.2874 22.054 35.287C22.2334 35.2865 22.4108 35.2495 22.5754 35.1782C22.7401 35.1068 22.8884 35.0027 23.0114 34.8721C23.2052 34.6339 23.315 34.3385 23.3238 34.0317C23.3238 33.8117 23.2974 33.6885 23.3238 33.6841C23.3802 33.7911 23.409 33.9106 23.4074 34.0317C23.4251 34.3632 23.3254 34.6903 23.1258 34.9557C22.9745 35.1582 22.7736 35.3185 22.5424 35.421C22.3112 35.5235 22.0576 35.5647 21.8058 35.5409C21.4984 35.5149 21.2065 35.3946 20.9702 35.1963C20.7338 34.998 20.5645 34.7315 20.4855 34.4333C20.4065 34.1351 20.4216 33.8197 20.5288 33.5304C20.636 33.2411 20.83 32.992 21.0842 32.8173C21.2892 32.6756 21.5269 32.5887 21.7749 32.5648C22.0229 32.541 22.2729 32.5809 22.501 32.6809C22.8054 32.8144 23.0542 33.0491 23.205 33.3453C23.2691 33.4474 23.3069 33.5638 23.315 33.6841V33.6841Z" fill="#E0E0E0"/>
<path d="M32.1151 31.3564C32.1151 31.3564 32.0667 31.2377 31.9523 31.0529C31.7905 30.791 31.5481 30.5887 31.2615 30.4764C31.0344 30.3895 30.7877 30.3669 30.5487 30.4113C30.3096 30.4556 30.0874 30.5651 29.9067 30.7277C29.7259 30.8903 29.5935 31.0997 29.5242 31.3327C29.4548 31.5658 29.4512 31.8134 29.5137 32.0484C29.5762 32.2834 29.7024 32.4965 29.8783 32.6643C30.0543 32.8322 30.2732 32.9481 30.5108 32.9994C30.7485 33.0507 30.9957 33.0354 31.2252 32.9551C31.4547 32.8748 31.6576 32.7327 31.8115 32.5445C32.0053 32.3047 32.115 32.0079 32.1239 31.6997C32.1239 31.4841 32.0975 31.3608 32.1239 31.3564C32.1808 31.4617 32.2096 31.58 32.2075 31.6997C32.2263 32.0313 32.1264 32.3588 31.9259 32.6237C31.7765 32.8229 31.5792 32.981 31.3522 33.0834C31.1252 33.1857 30.876 33.2289 30.6279 33.2089C30.3209 33.1827 30.0296 33.0621 29.7939 32.8638C29.5582 32.6654 29.3897 32.3989 29.3116 32.1009C29.2335 31.8029 29.2496 31.488 29.3576 31.1995C29.4657 30.911 29.6604 30.663 29.9151 30.4897C30.1208 30.348 30.3593 30.2611 30.608 30.2373C30.8567 30.2134 31.1073 30.2533 31.3363 30.3532C31.6414 30.4855 31.8906 30.7206 32.0403 31.0177C32.0924 31.1228 32.1181 31.2391 32.1151 31.3564V31.3564Z" fill="#E0E0E0"/>
<path d="M112.054 196.414C102.176 191.574 98.3747 180.301 97.1295 169.851C96.9227 168.091 96.4475 166.331 97.0415 164.659C97.6355 162.987 99.3955 161.671 101.063 162.164C102.445 162.573 103.237 163.986 104.143 165.112C105.361 166.618 106.979 167.749 108.811 168.377C110.004 168.777 111.425 168.918 112.424 168.148C113.797 167.092 113.651 164.998 113.379 163.273L111.834 153.632C111.557 151.908 111.28 150.148 111.566 148.427C111.852 146.707 112.802 145.004 114.373 144.291C115.944 143.578 118.122 144.212 118.725 145.849C118.98 146.526 118.949 147.279 119.107 147.987C119.266 148.696 119.719 149.439 120.427 149.536C121.136 149.633 121.747 149.034 122.187 148.449C123.701 146.434 124.563 144.005 125.351 141.598C126.139 139.192 126.882 136.736 128.207 134.589C129.531 132.442 131.533 130.59 133.984 130.066C136.435 129.542 139.303 130.669 140.302 132.996C141.301 135.324 140.285 138.021 139.035 140.248C137.194 143.522 134.89 146.512 132.193 149.127C131.709 149.598 131.181 150.104 131.071 150.777C130.873 151.982 132.14 152.977 133.333 153.162C134.688 153.395 136.061 153.047 137.433 152.994C138.806 152.942 140.351 153.316 141.055 154.512C142.036 156.167 140.843 158.244 139.576 159.678C137.039 162.545 134.028 164.954 130.675 166.802C129.474 167.457 128.202 168.073 127.313 169.12C126.425 170.168 126.051 171.818 126.873 172.94C127.696 174.062 129.324 174.207 130.618 173.754C131.911 173.3 132.989 172.398 134.182 171.725C136.417 170.462 139.506 170.154 141.341 171.972C142.546 173.168 142.92 175.03 142.661 176.715C142.401 178.4 141.591 179.936 140.698 181.379C137.583 186.426 133.271 190.764 128.061 193.518C122.852 196.273 117.831 197.575 112.059 196.414" fill="#F5F5F5"/>
<path d="M113.735 189.484C114.589 183.553 115.784 177.677 117.312 171.884C117.708 170.341 118.1 168.818 118.487 167.316C118.874 165.82 119.261 164.338 119.728 162.916C120.631 160.175 121.684 157.486 122.883 154.86C124.009 152.348 125.171 150.02 126.271 147.82C127.371 145.62 128.449 143.622 129.505 141.827C131.152 138.986 133.024 136.28 135.101 133.736C135.832 132.856 136.421 132.156 136.831 131.703L137.297 131.188C137.347 131.127 137.403 131.071 137.464 131.021C137.422 131.087 137.374 131.15 137.323 131.21L136.883 131.747C136.496 132.213 135.92 132.904 135.203 133.819C133.168 136.386 131.33 139.103 129.703 141.946C128.664 143.741 127.608 145.761 126.513 147.943C125.417 150.126 124.273 152.48 123.155 154.983C121.97 157.603 120.927 160.285 120.031 163.018C119.569 164.439 119.191 165.908 118.799 167.418C118.408 168.927 118.025 170.44 117.629 171.98C116.104 177.761 114.902 183.622 114.03 189.536" fill="#E0E0E0"/>
<path d="M119.816 162.89C119.699 162.664 119.604 162.427 119.534 162.182C119.371 161.715 119.156 161.038 118.905 160.197C118.395 158.516 117.774 156.171 117.097 153.597C116.419 151.023 115.777 148.678 115.231 146.997C114.967 146.161 114.747 145.488 114.589 145.022C114.492 144.787 114.421 144.542 114.377 144.291C114.513 144.507 114.623 144.737 114.707 144.978C114.901 145.418 115.147 146.095 115.447 146.922C116.036 148.581 116.727 150.909 117.405 153.5C118.082 156.092 118.663 158.367 119.121 160.136C119.332 160.932 119.512 161.605 119.657 162.142C119.739 162.384 119.792 162.635 119.816 162.89V162.89Z" fill="#E0E0E0"/>
<path d="M141.371 155.331C141.086 155.438 140.791 155.519 140.491 155.573C139.933 155.709 139.119 155.907 138.12 156.18C136.122 156.712 133.385 157.544 130.407 158.591C127.428 159.638 124.779 160.716 122.883 161.548C121.932 161.953 121.171 162.305 120.643 162.542C120.375 162.683 120.096 162.8 119.807 162.89C120.053 162.72 120.313 162.573 120.586 162.45C121.101 162.173 121.849 161.79 122.786 161.354C124.665 160.474 127.313 159.361 130.297 158.305C132.842 157.396 135.433 156.618 138.058 155.973C139.066 155.727 139.889 155.564 140.461 155.467C140.759 155.393 141.064 155.347 141.371 155.331V155.331Z" fill="#E0E0E0"/>
<path d="M113.955 189.035C113.879 188.962 113.814 188.879 113.761 188.788L113.255 188.045C112.815 187.394 112.221 186.439 111.495 185.251C110.035 182.875 108.116 179.531 106.053 175.804C103.989 172.077 102.093 168.72 100.698 166.313L98.995 163.471C98.8146 163.163 98.665 162.908 98.555 162.696C98.495 162.608 98.4476 162.512 98.4142 162.41C98.4877 162.487 98.5526 162.571 98.6078 162.661C98.7442 162.864 98.9114 163.101 99.1094 163.405C99.5494 164.052 100.148 165.006 100.869 166.194C102.33 168.575 104.244 171.914 106.312 175.646C108.38 179.377 110.272 182.73 111.667 185.132L113.343 187.974L113.783 188.753C113.853 188.839 113.91 188.934 113.955 189.035Z" fill="#E0E0E0"/>
<path d="M141.97 175.008C141.888 175.077 141.796 175.133 141.697 175.175L140.883 175.593L137.882 177.102C135.352 178.378 131.872 180.182 128.031 182.171C124.189 184.16 120.691 185.937 118.131 187.16C116.85 187.772 115.812 188.256 115.086 188.577L114.245 188.942C114.15 188.99 114.05 189.025 113.946 189.048C114.03 188.981 114.122 188.925 114.219 188.881L115.033 188.463L118.029 186.954C120.564 185.682 124.044 183.874 127.885 181.885C131.727 179.896 135.225 178.118 137.781 176.895C139.061 176.284 140.104 175.8 140.83 175.478L141.666 175.118C141.762 175.067 141.864 175.03 141.97 175.008V175.008Z" fill="#E0E0E0"/>
<path d="M112.898 15.9841H100.138C99.3005 16.006 98.5058 16.3592 97.9284 16.9663C97.351 17.5735 97.038 18.3848 97.0581 19.2225V21.5369C97.0782 22.3745 96.7652 23.1859 96.1877 23.793C95.6103 24.4001 94.8156 24.7534 93.9781 24.7753H69.0961C68.2554 24.7545 67.4571 24.4017 66.8759 23.794C66.2946 23.1863 65.9775 22.3732 65.9941 21.5325V19.1961C66.0107 18.3594 65.6965 17.55 65.1198 16.9437C64.5431 16.3373 63.7505 15.983 62.9141 15.9577H58.4261H47.2545C44.5895 15.9577 42.0336 17.0157 40.1483 18.8993C38.2631 20.7829 37.2028 23.3379 37.2005 26.0029L37.1697 187.118C37.1697 189.781 38.2274 192.335 40.1103 194.219C41.9932 196.103 44.5471 197.162 47.2105 197.163L112.92 197.202C114.239 197.204 115.546 196.945 116.765 196.441C117.984 195.937 119.092 195.197 120.026 194.265C120.959 193.332 121.699 192.225 122.205 191.006C122.71 189.787 122.97 188.481 122.97 187.162L123 26.0425C123.002 24.7174 122.742 23.405 122.234 22.181C121.727 20.957 120.982 19.8455 120.043 18.9106C119.104 17.9756 117.989 17.2357 116.763 16.7335C115.537 16.2312 114.223 15.9765 112.898 15.9841Z" fill="white"/>
<path d="M112.899 15.9829C112.899 15.9829 113.013 15.9829 113.242 15.9829C113.582 15.9823 113.922 16.0073 114.259 16.0577C115.595 16.226 116.88 16.6759 118.03 17.3777C118.882 17.8775 119.653 18.5035 120.317 19.2345C121.131 20.1117 121.779 21.1282 122.231 22.2353C122.754 23.5306 123.009 24.9177 122.984 26.3141C122.984 27.7969 122.984 29.3941 122.984 31.0485C122.984 44.4333 123.006 63.7977 123.019 87.7205C123.032 111.643 123.019 140.142 123.019 171.76V186.817C123.043 187.857 122.914 188.895 122.636 189.897C122.356 190.902 121.923 191.858 121.351 192.731C120.77 193.6 120.066 194.381 119.261 195.05C117.609 196.388 115.58 197.175 113.458 197.302C111.355 197.364 109.26 197.302 107.148 197.329H94.3707H68.1159H47.9067C45.5799 197.448 43.2785 196.8 41.3551 195.485C39.4522 194.151 38.0566 192.213 37.3951 189.985C37.0813 188.881 36.9403 187.736 36.9771 186.588V183.2C36.9771 178.695 36.9771 174.217 36.9771 169.767C36.9771 160.879 36.9771 152.126 36.9771 143.508C36.9771 126.291 36.9771 109.685 36.9771 93.8629C36.9771 78.0405 36.9771 63.0101 36.9771 48.9389C36.9771 41.8989 36.9771 35.1141 36.9771 28.5845C36.9771 27.7661 36.9771 26.9521 36.9771 26.1469C36.9771 25.7421 37.0123 25.3329 37.0343 24.9281C37.0563 24.5233 37.1355 24.1229 37.2367 23.7313C37.5995 22.1656 38.3243 20.7068 39.3531 19.4721C40.352 18.2843 41.6088 17.3404 43.0279 16.712C44.4469 16.0837 45.9907 15.7877 47.5415 15.8465H56.2975H62.5719C63.2742 15.809 63.9695 16.0021 64.5519 16.3965C65.1182 16.7948 65.5471 17.359 65.7795 18.0113C65.9724 18.6539 66.0411 19.3273 65.9819 19.9957V21.0077C65.9721 21.3277 65.9824 21.6481 66.0127 21.9669C66.1068 22.5951 66.3873 23.1806 66.8179 23.6477C67.2181 24.1168 67.755 24.4492 68.3535 24.5981C68.6487 24.6688 68.9521 24.6999 69.2555 24.6905H73.8095H87.0535H92.8923C93.3543 24.6905 93.8251 24.6905 94.2607 24.6905C94.6973 24.6358 95.1164 24.4856 95.4883 24.2505C95.8459 24.0238 96.1546 23.728 96.3964 23.3804C96.6381 23.0329 96.8081 22.6405 96.8963 22.2265C96.9687 21.823 96.9953 21.4127 96.9755 21.0033C96.9755 20.5985 96.9755 20.1981 96.9755 19.8021C96.9578 19.4111 96.9755 19.0194 97.0283 18.6317C97.0917 18.2547 97.2197 17.8915 97.4067 17.5581C97.7622 16.9271 98.3226 16.4365 98.9951 16.1677C99.6401 15.9644 100.319 15.8925 100.993 15.9565H107.509H111.513H112.881H111.513H107.509H100.993C100.35 15.9565 99.6727 15.8905 99.0303 16.1721C98.3688 16.4376 97.8199 16.9243 97.4771 17.5493C97.299 17.876 97.1756 18.2298 97.1119 18.5965C97.0645 18.9788 97.0483 19.3643 97.0635 19.7493C97.0635 20.1453 97.0635 20.5457 97.0635 20.9505C97.0806 21.3672 97.054 21.7845 96.9843 22.1957C96.894 22.6245 96.719 23.0309 96.4697 23.3913C96.2204 23.7517 95.9017 24.0587 95.5323 24.2945C95.1434 24.5343 94.706 24.6846 94.2519 24.7345C93.7855 24.7741 93.3367 24.7345 92.8703 24.7345H69.2555C68.9374 24.747 68.6191 24.7159 68.3095 24.6421C67.6773 24.4871 67.1105 24.1359 66.6903 23.6389C66.2581 23.1429 65.9812 22.5309 65.8939 21.8789C65.8664 21.5893 65.8561 21.2984 65.8631 21.0077V20.0133C65.9177 19.3656 65.8506 18.7134 65.6651 18.0905C65.4463 17.473 65.0402 16.9392 64.5035 16.5637C63.9499 16.1918 63.2906 16.0096 62.6247 16.0445H47.5943C46.0727 15.9871 44.5581 16.2785 43.1664 16.8962C41.7746 17.5139 40.5425 18.4416 39.5643 19.6085C38.5597 20.8183 37.8529 22.247 37.5007 23.7797C37.3995 24.1625 37.3687 24.5585 37.2983 24.9501C37.2279 25.3417 37.2499 25.7421 37.2455 26.1469V28.5845C37.2455 35.1141 37.2455 41.8989 37.2455 48.9389C37.2455 63.0189 37.2455 78.0449 37.2455 93.8629V143.508C37.2455 152.114 37.2455 160.868 37.2455 169.767V186.588C37.2073 187.709 37.3439 188.828 37.6503 189.906C38.3009 192.074 39.6655 193.958 41.5223 195.252C43.3977 196.524 45.64 197.143 47.9023 197.012H54.6871H68.1115H94.3663H107.161C109.269 197.012 111.381 197.047 113.458 196.986C115.523 196.861 117.498 196.091 119.103 194.786C119.888 194.136 120.574 193.375 121.14 192.528C121.695 191.68 122.117 190.751 122.39 189.774C122.659 188.8 122.785 187.792 122.764 186.782C122.764 185.761 122.764 184.749 122.764 183.733C122.764 179.685 122.764 175.682 122.764 171.725C122.764 140.094 122.795 111.599 122.808 87.6853C122.821 63.7713 122.852 44.3981 122.865 31.0133C122.865 29.3413 122.865 27.7617 122.865 26.2789C122.894 24.8939 122.644 23.5174 122.13 22.2309C121.684 21.1316 121.045 20.1212 120.243 19.2477C118.673 17.5179 116.546 16.3937 114.232 16.0709C113.897 16.0189 113.559 15.9881 113.22 15.9785C113.013 15.9961 112.899 15.9829 112.899 15.9829Z" fill="#263238"/>
<path d="M53.4067 32.2543C53.4067 32.2942 51.7434 32.3472 49.6975 32.3605C47.6515 32.3738 45.9883 32.3605 45.9883 32.3163C45.9883 32.272 47.6471 32.2234 49.6975 32.2057C51.7478 32.188 53.4067 32.2101 53.4067 32.2543Z" fill="#263238"/>
<path d="M53.4199 34.1508C53.4199 34.195 51.7611 34.2436 49.7151 34.2613C47.6691 34.279 46.0059 34.2613 46.0059 34.2127C46.0059 34.164 47.6647 34.1198 49.7107 34.1021C51.7567 34.0844 53.4199 34.1065 53.4199 34.1508Z" fill="#263238"/>
<path d="M53.4375 36.0472C53.4375 36.0914 51.7787 36.14 49.7283 36.1577C47.6779 36.1754 46.0191 36.1577 46.0191 36.1091C46.0191 36.0604 47.6779 36.0162 49.7283 35.9985C51.7787 35.9808 53.4375 36.0029 53.4375 36.0472Z" fill="#263238"/>
<path d="M77.7607 156.484H44.7387V189.506H77.7607V156.484Z" fill="#F5F5F5"/>
<path d="M73.8623 175.377C71.1739 171.624 65.4671 169.055 60.8295 169.745C57.0719 170.304 53.7455 172.051 51.9239 175.782C51.8018 176.026 51.7403 176.295 51.7445 176.567C51.7487 176.84 51.8185 177.107 51.948 177.347C52.0776 177.586 52.263 177.791 52.4886 177.944C52.7142 178.097 52.9733 178.193 53.2439 178.224C59.5047 178.971 65.8333 178.951 72.0891 178.162C73.0527 178.039 74.2011 177.771 74.2671 176.578C74.2732 176.144 74.1304 175.72 73.8623 175.377Z" fill="#03A9F4"/>
<path d="M59.0167 175.188C58.9947 175.188 58.8011 175.016 58.5459 174.664C58.2051 174.199 57.9626 173.669 57.8331 173.107C57.7231 172.548 57.6759 171.978 57.6923 171.408C57.6726 171.174 57.692 170.937 57.7495 170.709C57.8227 170.933 57.8584 171.168 57.8551 171.404C57.8847 171.958 57.9509 172.509 58.0531 173.054C58.1838 173.59 58.3944 174.103 58.6779 174.576C58.8163 174.765 58.9302 174.971 59.0167 175.188V175.188Z" fill="#F5F5F5"/>
<path d="M62.9986 175.008C62.9326 175.008 63.0294 173.943 62.8886 172.649C62.7478 171.356 62.4486 170.339 62.5058 170.317C63.1526 171.792 63.3249 173.431 62.9986 175.008V175.008Z" fill="#F5F5F5"/>
<path d="M67.1171 174.396C67.0511 174.37 67.3635 173.661 67.4383 172.728C67.5131 171.796 67.3415 171.043 67.4075 171.026C67.6287 171.57 67.7178 172.16 67.6673 172.746C67.6168 173.332 67.4283 173.897 67.1171 174.396V174.396Z" fill="#F5F5F5"/>
<g opacity="0.3">
<path opacity="0.3" d="M62.2683 169.921L62.3024 169.988L62.2683 169.921Z" fill="black"/>
</g>
<path d="M78.1435 49.7353H44.7387V99.8117H78.1435V49.7353Z" fill="#F5F5F5"/>
<path d="M78.1435 103.587H44.7387V153.663H78.1435V103.587Z" fill="#F5F5F5"/>
<path d="M114.73 94.1313H81.3247V140.886H114.73V94.1313Z" fill="#F5F5F5"/>
<path d="M114.457 144.172H81.0519V189.501H114.457V144.172Z" fill="#F5F5F5"/>
<path d="M114.73 49.7353H81.3247V91.0953H114.73V49.7353Z" fill="#F5F5F5"/>
<path d="M66.6903 64.7085V78.5904C66.6903 79.1976 66.2019 79.8268 65.3043 80.302C64.1014 80.8668 62.7827 81.1412 61.4543 81.1029H61.4323C58.1543 81.1029 56.1963 79.8092 56.1963 78.5904V64.6821C56.1963 63.3269 57.1951 61.9145 58.1983 60.5153C58.8715 59.5825 59.0343 58.2405 59.0783 57.4353C59.0783 57.3429 59.0783 57.2593 59.0783 57.1801H58.9859C58.7935 57.1946 58.6031 57.1325 58.4564 57.0072C58.3096 56.8819 58.2185 56.7036 58.2027 56.5113V55.9261C58.2174 55.7326 58.3079 55.5528 58.4547 55.4258C58.6014 55.2989 58.7924 55.2351 58.9859 55.2485H63.9095C64.0557 55.2443 64.2002 55.2802 64.3274 55.3523C64.4546 55.4245 64.5597 55.5301 64.6311 55.6577C64.6716 55.7413 64.6927 55.8331 64.6927 55.9261V56.5113C64.6759 56.7031 64.5844 56.8807 64.4379 57.0058C64.2914 57.1309 64.1017 57.1935 63.9095 57.1801H63.7951C63.7951 57.2593 63.7951 57.3429 63.7951 57.4353C63.8259 58.2273 63.9887 59.5693 64.6751 60.5153C65.6783 61.9145 66.6727 63.3269 66.6771 64.6821L66.6903 64.7085Z" fill="#FAFAFA"/>
<path d="M66.6903 64.7084V64.5676C66.6784 64.4289 66.6593 64.2908 66.6331 64.154C66.5153 63.6292 66.3195 63.1249 66.0523 62.658C65.6229 61.9153 65.1483 61.1997 64.6311 60.5152C64.0256 59.5151 63.7201 58.362 63.7511 57.1932V57.114H63.7951C63.9685 57.1403 64.1455 57.1013 64.2918 57.0046C64.4381 56.9078 64.5433 56.7603 64.5871 56.5904C64.5871 56.4144 64.5871 56.1988 64.5871 56.0008C64.5977 55.91 64.585 55.818 64.5504 55.7333C64.5158 55.6487 64.4603 55.5742 64.3891 55.5168C64.2388 55.3961 64.0492 55.335 63.8567 55.3452H61.8723H59.0387C58.9283 55.3355 58.8171 55.3493 58.7124 55.3857C58.6077 55.4221 58.512 55.4803 58.4315 55.5564C58.3584 55.6331 58.3095 55.7295 58.2907 55.8336C58.2838 55.9538 58.2838 56.0743 58.2907 56.1944C58.2907 56.3176 58.2907 56.4628 58.2907 56.564C58.3046 56.6714 58.3524 56.7716 58.4271 56.85C58.509 56.9327 58.6086 56.9957 58.7183 57.0346C58.828 57.0734 58.945 57.087 59.0607 57.0744H59.1619V57.1844C59.1567 57.7524 59.0948 58.3184 58.9771 58.874C58.8628 59.4573 58.6373 60.013 58.3127 60.5108C57.5726 61.4521 56.9615 62.4879 56.4955 63.5908C56.3962 63.8754 56.3312 64.1709 56.3019 64.4708C56.3019 64.7656 56.3019 65.0912 56.3019 65.4036V67.3132C56.3019 68.6039 56.3019 69.9122 56.3019 71.238C56.3019 73.57 56.3019 75.8492 56.3019 78.0492C56.2884 78.3138 56.3002 78.579 56.3371 78.8412C56.4009 79.0873 56.5267 79.313 56.7023 79.4968C57.0604 79.8774 57.4953 80.1773 57.9783 80.3768C58.9294 80.7582 59.9414 80.9654 60.9659 80.9884C61.9413 81.0392 62.919 80.9518 63.8699 80.7288C64.7675 80.5514 65.5917 80.1102 66.2371 79.4616C66.3753 79.3023 66.4801 79.1167 66.5451 78.916C66.5945 78.7117 66.6123 78.501 66.5979 78.2912V77.0152C66.5979 76.1792 66.5979 75.3784 66.5979 74.6128C66.5979 71.5636 66.6243 69.0952 66.6331 67.3704C66.6331 66.5256 66.6331 65.8656 66.6331 65.3992C66.6331 64.9328 66.6551 64.7128 66.6551 64.7128C66.6781 64.9409 66.6869 65.1701 66.6815 65.3992C66.6815 65.8656 66.6815 66.5256 66.7035 67.3704C66.7035 69.0952 66.7035 71.5636 66.7387 74.6128C66.7387 75.3784 66.7387 76.1792 66.7387 77.0152V78.2912C66.7555 78.5185 66.7377 78.747 66.6859 78.9688C66.6142 79.1952 66.4975 79.4048 66.3427 79.5848C65.6738 80.2639 64.8146 80.7242 63.8787 80.9048C62.9099 81.1379 61.9127 81.2312 60.9175 81.182C59.8615 81.1614 58.818 80.9497 57.8375 80.5572C57.3249 80.3517 56.8627 80.038 56.4823 79.6376C56.2828 79.4253 56.1392 79.1668 56.0643 78.8852C56.0217 78.6058 56.0069 78.3228 56.0203 78.0404C56.0203 75.8404 56.0203 73.5612 56.0203 71.2292C56.0203 69.9004 56.0203 68.5922 56.0203 67.3044V65.3948C56.0203 65.0736 56.0203 64.7744 56.0203 64.4444C56.049 64.1264 56.117 63.813 56.2227 63.5116C56.6963 62.3901 57.3194 61.3377 58.0751 60.3832C58.6417 59.4129 58.9252 58.3033 58.8935 57.18L58.9991 57.2856C58.8548 57.2979 58.7096 57.2778 58.5741 57.2268C58.4386 57.1758 58.3162 57.0952 58.2159 56.9908C58.1135 56.8815 58.0474 56.7432 58.0267 56.5948C58.0267 56.4408 58.0267 56.3308 58.0267 56.1988C58.0183 56.0684 58.0183 55.9376 58.0267 55.8072C58.0527 55.6626 58.1217 55.5292 58.2247 55.4244C58.3229 55.3285 58.4404 55.2546 58.5693 55.2076C58.6983 55.1605 58.8358 55.1415 58.9727 55.1516H61.8063H63.7907C64.0223 55.1448 64.2487 55.2213 64.4287 55.3672C64.5164 55.4418 64.5853 55.5361 64.6296 55.6424C64.674 55.7487 64.6926 55.864 64.6839 55.9788C64.6839 56.1856 64.6839 56.3704 64.6839 56.5904C64.6355 56.7972 64.5117 56.9785 64.3368 57.0989C64.1618 57.2193 63.9483 57.2702 63.7379 57.2416L63.8127 57.1668C63.7706 58.309 64.0578 59.4392 64.6399 60.4228C65.1508 61.1177 65.6181 61.8437 66.0391 62.5964C66.3022 63.0726 66.4864 63.5882 66.5847 64.1232C66.6072 64.2615 66.6205 64.4012 66.6243 64.5412C66.6568 64.5922 66.6792 64.649 66.6903 64.7084V64.7084Z" fill="#263238"/>
<path d="M63.5355 57.1625C62.0728 57.3162 60.5981 57.3162 59.1355 57.1625C60.5981 57.0087 62.0728 57.0087 63.5355 57.1625V57.1625Z" fill="#263238"/>
<path d="M66.1604 66.6956C65.9247 66.5804 65.6639 66.5261 65.4018 66.5376C65.1398 66.5492 64.8847 66.6262 64.66 66.7616C64.2105 67.035 63.7246 67.2439 63.2168 67.382C62.5972 67.4393 61.9766 67.2841 61.4568 66.942C60.9382 66.6036 60.3922 66.3092 59.8244 66.062C59.2608 65.8703 58.6546 65.8408 58.075 65.9769C57.4954 66.1131 56.9658 66.4094 56.5464 66.832V78.712C56.5464 78.712 57.202 80.7404 61.8044 80.4236C66.4068 80.1068 66.0416 78.074 66.0416 78.074L66.1604 66.6956Z" fill="#03A9F4"/>
<path d="M101.815 161.038V174.805C101.815 175.412 101.331 176.033 100.434 176.508C99.2401 177.072 97.9298 177.345 96.6103 177.304C93.3499 177.304 91.4051 176.015 91.4051 174.805V161.055C91.4051 161.055 91.4051 161.055 91.4051 161.024C91.4051 159.678 92.3995 158.274 93.3939 156.888C94.0671 155.96 94.2255 154.622 94.2739 153.839C94.2739 153.747 94.2739 153.663 94.2739 153.588H94.1551C93.9634 153.602 93.7742 153.539 93.6284 153.414C93.4826 153.289 93.392 153.111 93.3763 152.92V152.339C93.3909 152.147 93.4812 151.969 93.6272 151.843C93.7733 151.718 93.9631 151.655 94.1551 151.67H99.0479C99.193 151.665 99.3367 151.701 99.4632 151.772C99.5897 151.843 99.6941 151.948 99.7651 152.075C99.8037 152.157 99.8233 152.248 99.8223 152.339V152.92C99.8076 153.111 99.718 153.288 99.5729 153.414C99.4278 153.539 99.2391 153.602 99.0479 153.588H98.9555C98.9555 153.663 98.9555 153.747 98.9555 153.839C98.9863 154.622 99.1447 155.96 99.8135 156.888C100.812 158.274 101.798 159.678 101.807 161.024C101.82 161.02 101.815 161.029 101.815 161.038Z" fill="#FAFAFA"/>
<path d="M101.815 161.038C101.818 160.991 101.818 160.944 101.815 160.897C101.806 160.758 101.788 160.62 101.763 160.483C101.645 159.963 101.451 159.463 101.186 159C100.76 158.261 100.287 157.55 99.7695 156.871C99.1665 155.878 98.8611 154.732 98.8895 153.571V153.487H98.9643C99.1366 153.513 99.3124 153.474 99.4572 153.377C99.6021 153.28 99.7056 153.133 99.7475 152.964C99.7475 152.792 99.7475 152.576 99.7475 152.378C99.7557 152.288 99.742 152.198 99.7075 152.114C99.673 152.031 99.6188 151.957 99.5495 151.899C99.3998 151.78 99.2124 151.719 99.0215 151.727H97.0503H94.2343C94.1246 151.718 94.014 151.731 93.9101 151.768C93.8061 151.804 93.7112 151.862 93.6315 151.938C93.5576 152.014 93.5085 152.111 93.4907 152.216C93.4837 152.334 93.4837 152.453 93.4907 152.572C93.4907 152.691 93.4907 152.836 93.4907 152.937C93.5046 153.045 93.5524 153.145 93.6271 153.223C93.7081 153.304 93.8063 153.366 93.9145 153.404C94.0226 153.442 94.1379 153.456 94.2519 153.443H94.3575V153.553C94.3523 154.117 94.2904 154.678 94.1727 155.23C94.0599 155.809 93.8357 156.36 93.5127 156.853C92.7756 157.794 92.1688 158.83 91.7087 159.933C91.6082 160.217 91.5446 160.513 91.5195 160.813C91.5195 161.104 91.5195 161.429 91.5195 161.737C91.5195 162.362 91.5195 162.996 91.5195 163.638V167.528C91.5195 169.847 91.5195 172.113 91.5195 174.299C91.5061 174.561 91.5179 174.823 91.5547 175.083C91.6196 175.328 91.7452 175.554 91.9199 175.738C92.2758 176.117 92.7076 176.417 93.1871 176.618C94.1271 176.987 95.1253 177.187 96.1351 177.208C97.1047 177.258 98.0765 177.171 99.0215 176.948C99.9135 176.775 100.732 176.336 101.371 175.69C101.509 175.532 101.614 175.348 101.679 175.149C101.727 174.945 101.743 174.736 101.727 174.528C101.727 174.088 101.727 173.675 101.727 173.261C101.727 172.429 101.727 171.637 101.727 170.876C101.727 167.844 101.754 165.389 101.763 163.678C101.763 162.837 101.763 162.182 101.785 161.724C101.807 161.266 101.785 161.042 101.785 161.042C101.811 161.268 101.82 161.496 101.811 161.724C101.811 162.164 101.811 162.837 101.811 163.678C101.811 165.389 101.833 167.844 101.851 170.876C101.851 171.637 101.851 172.429 101.851 173.261C101.851 173.675 101.851 174.097 101.851 174.528C101.868 174.754 101.849 174.981 101.793 175.201C101.723 175.426 101.607 175.634 101.455 175.813C100.791 176.49 99.9383 176.95 99.0083 177.133C98.0454 177.366 97.0541 177.459 96.0647 177.41C95.0207 177.388 93.9892 177.178 93.0199 176.79C92.534 176.581 92.0966 176.274 91.7351 175.888C91.5378 175.676 91.3958 175.419 91.3215 175.14C91.279 174.863 91.2642 174.583 91.2775 174.304V161.728C91.2775 161.412 91.2775 161.112 91.2775 160.787C91.3067 160.469 91.3747 160.156 91.4799 159.854C91.9501 158.742 92.5688 157.698 93.3191 156.752C93.8798 155.788 94.1616 154.686 94.1331 153.571L94.2343 153.672C94.0918 153.684 93.9484 153.664 93.8145 153.614C93.6806 153.564 93.5595 153.484 93.4599 153.382C93.3571 153.273 93.2922 153.134 93.2751 152.986C93.2751 152.836 93.2751 152.726 93.2751 152.594C93.2665 152.464 93.2665 152.333 93.2751 152.202C93.3029 152.06 93.3717 151.928 93.4731 151.824C93.5708 151.729 93.6876 151.655 93.8157 151.608C93.9439 151.561 94.0805 151.542 94.2167 151.551H97.0327H99.0039C99.2343 151.544 99.4596 151.62 99.6375 151.767C99.7249 151.841 99.7936 151.934 99.8379 152.04C99.8823 152.145 99.901 152.26 99.8927 152.374C99.8927 152.581 99.8927 152.766 99.8927 152.981C99.8392 153.184 99.7149 153.362 99.5423 153.481C99.3696 153.6 99.1599 153.654 98.9511 153.632L99.0259 153.558C98.985 154.69 99.269 155.811 99.8443 156.787C100.355 157.476 100.82 158.197 101.235 158.948C101.497 159.421 101.681 159.934 101.78 160.466C101.804 160.602 101.816 160.741 101.815 160.879C101.829 160.989 101.824 161.038 101.815 161.038Z" fill="#263238"/>
<path d="M98.6827 153.536C97.2347 153.688 95.7747 153.688 94.3267 153.536C95.7747 153.383 97.2347 153.383 98.6827 153.536V153.536Z" fill="#263238"/>
<path d="M101.38 162.877C101.146 162.761 100.887 162.706 100.626 162.717C100.366 162.727 100.112 162.804 99.8883 162.938C99.4428 163.211 98.9615 163.42 98.4583 163.559C97.8388 163.614 97.2187 163.459 96.6983 163.119C96.1833 162.78 95.6401 162.485 95.0747 162.239C94.515 162.049 93.9133 162.021 93.3384 162.157C92.7634 162.293 92.2383 162.588 91.8231 163.009V174.827C91.8231 174.827 92.4699 176.847 97.0415 176.53C101.613 176.213 101.257 174.194 101.257 174.194L101.38 162.877Z" fill="#03A9F4"/>
<path d="M108.979 111.005C108.828 110.944 108.665 110.921 108.503 110.94C108.342 110.958 108.187 111.017 108.055 111.111C107.989 111.155 107.918 111.208 107.852 111.26C105.619 112.912 102.904 113.783 100.126 113.738C94.7183 113.738 90.2391 110.706 89.4383 106.746V105.998C89.4451 105.923 89.4362 105.848 89.4122 105.776C89.3882 105.705 89.3496 105.64 89.2989 105.584C89.2482 105.529 89.1864 105.484 89.1176 105.454C89.0489 105.424 88.9745 105.408 88.8993 105.408C88.8241 105.408 88.7498 105.424 88.681 105.454C88.6122 105.484 88.5505 105.529 88.4998 105.584C88.4491 105.64 88.4105 105.705 88.3865 105.776C88.3624 105.848 88.3535 105.923 88.3603 105.998V108.092C88.3637 108.142 88.3741 108.191 88.3911 108.238C88.0194 109.059 87.823 109.949 87.8147 110.851C87.8147 115.423 92.6547 119.136 98.6431 119.136C103.664 119.136 107.883 116.527 109.115 112.976C109.13 112.961 109.139 112.941 109.142 112.919C109.284 112.636 109.364 112.325 109.375 112.008C109.407 111.821 109.388 111.628 109.318 111.451C109.248 111.274 109.131 111.12 108.979 111.005V111.005Z" fill="#F39D0B"/>
<g opacity="0.3">
<path opacity="0.3" d="M89.0335 108.788C89.0335 108.788 94.1331 120.518 107.953 112.308C107.953 112.308 104.394 116.004 99.7519 116.901C95.5455 117.706 89.3151 115.335 89.0335 108.788Z" fill="black"/>
</g>
<path d="M109.357 111.595C109.273 111.797 108.943 111.854 108.622 111.718C108.301 111.582 108.107 111.304 108.182 111.102C108.257 110.9 108.596 110.847 108.917 110.983C109.238 111.12 109.445 111.392 109.357 111.595Z" fill="#263238"/>
<path d="M114.509 35.9677C114.473 35.9741 114.436 35.9741 114.399 35.9677H114.087H112.93L109.045 36.0029H109.014V35.9721C108.983 35.7653 108.952 35.5321 108.917 35.3297C108.649 33.4465 108.411 31.7656 108.253 30.6656H108.275H106.955C106.924 30.6695 106.893 30.6695 106.862 30.6656H106.955H107.232H108.266H108.288V30.6877C108.451 31.7833 108.701 33.4641 108.983 35.3429C109.014 35.5629 109.045 35.7829 109.075 35.9853L109.04 35.9545H112.925H114.505L114.509 35.9677Z" fill="#263238"/>
<path d="M108.877 34.8677C108.877 34.8677 108.877 34.8677 108.908 34.8677H108.987H109.3H110.47L114.501 34.8281L114.466 34.8589C114.58 34.1769 114.708 33.4421 114.835 32.6853C114.901 32.2937 114.967 31.9065 115.033 31.5413L115.068 31.5853H110.316H108.429C108.407 31.5853 108.398 31.5853 108.398 31.5853H108.53H108.908H110.316L115.068 31.5457H115.112V31.5897L114.919 32.7293C114.787 33.4905 114.659 34.2253 114.545 34.9293V34.9557H114.514H110.483H108.891L108.877 34.8677Z" fill="#263238"/>
<path d="M110.435 37.4724C110.435 37.4724 110.435 37.424 110.404 37.3404C110.371 37.2263 110.299 37.127 110.202 37.0588C110.132 37.0093 110.051 36.9774 109.966 36.9659C109.881 36.9544 109.794 36.9637 109.713 36.9928C109.615 37.0297 109.531 37.0956 109.472 37.1817C109.412 37.2678 109.38 37.37 109.38 37.4746C109.38 37.5793 109.412 37.6815 109.472 37.7676C109.531 37.8537 109.615 37.9196 109.713 37.9564C109.794 37.9874 109.881 37.9971 109.967 37.9848C110.052 37.9725 110.133 37.9385 110.202 37.8861C110.297 37.8165 110.367 37.7175 110.4 37.6044C110.426 37.5208 110.426 37.4724 110.431 37.4724C110.442 37.5172 110.442 37.5641 110.431 37.6089C110.403 37.7354 110.333 37.8487 110.233 37.93C110.157 37.9889 110.068 38.0281 109.974 38.0442C109.879 38.0604 109.782 38.0529 109.691 38.0224C109.578 37.9836 109.479 37.9102 109.409 37.8123C109.339 37.7145 109.301 37.5972 109.301 37.4768C109.301 37.3565 109.339 37.2392 109.409 37.1414C109.479 37.0435 109.578 36.9701 109.691 36.9312C109.783 36.899 109.88 36.8902 109.976 36.9056C110.071 36.921 110.161 36.96 110.237 37.0192C110.338 37.0983 110.408 37.2104 110.435 37.336C110.448 37.3806 110.448 37.4279 110.435 37.4724Z" fill="#263238"/>
<path d="M113.955 37.4505C113.955 37.4505 113.955 37.4021 113.924 37.3229C113.892 37.2082 113.82 37.1086 113.722 37.0413C113.652 36.9907 113.571 36.9581 113.486 36.9466C113.401 36.9351 113.314 36.9449 113.233 36.9753C113.161 36.9984 113.094 37.0375 113.038 37.0896C112.982 37.1418 112.939 37.2057 112.911 37.2767C112.883 37.3478 112.871 37.4242 112.876 37.5004C112.881 37.5766 112.903 37.6507 112.94 37.7173C112.978 37.784 113.029 37.8415 113.092 37.8857C113.154 37.9299 113.225 37.9597 113.301 37.9729C113.376 37.9861 113.453 37.9824 113.527 37.962C113.6 37.9417 113.669 37.9052 113.726 37.8553C113.822 37.7832 113.893 37.6833 113.929 37.5693C113.951 37.4857 113.951 37.4373 113.955 37.4373C113.966 37.482 113.966 37.5289 113.955 37.5737C113.93 37.7 113.861 37.8135 113.761 37.8948C113.677 37.9611 113.576 38.0026 113.47 38.0147C113.364 38.0268 113.256 38.009 113.159 37.9633C113.062 37.9176 112.98 37.8458 112.922 37.756C112.863 37.6662 112.831 37.5619 112.829 37.4549C112.829 37.335 112.865 37.218 112.934 37.1196C113.002 37.0213 113.099 36.9463 113.211 36.9049C113.302 36.8726 113.399 36.8638 113.493 36.8792C113.588 36.8946 113.677 36.9337 113.753 36.9929C113.856 37.0699 113.927 37.183 113.951 37.3097C113.966 37.3552 113.967 37.4041 113.955 37.4505V37.4505Z" fill="#263238"/>
<path d="M115.094 32.4808C115.935 32.2993 116.47 31.4705 116.288 30.6296C116.107 29.7887 115.278 29.2542 114.437 29.4357C113.596 29.6172 113.062 30.446 113.243 31.2869C113.425 32.1278 114.253 32.6623 115.094 32.4808Z" fill="#3F4A92"/>
<path d="M114.958 30.3665V31.55H114.681V30.5865H114.443V30.3665H114.958Z" fill="white"/>
<path d="M102.722 174.277H57.2389C53.866 174.277 51.1317 177.011 51.1317 180.384V183.314C51.1317 186.687 53.866 189.421 57.2389 189.421H102.722C106.095 189.421 108.829 186.687 108.829 183.314V180.384C108.829 177.011 106.095 174.277 102.722 174.277Z" fill="#03A9F4"/>
<path d="M76.0271 181.128C76.0271 181.902 75.4639 182.373 74.5355 182.373H73.6555V183.46H73.1451V179.878H74.5443C75.4639 179.878 76.0271 180.349 76.0271 181.128ZM75.5167 181.128C75.5167 180.613 75.1735 180.323 74.5179 180.323H73.6379V181.929H74.5179C75.1735 181.929 75.5167 181.638 75.5167 181.128Z" fill="white"/>
<path d="M78.8827 182.562H76.9951L76.6034 183.442H76.0755L77.6991 179.861H78.2051L79.8287 183.442H79.2919L78.8827 182.562ZM78.7023 182.153L77.9323 180.393L77.1579 182.153H78.7023Z" fill="white"/>
<path d="M81.5007 182.219V183.46H80.9947V182.21L79.5735 179.878H80.1191L81.2631 181.766L82.4159 179.878H82.9219L81.5007 182.219Z" fill="white"/>
<path d="M62.5543 120.628C62.6847 119.784 62.6469 118.923 62.4432 118.094C62.2394 117.265 61.8736 116.485 61.3669 115.797C60.8602 115.11 60.2225 114.53 59.4907 114.091C58.7588 113.651 57.9472 113.361 57.1027 113.236C57.0095 113.2 56.9075 113.192 56.8099 113.214C56.7122 113.236 56.6234 113.287 56.5548 113.359C56.4862 113.432 56.4409 113.524 56.4249 113.623C56.4088 113.722 56.4227 113.823 56.4647 113.914C56.6186 115.559 57.2901 117.113 58.3827 118.353C59.4753 119.592 60.9327 120.453 62.5455 120.813" fill="#455A64"/>
<path d="M53.4859 132.574C55.1183 135.94 57.4459 138.206 60.3719 138.316C60.9527 138.316 61.3927 137.955 61.9471 137.92C62.2714 137.994 62.5839 138.112 62.8755 138.272C63.0304 138.338 63.1958 138.375 63.3639 138.382C66.3647 138.219 68.9255 136.107 70.6503 132.574C73.0483 127.624 72.3091 122.309 68.9959 120.694C68.5599 120.477 68.1048 120.3 67.6363 120.166C67.1011 120.017 66.5459 119.951 65.9907 119.972C64.6982 120.055 63.4269 120.341 62.2243 120.822L62.0615 120.883C59.3687 119.691 57.2215 119.686 55.1315 120.694C51.8183 122.309 51.0835 127.624 53.4859 132.574Z" fill="#03A9F4"/>
<path d="M53.5431 127.562C53.3877 127.252 53.295 126.914 53.2703 126.568C53.1719 125.731 53.2729 124.882 53.565 124.092C53.8571 123.301 54.3321 122.591 54.9511 122.018C55.1924 121.769 55.4832 121.573 55.8047 121.442C55.8267 121.473 55.4967 121.688 55.0611 122.133C54.4999 122.714 54.0651 123.405 53.7841 124.162C53.5032 124.919 53.3821 125.726 53.4287 126.533C53.4727 127.171 53.5827 127.549 53.5431 127.562Z" fill="#FAFAFA"/>
<path d="M54.1502 129.912C54.0886 129.912 53.9831 129.692 53.9127 129.393C53.8423 129.094 53.8379 128.834 53.9127 128.816C53.9875 128.799 54.0798 129.036 54.1502 129.34C54.2206 129.644 54.2118 129.899 54.1502 129.912Z" fill="#FAFAFA"/>
<path d="M69.4051 112.528C69.4051 112.572 68.7803 112.809 67.8475 113.368C67.3035 113.698 66.7844 114.067 66.2943 114.472C65.7082 114.98 65.1665 115.536 64.6751 116.136C64.1796 116.741 63.7379 117.389 63.355 118.072C63.0539 118.631 62.795 119.212 62.5806 119.81C62.2154 120.839 62.1098 121.508 62.0658 121.499C62.0627 121.339 62.0804 121.179 62.1186 121.024C62.1425 120.838 62.1792 120.655 62.2286 120.474C62.2824 120.233 62.3485 119.995 62.4267 119.761C62.6205 119.143 62.8694 118.544 63.1702 117.97C63.9106 116.562 64.9284 115.318 66.1623 114.314C66.6615 113.909 67.1943 113.547 67.7551 113.232C67.9702 113.108 68.192 112.996 68.4195 112.897C68.5867 112.814 68.7586 112.741 68.9343 112.677C69.0848 112.609 69.2429 112.559 69.4051 112.528V112.528Z" fill="#263238"/>
<path d="M110.153 66.4817C107.465 62.7329 101.758 60.1633 97.1207 60.8541C93.3631 61.4129 90.0367 63.1597 88.2151 66.8909C88.094 67.1345 88.0333 67.4037 88.038 67.6757C88.0427 67.9478 88.1127 68.2147 88.2421 68.454C88.3714 68.6934 88.5564 68.8981 88.7814 69.0511C89.0065 69.204 89.2649 69.3006 89.5351 69.3329C95.7959 70.0802 102.125 70.0595 108.38 69.2713C109.348 69.1481 110.492 68.8796 110.558 67.6873C110.564 67.251 110.422 66.8258 110.153 66.4817Z" fill="#03A9F4"/>
<path d="M95.3079 66.2968C95.2859 66.2968 95.0923 66.1252 94.8371 65.7732C94.4971 65.3073 94.2546 64.7775 94.1243 64.2156C94.0142 63.6565 93.967 63.0869 93.9835 62.5172C93.9667 62.281 93.986 62.0437 94.0407 61.8132C94.1153 62.0373 94.151 62.2724 94.1463 62.5084C94.1776 63.0637 94.2452 63.6164 94.3487 64.1628C94.4754 64.7001 94.6863 65.2139 94.9735 65.6852C95.1107 65.8739 95.2231 66.0795 95.3079 66.2968V66.2968Z" fill="#263238"/>
<path d="M99.2943 66.1121C99.2239 66.1121 99.3207 65.0473 99.1843 63.7537C99.0479 62.4601 98.7443 61.4437 98.8015 61.4217C99.1573 62.1414 99.3639 62.9256 99.4087 63.7273C99.5293 64.5219 99.4904 65.3326 99.2943 66.1121Z" fill="#263238"/>
<path d="M103.395 65.5049C103.333 65.4785 103.641 64.7657 103.716 63.8329C103.791 62.9001 103.619 62.1477 103.685 62.1345C103.907 62.6793 103.996 63.2687 103.945 63.8545C103.895 64.4404 103.706 65.0059 103.395 65.5049V65.5049Z" fill="#263238"/>
<g opacity="0.3">
<path opacity="0.3" d="M98.5551 61.0477L98.5892 61.1143L98.5551 61.0477Z" fill="black"/>
</g>
<g opacity="0.3">
<path opacity="0.3" d="M98.5947 61.0961C98.1838 61.849 98.0261 62.7141 98.145 63.5636C98.2638 64.413 98.6529 65.2016 99.2547 65.8129C99.644 64.2139 99.4079 62.5267 98.5947 61.0961V61.0961Z" fill="black"/>
</g>
<g opacity="0.3">
<path opacity="0.3" d="M94.6768 65.7716C94.2501 64.9975 93.995 64.1406 93.9288 63.2592C93.9335 62.87 93.877 62.4825 93.7616 62.1108C93.2989 62.6864 93.071 63.4157 93.1236 64.1524C93.1862 64.9264 93.5495 65.645 94.1356 66.1544C94.2232 66.2362 94.3286 66.2965 94.4436 66.3304C94.5016 66.3445 94.5625 66.3408 94.6183 66.3195C94.6741 66.2983 94.7221 66.2607 94.756 66.2116C94.8352 66.0752 94.756 65.908 94.6768 65.7716Z" fill="black"/>
</g>
<g opacity="0.3">
<path opacity="0.3" d="M103.679 62.6168C103.664 62.463 103.619 62.3136 103.547 62.1768C103.51 62.1103 103.455 62.0558 103.388 62.0199C103.321 61.984 103.245 61.9682 103.169 61.9744C102.962 62.0096 102.861 62.2428 102.799 62.4452C102.453 63.3134 102.348 64.259 102.496 65.182C102.544 65.3888 102.68 65.622 102.896 65.622C103.112 65.622 103.169 65.446 103.244 65.3008C103.666 64.4736 103.818 63.535 103.679 62.6168V62.6168Z" fill="black"/>
</g>
<path d="M52.5663 90.6553V91.0689H52.2627V90.6597C51.9377 90.6515 51.6229 90.544 51.3607 90.3517L51.5235 89.9821C51.7397 90.1407 51.9955 90.2367 52.2627 90.2593V89.5245C51.8535 89.4233 51.4135 89.2913 51.4135 88.7765C51.4135 88.4025 51.6863 88.0725 52.2627 88.0197V87.5797H52.5663V87.9889C52.8302 88.0017 53.0869 88.0787 53.3143 88.2133L53.1603 88.5873C52.9784 88.4803 52.776 88.4129 52.5663 88.3893V89.1329C52.9755 89.2297 53.4199 89.3617 53.4199 89.8721C53.4199 90.2725 53.1427 90.5937 52.5663 90.6553ZM52.2627 89.0757V88.4201C52.0031 88.4597 51.8887 88.5961 51.8887 88.7545C51.8887 88.9129 52.0471 89.0141 52.2627 89.0757ZM52.9491 89.9293C52.9491 89.7489 52.7863 89.6609 52.5663 89.5993V90.2505C52.8347 90.2109 52.9491 90.0877 52.9491 89.9293Z" fill="#263238"/>
<path d="M55.6243 88.046V90.6245H55.1447V88.4464H54.5991V88.046H55.6243Z" fill="#263238"/>
<path d="M56.7243 90.3429C56.7181 90.4544 56.6897 90.5636 56.6407 90.6641L56.4515 91.1833H56.1523L56.3019 90.6157C56.2485 90.5937 56.2032 90.5557 56.1724 90.5068C56.1416 90.4578 56.1269 90.4005 56.1303 90.3429C56.1252 90.3008 56.129 90.2582 56.1416 90.2177C56.1542 90.1773 56.1752 90.14 56.2033 90.1083C56.2314 90.0766 56.2659 90.0512 56.3045 90.0338C56.3431 90.0164 56.385 90.0074 56.4273 90.0074C56.4697 90.0074 56.5115 90.0164 56.5502 90.0338C56.5888 90.0512 56.6233 90.0766 56.6513 90.1083C56.6794 90.14 56.7004 90.1773 56.713 90.2177C56.7256 90.2582 56.7295 90.3008 56.7243 90.3429V90.3429Z" fill="#263238"/>
<path d="M58.9111 89.8324C58.9111 90.2724 58.5855 90.664 57.8903 90.664C57.5441 90.6695 57.2051 90.5647 56.9223 90.3648L57.1247 89.9908C57.3427 90.1588 57.6107 90.2487 57.8859 90.246C58.2247 90.246 58.4315 90.0964 58.4315 89.85C58.4315 89.6036 58.2687 89.4496 57.7363 89.4496H57.1159L57.2479 88.046H58.7615V88.4464H57.6351L57.5779 89.0448H57.8243C58.6075 89.0448 58.9111 89.3748 58.9111 89.8324Z" fill="#263238"/>
<path d="M59.1882 89.3353C59.1882 88.4861 59.6546 88.0153 60.2662 88.0153C60.8778 88.0153 61.3442 88.4949 61.3442 89.3353C61.3442 90.1757 60.8822 90.6553 60.2662 90.6553C59.6502 90.6553 59.1882 90.1845 59.1882 89.3353ZM60.8646 89.3353C60.8646 88.7105 60.6182 88.4245 60.2662 88.4245C59.9142 88.4245 59.6722 88.7105 59.6722 89.3353C59.6722 89.9601 59.9142 90.2461 60.2662 90.2461C60.6182 90.2461 60.8646 89.9557 60.8646 89.3353Z" fill="#263238"/>
<path d="M72.0099 93.9113C72.0099 93.9773 67.2799 94.0257 61.4499 94.0257C55.6199 94.0257 50.8899 93.9773 50.8899 93.9113C50.8899 93.8453 55.6199 93.7969 61.4499 93.7969C67.2799 93.7969 72.0099 93.8497 72.0099 93.9113Z" fill="#263238"/>
<path d="M60.7151 95.6317C60.7151 95.6977 58.5151 95.746 55.8091 95.746C53.1031 95.746 50.8987 95.6977 50.8987 95.6317C50.8987 95.5657 53.0987 95.5173 55.8091 95.5173C58.5195 95.5173 60.7151 95.5701 60.7151 95.6317Z" fill="#263238"/>
<path d="M89.6011 80.1041V80.5177H89.3151V80.1085C88.9985 80.0951 88.6926 79.9896 88.4351 79.8049L88.5979 79.4309C88.8122 79.5937 89.0688 79.6914 89.3371 79.7125V78.9733C88.9279 78.8765 88.4879 78.7401 88.4879 78.2297C88.4879 77.8557 88.7607 77.5257 89.3371 77.4685V77.0549H89.6407V77.4641C89.9052 77.4734 90.1628 77.5506 90.3887 77.6885L90.2347 78.0581C90.0528 77.9511 89.8504 77.8837 89.6407 77.8601V78.6037C90.0499 78.7049 90.4943 78.8325 90.4943 79.3473C90.4547 79.7213 90.1951 80.0469 89.6011 80.1041ZM89.2975 78.5289V77.8733C89.0335 77.9129 88.9235 78.0449 88.9235 78.2077C88.9235 78.3705 89.0819 78.4673 89.3151 78.5289H89.2975ZM89.9839 79.3781C89.9839 79.1977 89.8211 79.1141 89.6011 79.0525V79.7037C89.8695 79.6641 89.9839 79.5277 89.9839 79.3781Z" fill="#263238"/>
<path d="M93.6358 79.6729V80.0777H91.7306V79.7565L92.7558 78.7841C93.0066 78.5421 93.0506 78.3925 93.0506 78.2473C93.0506 78.0141 92.8878 77.8777 92.571 77.8777C92.4565 77.8716 92.3422 77.8928 92.2374 77.9394C92.1326 77.9861 92.0404 78.0569 91.9682 78.1461L91.6338 77.8865C91.7508 77.7418 91.9002 77.6265 92.0698 77.5501C92.2395 77.4737 92.4247 77.4382 92.6106 77.4465C93.1738 77.4465 93.5346 77.7281 93.5346 78.1857C93.5295 78.3462 93.4871 78.5033 93.4108 78.6446C93.3344 78.7859 93.2262 78.9075 93.0946 78.9997L92.4038 79.6597L93.6358 79.6729Z" fill="#263238"/>
<path d="M94.5379 79.7961C94.531 79.9061 94.5026 80.0137 94.4543 80.1129L94.2651 80.632H93.9659L94.1155 80.0689C94.0616 80.0471 94.0157 80.0092 93.9842 79.9604C93.9527 79.9115 93.9371 79.8541 93.9395 79.7961C93.9395 79.7167 93.971 79.6406 94.0271 79.5845C94.0832 79.5284 94.1593 79.4969 94.2387 79.4969C94.318 79.4969 94.3942 79.5284 94.4503 79.5845C94.5064 79.6406 94.5379 79.7167 94.5379 79.7961Z" fill="#263238"/>
<path d="M96.7555 79.6729V80.0777H94.8503V79.7565L95.8755 78.7841C96.1263 78.5421 96.1703 78.3925 96.1703 78.2473C96.1703 78.0141 96.0075 77.8777 95.6907 77.8777C95.5761 77.8716 95.4618 77.8928 95.357 77.9394C95.2522 77.9861 95.16 78.0569 95.0879 78.1461L94.7535 77.8865C94.8709 77.7411 95.021 77.6255 95.1914 77.5491C95.3619 77.4726 95.548 77.4375 95.7347 77.4465C96.2935 77.4465 96.6543 77.7281 96.6543 78.1857C96.6492 78.3462 96.6068 78.5033 96.5304 78.6446C96.454 78.7859 96.3458 78.9075 96.2143 78.9997L95.5235 79.6597L96.7555 79.6729Z" fill="#263238"/>
<path d="M98.9071 79.2857C98.9071 79.7257 98.5815 80.1129 97.8863 80.1129C97.5398 80.1202 97.2002 80.0152 96.9183 79.8137L97.1206 79.4441C97.3378 79.6098 97.6043 79.6981 97.8775 79.6949C98.2207 79.6949 98.4231 79.5453 98.4231 79.3033C98.4231 79.0613 98.2647 78.8985 97.7323 78.8985H97.1074L97.2439 77.4949H98.7575V77.8997H97.6487L97.5915 78.4937H97.8379C98.6035 78.4937 98.9071 78.8281 98.9071 79.2857Z" fill="#263238"/>
<path d="M109.045 83.3645C109.045 83.4261 104.315 83.4789 98.4847 83.4789C92.6547 83.4789 87.9247 83.4261 87.9247 83.3645C87.9247 83.3029 92.6591 83.2501 98.4847 83.2501C104.31 83.2501 109.045 83.3029 109.045 83.3645Z" fill="#263238"/>
<path d="M97.7587 85.0849C97.7587 85.1465 95.5587 85.1993 92.8483 85.1993C90.1379 85.1993 87.9423 85.1465 87.9423 85.0849C87.9423 85.0233 90.1423 84.9705 92.8483 84.9705C95.5543 84.9705 97.7587 85.0233 97.7587 85.0849Z" fill="#263238"/>
<path d="M51.7215 144.208V144.621H51.4179V144.208C51.093 144.199 50.7784 144.091 50.5159 143.9L50.6831 143.53C50.8965 143.691 51.1515 143.787 51.4179 143.807V143.072C51.0087 142.971 50.5731 142.839 50.5731 142.329C50.5731 141.95 50.8459 141.625 51.4179 141.568V141.15H51.7215V141.568C51.9853 141.581 52.2421 141.658 52.4695 141.792L52.3199 142.166C52.1361 142.06 51.9324 141.992 51.7215 141.968V142.712C52.1307 142.813 52.5751 142.94 52.5751 143.451C52.5751 143.82 52.3023 144.146 51.7215 144.208ZM51.4179 142.628V141.972C51.1583 142.016 51.0483 142.148 51.0483 142.311C51.0483 142.474 51.2067 142.562 51.4179 142.624V142.628ZM52.1043 143.482C52.1043 143.301 51.9415 143.218 51.7215 143.152V143.807C51.9899 143.768 52.1043 143.636 52.1043 143.477V143.482Z" fill="#263238"/>
<path d="M53.8863 142.888C53.8863 142.038 54.3527 141.568 54.9643 141.568C55.5759 141.568 56.0423 142.043 56.0423 142.888C56.0423 143.732 55.5803 144.208 54.9643 144.208C54.3483 144.208 53.8863 143.732 53.8863 142.888ZM55.5627 142.888C55.5627 142.267 55.3163 141.977 54.9643 141.977C54.6123 141.977 54.3703 142.267 54.3703 142.888C54.3703 143.508 54.6123 143.798 54.9643 143.798C55.3163 143.798 55.5627 143.508 55.5627 142.888Z" fill="#263238"/>
<path d="M56.9135 143.895C56.9066 144.005 56.8782 144.113 56.8299 144.212L56.6407 144.731H56.3459L56.4911 144.168C56.4384 144.145 56.3938 144.107 56.3632 144.058C56.3326 144.009 56.3174 143.953 56.3195 143.895C56.3144 143.853 56.3182 143.811 56.3308 143.77C56.3434 143.73 56.3644 143.692 56.3925 143.661C56.4206 143.629 56.4551 143.604 56.4937 143.586C56.5323 143.569 56.5741 143.56 56.6165 143.56C56.6588 143.56 56.7007 143.569 56.7393 143.586C56.778 143.604 56.8124 143.629 56.8405 143.661C56.8686 143.692 56.8896 143.73 56.9022 143.77C56.9148 143.811 56.9186 143.853 56.9135 143.895V143.895Z" fill="#263238"/>
<path d="M59.1003 143.38C59.1003 143.82 58.7747 144.212 58.0795 144.212C57.733 144.219 57.3934 144.114 57.1115 143.913L57.3139 143.539C57.5305 143.706 57.797 143.796 58.0707 143.794C58.4139 143.794 58.6163 143.644 58.6163 143.398C58.6163 143.152 58.4579 142.998 57.9255 142.998H57.3007L57.4371 141.594H58.9551V142.008H57.8463L57.7891 142.606H58.0355C58.7967 142.593 59.1003 142.923 59.1003 143.38Z" fill="#263238"/>
<path d="M59.3951 142.888C59.3951 142.038 59.8615 141.568 60.4731 141.568C61.0847 141.568 61.5511 142.043 61.5511 142.888C61.5511 143.732 61.0891 144.208 60.4731 144.208C59.8571 144.208 59.3951 143.732 59.3951 142.888ZM61.0715 142.888C61.0715 142.267 60.8251 141.977 60.4731 141.977C60.1211 141.977 59.8791 142.267 59.8791 142.888C59.8791 143.508 60.1211 143.798 60.4731 143.798C60.8251 143.798 61.0539 143.508 61.0539 142.888H61.0715Z" fill="#263238"/>
<path d="M71.1695 147.464C71.1695 147.525 66.4351 147.578 60.6095 147.578C54.7839 147.578 50.0495 147.525 50.0495 147.464C50.0495 147.402 54.7795 147.349 60.6095 147.349C66.4395 147.349 71.1695 147.398 71.1695 147.464Z" fill="#263238"/>
<path d="M59.8791 149.184C59.8791 149.246 57.6791 149.298 54.9731 149.298C52.2671 149.298 50.0671 149.246 50.0671 149.184C50.0671 149.122 52.2671 149.07 54.9731 149.07C57.6791 149.07 59.8791 149.118 59.8791 149.184Z" fill="#263238"/>
<path d="M87.8851 130.242V130.656H87.5859V130.246C87.2595 130.238 86.9434 130.131 86.6795 129.938L86.8467 129.569C87.0615 129.73 87.3181 129.826 87.5859 129.846V129.111C87.1767 129.01 86.7367 128.878 86.7367 128.368C86.7367 127.989 87.0095 127.664 87.5859 127.606V127.188H87.8851V127.598C88.149 127.61 88.4057 127.688 88.6331 127.822L88.4835 128.196C88.3 128.089 88.0962 128.022 87.8851 127.998V128.742C88.2943 128.843 88.7387 128.97 88.7387 129.481C88.7387 129.859 88.4659 130.185 87.8851 130.242ZM87.5859 128.662V128.007C87.3219 128.051 87.2119 128.183 87.2119 128.346C87.2119 128.508 87.3703 128.601 87.5859 128.662ZM88.2679 129.516C88.2679 129.336 88.1051 129.252 87.8851 129.186V129.842C88.1535 129.798 88.2679 129.688 88.2679 129.516Z" fill="#263238"/>
<path d="M90.9431 127.633V130.211H90.4635V128.033H89.9179V127.633H90.9431Z" fill="#263238"/>
<path d="M92.0475 129.934C92.0405 130.044 92.0121 130.152 91.9639 130.251L91.7747 130.77H91.4755L91.6207 130.207C91.568 130.184 91.5234 130.146 91.4928 130.097C91.4622 130.048 91.447 129.992 91.4491 129.934C91.4491 129.855 91.4806 129.779 91.5367 129.723C91.5928 129.666 91.6689 129.635 91.7483 129.635C91.8276 129.635 91.9037 129.666 91.9598 129.723C92.0159 129.779 92.0475 129.855 92.0475 129.934V129.934Z" fill="#263238"/>
<path d="M92.3115 128.922C92.3115 128.073 92.7779 127.602 93.3895 127.602C94.0011 127.602 94.4675 128.077 94.4675 128.922C94.4675 129.767 94.0275 130.242 93.3895 130.242C92.7515 130.242 92.3115 129.771 92.3115 128.922ZM93.9879 128.922C93.9879 128.302 93.7415 128.011 93.3895 128.011C93.0375 128.011 92.7955 128.302 92.7955 128.922C92.7955 129.542 93.0375 129.833 93.3895 129.833C93.7415 129.833 93.9879 129.547 93.9879 128.922Z" fill="#263238"/>
<path d="M94.7931 128.922C94.7931 128.073 95.2595 127.602 95.8711 127.602C96.4827 127.602 96.9491 128.077 96.9491 128.922C96.9491 129.767 96.4871 130.242 95.8711 130.242C95.2551 130.242 94.7931 129.771 94.7931 128.922ZM96.4695 128.922C96.4695 128.302 96.2231 128.011 95.8711 128.011C95.5191 128.011 95.2771 128.302 95.2771 128.922C95.2771 129.542 95.5191 129.833 95.8711 129.833C96.2231 129.833 96.4695 129.547 96.4695 128.922Z" fill="#263238"/>
<path d="M107.355 133.502C107.355 133.564 102.621 133.617 96.7951 133.617C90.9695 133.617 86.2351 133.564 86.2351 133.502C86.2351 133.441 90.9651 133.384 96.7951 133.384C102.625 133.384 107.355 133.436 107.355 133.502Z" fill="#263238"/>
<path d="M96.0427 135.223C96.0427 135.284 93.8427 135.337 91.1367 135.337C88.4307 135.337 86.2307 135.284 86.2307 135.223C86.2307 135.161 88.4307 135.104 91.1367 135.104C93.8427 135.104 96.0427 135.157 96.0427 135.223Z" fill="#263238"/>
<path d="M91.4095 34.8809C91.4095 34.9425 86.3099 34.9953 80.0223 34.9953C73.7347 34.9953 68.6307 34.9425 68.6307 34.8809C68.6307 34.8193 73.7303 34.7664 80.0223 34.7664C86.3143 34.7664 91.4095 34.8149 91.4095 34.8809Z" fill="#3F4A92"/>
<path d="M144.076 118.228C141.106 110.471 136.059 96.5891 131.664 84.6959C127.268 72.8027 123.282 62.0447 120.351 54.2699C118.886 50.3935 117.711 47.2299 116.871 45.0695C116.466 43.9871 116.145 43.1467 115.929 42.5659C115.824 42.2843 115.745 42.0687 115.687 41.9103C115.63 41.7519 115.613 41.6859 115.613 41.6859C115.613 41.6859 115.648 41.7563 115.709 41.9015L115.973 42.5483L116.959 45.0343C117.808 47.1947 119.023 50.3143 120.505 54.2127C123.475 61.9699 127.488 72.7235 131.884 84.6167C136.279 96.5099 141.3 110.396 144.23 118.171" fill="#E0E0E0"/>
<path d="M115.041 65.6703C115.215 65.7232 115.383 65.794 115.542 65.8815C115.859 66.0267 116.312 66.2511 116.862 66.5327C117.971 67.1003 119.502 67.9275 121.148 68.8647L125.381 71.2847L126.665 72.0107C126.822 72.0884 126.969 72.1828 127.105 72.2923C126.931 72.2457 126.762 72.1777 126.604 72.0899C126.287 71.9447 125.834 71.7203 125.284 71.4299C124.175 70.8491 122.67 70.0087 121.016 69.0671L116.774 66.6779L115.485 65.9607C115.325 65.884 115.175 65.7863 115.041 65.6703V65.6703Z" fill="#E0E0E0"/>
<path d="M127.704 71.8787C127.647 71.8479 129.209 68.6491 131.189 64.7287C133.169 60.8083 134.828 57.6579 134.885 57.6887C134.942 57.7195 133.38 60.9183 131.4 64.8387C129.42 68.7591 127.774 71.9051 127.704 71.8787Z" fill="#E0E0E0"/>
<path d="M133.631 90.4467C133.731 90.2857 133.85 90.1379 133.987 90.0067L135.017 88.9067C135.897 87.9739 137.08 86.7067 138.343 85.2107C139.606 83.7147 140.715 82.3683 141.502 81.3695L142.439 80.1859C142.547 80.0345 142.669 79.8944 142.805 79.7679C142.725 79.9345 142.627 80.0923 142.514 80.2387C142.312 80.5335 142.017 80.9559 141.634 81.4707C140.877 82.4959 139.795 83.8863 138.523 85.3647C137.252 86.8431 136.037 88.1191 135.135 89.0211C134.695 89.4611 134.317 89.8307 134.053 90.0727C133.925 90.2109 133.783 90.3362 133.631 90.4467V90.4467Z" fill="#E0E0E0"/>
<path d="M120.937 87.3535C121.109 87.3547 121.281 87.3783 121.447 87.4239L122.815 87.7011C123.964 87.9431 125.552 88.2951 127.303 88.6999C129.055 89.1047 130.639 89.4787 131.778 89.7647L133.129 90.1123C133.297 90.1467 133.461 90.1998 133.617 90.2707C133.446 90.2696 133.276 90.2459 133.111 90.2003L131.734 89.9451C130.581 89.7031 128.993 89.3511 127.242 88.9463C125.491 88.5415 123.911 88.1675 122.767 87.8815L121.416 87.5339C121.25 87.4933 121.089 87.4328 120.937 87.3535V87.3535Z" fill="#E0E0E0"/>
<path d="M124.087 104.408C124.305 104.423 124.521 104.455 124.734 104.505L126.494 104.852C127.972 105.156 130.014 105.591 132.258 106.089C134.502 106.586 136.543 107.043 138.009 107.387L139.769 107.827C139.985 107.87 140.197 107.931 140.402 108.011C140.182 108.002 139.964 107.97 139.751 107.915L137.991 107.567C136.513 107.263 134.471 106.828 132.227 106.331C129.983 105.833 127.924 105.345 126.454 105.015L124.694 104.575C124.487 104.54 124.283 104.484 124.087 104.408V104.408Z" fill="#E0E0E0"/>
<path d="M140.011 107.8C140.14 107.603 140.287 107.419 140.451 107.25L141.705 105.807C142.765 104.584 144.217 102.894 145.775 100.967C147.332 99.0399 148.696 97.2887 149.673 96.0039L150.835 94.4815C150.966 94.2888 151.113 94.1077 151.275 93.9403C151.169 94.1486 151.045 94.3474 150.905 94.5343C150.65 94.9127 150.276 95.4495 149.801 96.1051C148.855 97.4251 147.508 99.1851 145.951 101.117C144.393 103.048 142.915 104.707 141.823 105.904C141.278 106.498 140.829 106.977 140.503 107.299C140.352 107.478 140.187 107.646 140.011 107.8V107.8Z" fill="#E0E0E0"/>
<path d="M112.198 166.527C111.518 166.555 110.866 166.81 110.347 167.252C109.829 167.694 109.474 168.297 109.338 168.965C109.052 170.038 108.828 171.126 108.665 172.225C108.665 172.225 106.082 174.548 108.665 175.169C111.248 175.789 112.185 172.309 112.185 172.309L112.581 166.509L112.198 166.527Z" fill="#FFBE9D"/>
<path d="M138.061 122.065C138.061 122.065 146.131 94.9655 146.954 93.7995C148.309 91.8679 161.373 86.0599 161.373 86.0599L164.893 78.9143L186.589 75.4251L191.97 82.3507L207.093 93.4651L206.037 131.798L205.474 158.563L208.338 191.977L139.654 191.849L142.761 184.809L146.021 124.036L138.061 122.065Z" fill="#03A9F4"/>
<path d="M147.367 118.409C147.347 118.337 147.339 118.263 147.341 118.189C147.341 118.017 147.341 117.81 147.306 117.559C147.306 117.014 147.257 116.239 147.24 115.249C147.205 113.296 147.205 110.599 147.288 107.62C147.372 104.641 147.53 101.948 147.68 99.9991C147.75 99.0267 147.821 98.2391 147.878 97.6979L147.944 97.0731C147.951 97.0002 147.964 96.928 147.983 96.8575C147.996 96.9303 147.996 97.0047 147.983 97.0775C147.983 97.2447 147.983 97.4515 147.957 97.7023C147.926 98.2831 147.882 99.0619 147.829 100.012C147.724 101.961 147.592 104.65 147.508 107.629C147.425 110.607 147.398 113.296 147.394 115.249C147.394 116.2 147.394 116.979 147.394 117.559C147.394 117.81 147.394 117.999 147.394 118.189C147.396 118.263 147.387 118.337 147.367 118.409V118.409Z" fill="#263238"/>
<g opacity="0.3">
<path opacity="0.3" d="M162.926 110.625C162.909 110.322 162.998 110.022 163.177 109.776C163.478 109.407 163.891 109.145 164.354 109.031C164.816 108.917 165.303 108.956 165.742 109.142C166.89 109.692 167.462 111.012 167.695 112.266C167.946 113.639 167.911 115.056 168.171 116.429C168.43 117.801 169.051 119.201 170.261 119.909C171.752 120.789 173.71 120.393 175.277 121.132C177.609 122.228 178.15 125.259 178.269 127.838C178.489 132.717 178.269 137.601 178.066 142.481L176.72 173.642L175.492 189.275L169.174 191.959L160.814 137.025L162.926 110.625Z" fill="black"/>
</g>
<path d="M164.734 106.172C164.687 106.213 164.631 106.243 164.572 106.26C164.4 106.322 164.215 106.34 164.035 106.313C163.704 106.255 163.396 106.107 163.143 105.886C162.89 105.665 162.703 105.379 162.6 105.059C162.465 104.621 162.421 104.16 162.473 103.704C162.531 103.194 162.616 102.687 162.728 102.186C162.939 101.121 163.168 99.9595 163.414 98.7407C163.907 96.2987 164.365 94.0899 164.708 92.4927L165.148 90.6051C165.191 90.372 165.251 90.1426 165.328 89.9187C165.319 90.1557 165.288 90.3914 165.236 90.6227C165.144 91.1111 165.029 91.7535 164.888 92.5279C164.585 94.1295 164.149 96.3427 163.656 98.7847C163.406 100.003 163.168 101.165 162.952 102.226C162.737 103.286 162.512 104.245 162.772 105.011C162.861 105.31 163.027 105.579 163.254 105.793C163.482 106.006 163.762 106.155 164.066 106.225C164.29 106.257 164.518 106.239 164.734 106.172V106.172Z" fill="#263238"/>
<path d="M166.961 95.9775C166.961 95.9995 166.78 95.9995 166.481 96.0919C166.061 96.2306 165.692 96.491 165.421 96.8399C165.217 97.0876 165.079 97.3835 165.022 97.6994C164.965 98.0152 164.99 98.3405 165.095 98.6439C165.21 99.0204 165.436 99.3535 165.743 99.6001C166.049 99.8467 166.423 99.9953 166.816 100.027C167.208 100.058 167.601 99.9705 167.943 99.7757C168.285 99.5809 168.561 99.2877 168.734 98.9343C168.885 98.6518 168.962 98.335 168.956 98.0145C168.949 97.694 168.861 97.3804 168.699 97.1039C168.487 96.7153 168.164 96.3994 167.77 96.1975C167.489 96.0567 167.33 96.0303 167.33 96.0083C167.33 95.9863 167.374 96.0083 167.458 96.0083C167.582 96.025 167.704 96.0591 167.819 96.1095C168.252 96.2918 168.615 96.6098 168.853 97.0159C169.021 97.2961 169.125 97.6102 169.156 97.9355C169.191 98.3129 169.114 98.6922 168.936 99.0267C168.748 99.4221 168.443 99.7509 168.064 99.9697C167.684 100.188 167.247 100.287 166.811 100.252C166.374 100.217 165.958 100.051 165.618 99.7747C165.278 99.4986 165.03 99.1257 164.906 98.7055C164.782 98.3468 164.767 97.9596 164.862 97.5923C164.964 97.2084 165.166 96.8586 165.449 96.5793C165.731 96.3 166.083 96.1013 166.468 96.0039C166.59 95.9714 166.716 95.9566 166.842 95.9599C166.882 95.9587 166.922 95.9647 166.961 95.9775V95.9775Z" fill="#263238"/>
<path d="M174.348 123.992L134.678 116.811L116.158 120.877L157.597 128.335L174.348 123.992Z" fill="#0099FF"/>
<g opacity="0.6">
<path opacity="0.6" d="M174.348 123.992L134.678 116.811L116.158 120.877L157.597 128.335L174.348 123.992Z" fill="black"/>
</g>
<path d="M148.982 141.293C149.519 133.98 151.525 115.408 153.03 108.231C153.47 106.084 153.998 103.889 155.23 102.071C156.462 100.254 158.636 98.9255 160.801 99.2599C162.737 99.5591 164.294 101.13 165.078 102.925C165.843 104.741 166.184 106.708 166.076 108.676C165.702 117.546 164.937 127.481 164.946 135.705" fill="#F39D0B"/>
<path d="M162.415 123.878C161.934 124.059 161.443 124.214 160.946 124.344C158.578 125.076 156.312 126.103 154.201 127.402C153.775 127.692 153.334 127.96 152.881 128.203C152.881 128.203 152.982 128.093 153.193 127.926C153.404 127.759 153.717 127.534 154.113 127.266C155.152 126.576 156.246 125.969 157.382 125.453C158.519 124.936 159.696 124.514 160.902 124.19C161.364 124.067 161.742 123.979 162.002 123.931C162.137 123.895 162.276 123.877 162.415 123.878Z" fill="#263238"/>
<path d="M163.076 115.439C163.076 115.474 162.482 115.606 161.531 115.901C159.05 116.663 156.733 117.881 154.698 119.491C153.919 120.107 153.466 120.529 153.439 120.503C153.522 120.382 153.618 120.272 153.725 120.173C153.919 119.971 154.214 119.693 154.605 119.368C155.601 118.516 156.689 117.778 157.848 117.168C159.008 116.559 160.231 116.079 161.496 115.738C161.877 115.631 162.263 115.545 162.653 115.478C162.791 115.443 162.934 115.43 163.076 115.439Z" fill="#263238"/>
<path d="M162.187 108.645C162.187 108.685 161.716 108.707 160.972 108.843C160.005 109.022 159.068 109.335 158.187 109.771C157.308 110.213 156.494 110.772 155.767 111.435C155.208 111.945 154.887 112.315 154.887 112.284C154.887 112.253 154.94 112.174 155.068 112.002C155.248 111.759 155.447 111.53 155.662 111.316C157.085 109.882 158.94 108.955 160.942 108.676C161.242 108.634 161.545 108.614 161.848 108.614C162.068 108.619 162.182 108.627 162.187 108.645Z" fill="#263238"/>
<path d="M157.254 129.8C157.252 129.813 157.252 129.827 157.254 129.84V155.228C157.254 156.341 156.374 157.489 154.707 158.361C153.039 159.232 150.659 159.826 147.667 159.83H147.627C141.621 159.83 138.031 157.459 138.031 155.228V129.84C138.032 129.827 138.032 129.813 138.031 129.8C138.031 129.8 138.031 129.769 138.031 129.752C138.031 127.27 139.865 124.679 141.705 122.118C142.937 120.411 143.231 117.947 143.289 116.503C143.289 116.327 143.289 116.174 143.289 116.033H143.121C142.947 116.048 142.771 116.028 142.604 115.974C142.437 115.92 142.282 115.833 142.149 115.719C142.016 115.605 141.907 115.465 141.828 115.308C141.75 115.151 141.703 114.98 141.691 114.805V113.731C141.702 113.556 141.748 113.384 141.826 113.226C141.904 113.068 142.013 112.927 142.146 112.812C142.279 112.697 142.434 112.609 142.602 112.555C142.769 112.5 142.946 112.48 143.121 112.495H152.142C152.41 112.486 152.675 112.552 152.908 112.685C153.141 112.818 153.332 113.012 153.462 113.247C153.534 113.399 153.571 113.564 153.572 113.731V114.805C153.56 114.981 153.513 115.152 153.435 115.309C153.356 115.467 153.246 115.606 153.113 115.721C152.979 115.835 152.824 115.922 152.656 115.975C152.489 116.029 152.312 116.048 152.137 116.033H151.974C151.974 116.174 151.974 116.327 151.974 116.503C152.032 117.947 152.326 120.411 153.563 122.118C155.398 124.679 157.224 127.27 157.237 129.752C157.254 129.769 157.254 129.791 157.254 129.8Z" fill="#FAFAFA"/>
<path d="M157.254 129.8C157.26 129.714 157.26 129.627 157.254 129.541C157.238 129.287 157.207 129.034 157.162 128.784C156.951 127.818 156.596 126.89 156.11 126.029C155.329 124.663 154.462 123.348 153.514 122.091C152.954 121.262 152.554 120.336 152.335 119.359C152.074 118.271 151.938 117.156 151.93 116.037V115.958H152.01C152.343 115.98 152.676 115.902 152.964 115.733C153.109 115.649 153.234 115.535 153.33 115.397C153.426 115.259 153.49 115.102 153.519 114.937C153.519 114.598 153.519 114.215 153.519 113.85C153.534 113.674 153.506 113.497 153.438 113.334C153.37 113.17 153.263 113.026 153.127 112.913C152.84 112.68 152.476 112.561 152.106 112.579H148.454H143.258C143.045 112.56 142.83 112.587 142.628 112.658C142.426 112.73 142.242 112.844 142.088 112.992C141.941 113.145 141.843 113.338 141.806 113.547C141.795 113.771 141.795 113.996 141.806 114.22C141.806 114.444 141.806 114.699 141.806 114.906C141.837 115.12 141.932 115.32 142.079 115.478C142.236 115.638 142.427 115.761 142.638 115.837C142.849 115.913 143.074 115.941 143.298 115.918H143.403V116.028C143.396 117.064 143.284 118.096 143.069 119.108C142.855 120.162 142.443 121.165 141.854 122.065C141.234 122.945 140.596 123.825 140.006 124.758C139.396 125.685 138.894 126.678 138.51 127.719C138.324 128.248 138.204 128.798 138.154 129.356C138.123 129.906 138.154 130.495 138.154 131.067V141.759C138.154 146.032 138.154 150.207 138.154 154.238C138.13 154.73 138.154 155.224 138.224 155.712C138.348 156.176 138.585 156.603 138.915 156.953C139.578 157.658 140.384 158.214 141.278 158.585C142.156 158.953 143.07 159.225 144.006 159.399C144.922 159.572 145.85 159.677 146.782 159.711C148.577 159.803 150.376 159.638 152.124 159.223C152.959 159.019 153.769 158.724 154.54 158.343C155.285 157.988 155.953 157.486 156.502 156.869C156.759 156.566 156.954 156.217 157.078 155.839C157.171 155.458 157.203 155.065 157.175 154.673V152.333C157.175 150.806 157.175 149.336 157.175 147.933C157.175 142.336 157.201 137.813 157.21 134.662C157.219 131.512 157.25 129.796 157.25 129.796C157.263 129.903 157.263 130.01 157.25 130.117C157.25 130.337 157.25 130.649 157.25 131.054C157.25 131.886 157.25 133.1 157.25 134.662C157.25 137.804 157.25 142.336 157.285 147.933C157.285 149.332 157.285 150.801 157.285 152.333V155.272C157.279 155.482 157.247 155.69 157.188 155.892C157.059 156.294 156.851 156.667 156.577 156.988C156.014 157.628 155.327 158.148 154.557 158.515C153.775 158.896 152.953 159.191 152.106 159.395C150.361 159.813 148.566 159.984 146.774 159.905C145.831 159.872 144.893 159.768 143.966 159.593C143.014 159.415 142.084 159.138 141.19 158.765C140.264 158.392 139.429 157.824 138.744 157.098C138.389 156.727 138.133 156.273 138 155.778C137.921 155.273 137.895 154.761 137.921 154.251V131.076C137.921 130.495 137.921 129.932 137.921 129.347C137.974 128.771 138.098 128.203 138.29 127.657C138.68 126.599 139.191 125.589 139.813 124.648C140.402 123.711 141.049 122.826 141.67 121.951C142.239 121.071 142.637 120.092 142.844 119.064C143.056 118.069 143.17 117.055 143.183 116.037L143.284 116.138C143.033 116.161 142.78 116.127 142.543 116.039C142.307 115.952 142.092 115.813 141.916 115.632C141.74 115.444 141.628 115.206 141.595 114.95C141.595 114.691 141.595 114.475 141.595 114.237C141.582 114.002 141.582 113.765 141.595 113.529C141.64 113.282 141.758 113.054 141.934 112.873C142.107 112.705 142.315 112.576 142.542 112.494C142.77 112.412 143.012 112.379 143.254 112.398H148.45H152.08C152.489 112.383 152.889 112.518 153.206 112.777C153.36 112.906 153.48 113.07 153.556 113.255C153.633 113.441 153.664 113.642 153.646 113.841C153.646 114.22 153.646 114.567 153.646 114.95C153.616 115.138 153.544 115.317 153.436 115.474C153.327 115.63 153.186 115.761 153.022 115.857C152.707 116.039 152.345 116.122 151.983 116.094L152.054 116.024C152.093 118.343 152.542 120.49 153.589 122.012C154.531 123.275 155.389 124.598 156.159 125.972C156.642 126.842 156.987 127.782 157.18 128.757C157.222 129.018 157.247 129.281 157.254 129.545C157.27 129.629 157.27 129.716 157.254 129.8V129.8Z" fill="#263238"/>
<path d="M151.481 115.971C150.147 116.087 148.807 116.125 147.469 116.085C146.129 116.125 144.787 116.087 143.451 115.971C144.787 115.858 146.129 115.82 147.469 115.857C148.807 115.82 150.147 115.858 151.481 115.971Z" fill="#263238"/>
<path d="M156.453 133.193C155.644 132.665 154.575 132.898 153.703 133.311C152.832 133.725 152.009 134.301 151.063 134.451C149.95 134.631 148.828 134.187 147.838 133.628C146.848 133.069 145.911 132.379 144.846 131.996C143.814 131.647 142.704 131.595 141.643 131.845C140.582 132.096 139.612 132.639 138.845 133.413V155.21C138.845 155.21 140.041 158.928 148.472 158.347C156.902 157.767 156.238 154.04 156.238 154.04L156.453 133.193Z" fill="#0099FF"/>
<path d="M134.119 118.356C134.244 117.551 134.208 116.73 134.013 115.939C133.818 115.149 133.469 114.405 132.985 113.75C132.501 113.096 131.892 112.543 131.193 112.125C130.494 111.708 129.72 111.432 128.914 111.316C128.766 111.278 128.61 111.295 128.474 111.364C128.294 111.487 128.289 111.747 128.307 111.963C128.454 113.535 129.095 115.02 130.139 116.206C131.182 117.392 132.574 118.217 134.115 118.563" fill="#455A64"/>
<path d="M125.464 129.756C127.022 132.968 129.261 135.133 132.038 135.239C132.592 135.239 133.01 134.891 133.538 134.86C133.845 134.932 134.141 135.044 134.418 135.195C134.557 135.256 134.706 135.292 134.858 135.3C137.727 135.146 140.169 133.131 141.815 129.756C144.107 125.035 143.399 119.962 140.235 118.417C139.82 118.21 139.387 118.041 138.941 117.911C138.43 117.774 137.9 117.712 137.371 117.727C136.148 117.814 134.945 118.09 133.807 118.545L133.653 118.602C131.079 117.467 129.028 117.458 127.053 118.422C123.871 119.962 123.167 125.035 125.464 129.756Z" fill="#0099FF"/>
<path d="M125.517 124.973C125.367 124.677 125.277 124.354 125.253 124.023C125.159 123.224 125.256 122.414 125.535 121.659C125.814 120.904 126.268 120.226 126.859 119.68C127.092 119.444 127.371 119.257 127.677 119.13C127.677 119.165 127.387 119.368 126.969 119.795C126.435 120.353 126.02 121.015 125.75 121.739C125.482 122.465 125.369 123.238 125.416 124.01C125.451 124.599 125.574 124.96 125.517 124.973Z" fill="#FAFAFA"/>
<path d="M126.102 127.217C126.041 127.217 125.935 127.011 125.869 126.72C125.803 126.43 125.799 126.188 125.869 126.175C125.94 126.161 126.032 126.381 126.102 126.672C126.173 126.962 126.164 127.204 126.102 127.217Z" fill="#FAFAFA"/>
<path d="M140.658 110.625C140.658 110.665 140.068 110.893 139.175 111.43C138.655 111.743 138.161 112.096 137.696 112.486C137.131 112.969 136.609 113.499 136.134 114.07C135.669 114.65 135.254 115.268 134.894 115.918C134.604 116.451 134.357 117.006 134.154 117.577C133.807 118.554 133.714 119.196 133.657 119.187C133.657 119.039 133.673 118.892 133.706 118.747C133.727 118.57 133.762 118.395 133.811 118.224C133.862 117.992 133.925 117.763 134 117.537C134.185 116.949 134.423 116.377 134.709 115.83C135.412 114.484 136.384 113.297 137.564 112.341C138.044 111.95 138.558 111.604 139.1 111.307C139.324 111.171 139.54 111.078 139.734 110.986C139.893 110.906 140.058 110.837 140.226 110.779C140.363 110.711 140.508 110.659 140.658 110.625V110.625Z" fill="#263238"/>
<path d="M116.158 120.877L111.173 183.762L157.637 194.995C157.637 194.995 173.847 189.499 174.067 189.125C174.287 188.751 174.348 124.005 174.348 124.005L157.597 128.348L116.158 120.877Z" fill="#03A9F4"/>
<path d="M189.036 47.6259L186.444 84.3263C186.24 87.2141 184.949 89.9173 182.831 91.8909C180.713 93.8644 177.925 94.9616 175.03 94.9611V94.9611C173.463 94.9644 171.912 94.6457 170.472 94.0245C169.033 93.4034 167.737 92.4932 166.665 91.3504C165.592 90.2076 164.765 88.8565 164.237 87.381C163.708 85.9055 163.488 84.3371 163.59 82.7731C163.819 79.2795 164.03 76.4151 164.03 76.4151C164.03 76.4151 155.147 75.0335 155.037 66.1499C154.975 61.0195 155.859 49.3771 156.616 40.4583C156.865 37.5451 158.199 34.8319 160.355 32.857C162.511 30.882 165.331 29.7898 168.254 29.7971H173.618C175.811 29.9259 177.957 30.4931 179.927 31.4651C181.898 32.4371 183.654 33.7942 185.091 35.4563C186.528 37.1183 187.618 39.0515 188.295 41.1417C188.973 43.2319 189.224 45.4368 189.036 47.6259V47.6259Z" fill="#FFBE9D"/>
<path d="M164.048 76.4151C164.048 76.4151 169.649 76.7451 175.615 72.9963C175.615 72.9963 172.755 79.4599 163.889 78.6591L164.048 76.4151Z" fill="#EB996E"/>
<path d="M158.302 49.6191C158.46 49.7863 159.419 49.0735 160.787 49.0779C162.156 49.0823 163.15 49.7643 163.3 49.5971C163.37 49.5223 163.212 49.2275 162.776 48.9063C162.185 48.4993 161.483 48.2828 160.765 48.2859C160.055 48.2868 159.363 48.5099 158.786 48.9239C158.368 49.2495 158.227 49.5487 158.302 49.6191Z" fill="#263238"/>
<path d="M173.094 51.1899C173.093 51.5201 173.22 51.838 173.448 52.0768C173.676 52.3156 173.988 52.4566 174.317 52.4703C174.48 52.4841 174.643 52.4652 174.798 52.4148C174.953 52.3644 175.096 52.2835 175.219 52.1769C175.342 52.0703 175.442 51.94 175.514 51.794C175.586 51.6479 175.628 51.4888 175.637 51.3263C175.641 50.9954 175.515 50.6762 175.287 50.437C175.058 50.1977 174.745 50.0573 174.414 50.0459C174.252 50.0315 174.088 50.0499 173.933 50.1C173.778 50.1502 173.635 50.2311 173.512 50.3378C173.388 50.4446 173.288 50.575 173.216 50.7214C173.145 50.8678 173.103 51.0271 173.094 51.1899Z" fill="#263238"/>
<path d="M159.533 51.1899C159.531 51.5204 159.657 51.839 159.886 52.078C160.114 52.317 160.426 52.4577 160.757 52.4703C160.919 52.4847 161.083 52.4663 161.238 52.4161C161.393 52.366 161.536 52.2851 161.659 52.1783C161.783 52.0716 161.883 51.9411 161.955 51.7947C162.026 51.6484 162.068 51.489 162.077 51.3263C162.081 50.9958 161.957 50.6766 161.729 50.4373C161.501 50.1979 161.188 50.0574 160.858 50.0459C160.695 50.0302 160.531 50.0477 160.375 50.0973C160.219 50.147 160.075 50.2277 159.951 50.3346C159.827 50.4416 159.726 50.5725 159.655 50.7195C159.583 50.8665 159.542 51.0265 159.533 51.1899Z" fill="#263238"/>
<path d="M171.585 49.6235C171.743 49.7863 172.707 49.0735 174.071 49.0779C175.435 49.0823 176.434 49.7643 176.583 49.5971C176.654 49.5223 176.496 49.2275 176.06 48.9063C175.469 48.4993 174.767 48.2828 174.049 48.2859C173.339 48.2868 172.646 48.5099 172.069 48.9239C171.651 49.2495 171.51 49.5487 171.585 49.6235Z" fill="#263238"/>
<path d="M166.631 59.7435C166.631 59.6687 165.79 59.5235 164.431 59.3475C164.083 59.3079 163.753 59.2419 163.696 59.0043C163.664 58.6443 163.744 58.2833 163.925 57.9703L164.959 55.3303C166.389 51.5507 167.427 48.4443 167.273 48.3871C167.119 48.3299 165.834 51.3483 164.404 55.1279C164.038 56.046 163.708 56.9304 163.414 57.7811C163.198 58.2028 163.134 58.6862 163.234 59.1495C163.285 59.2727 163.363 59.3826 163.463 59.4711C163.563 59.5595 163.682 59.6241 163.81 59.6599C164.003 59.7124 164.201 59.7405 164.4 59.7435C165.768 59.8183 166.626 59.8227 166.631 59.7435Z" fill="#263238"/>
<path d="M170.648 60.6895C170.428 60.6895 170.423 62.1591 169.156 63.2107C167.889 64.2623 166.309 64.0907 166.296 64.3063C166.296 64.3987 166.648 64.5923 167.317 64.6143C168.185 64.6253 169.029 64.331 169.702 63.7827C170.346 63.2528 170.761 62.4946 170.859 61.6663C170.916 61.0503 170.749 60.6807 170.648 60.6895Z" fill="#263238"/>
<path d="M171.233 45.1839C171.369 45.5535 172.729 45.3775 174.313 45.5711C175.897 45.7647 177.213 46.2003 177.424 45.8703C177.521 45.7119 177.292 45.3599 176.773 44.9903C176.079 44.5436 175.288 44.2677 174.467 44.1851C173.648 44.0855 172.816 44.1836 172.043 44.4711C171.471 44.7175 171.176 45.0079 171.233 45.1839Z" fill="#263238"/>
<path d="M158.491 45.7119C158.733 46.0243 159.674 45.7119 160.805 45.6855C161.936 45.6591 162.891 45.8967 163.115 45.5711C163.207 45.4127 163.058 45.1003 162.64 44.8099C162.078 44.4566 161.424 44.2788 160.761 44.2991C160.098 44.3195 159.456 44.5372 158.917 44.9243C158.517 45.2411 158.385 45.5623 158.491 45.7119Z" fill="#263238"/>
<path d="M186.039 54.3051C186.193 54.2391 192.146 52.5011 191.953 58.5731C191.759 64.6451 185.7 63.1975 185.696 63.0259C185.691 62.8543 186.039 54.3051 186.039 54.3051Z" fill="#FFBE9D"/>
<path d="M187.614 60.7687C187.641 60.7687 187.72 60.8479 187.896 60.9359C188.143 61.0507 188.426 61.0649 188.683 60.9755C189.335 60.7599 189.907 59.7611 189.968 58.6655C190.003 58.1459 189.919 57.6252 189.722 57.1431C189.671 56.9512 189.574 56.7745 189.44 56.6281C189.306 56.4817 189.139 56.3701 188.952 56.3027C188.831 56.2665 188.701 56.2739 188.585 56.3238C188.47 56.3737 188.375 56.4628 188.318 56.5755C188.23 56.7427 188.266 56.8659 188.235 56.8747C188.204 56.8835 188.107 56.7691 188.164 56.5183C188.205 56.3695 188.293 56.2381 188.415 56.1443C188.586 56.0234 188.798 55.9745 189.005 56.0079C189.252 56.0659 189.481 56.186 189.67 56.3569C189.859 56.5278 190.001 56.7438 190.083 56.9847C190.323 57.5203 190.43 58.106 190.395 58.6919C190.316 59.9151 189.651 61.0371 188.767 61.2659C188.602 61.3076 188.43 61.3118 188.263 61.2783C188.097 61.2448 187.939 61.1744 187.804 61.0723C187.614 60.9051 187.614 60.7819 187.614 60.7687Z" fill="#EB996E"/>
<path d="M189.418 54.0851C188.494 53.8607 186.893 54.7187 186.497 55.5855C186.101 56.4523 186.013 57.4335 185.617 58.3003C185.221 59.1671 184.332 59.9547 183.417 59.7347C183.103 59.6357 182.82 59.4553 182.599 59.2118C182.377 58.9684 182.223 58.6706 182.154 58.3487C182.026 57.7023 182.026 57.0371 182.154 56.3907C182.51 53.5527 183.104 50.7411 183.219 47.8855C183.333 45.0299 182.928 42.0599 181.428 39.6267C179.927 37.1935 177.173 35.4027 174.322 35.6315C172.434 35.7855 170.705 36.7711 168.831 37.0307C167.715 37.1783 166.581 37.0701 165.514 36.714C164.446 36.358 163.474 35.7636 162.671 34.9759C162.464 34.7735 161.518 34.1443 161.518 34.1443C161.518 33.9991 161.654 32.7319 162.156 32.2699C165.874 28.8291 172.579 27.8699 177.494 29.1063C182.409 30.3427 187.016 33.8099 189.128 38.4167C191.24 43.0235 190.615 49.4167 189.449 54.0851" fill="#263238"/>
<path d="M155.661 38.8567C156.458 40.7003 158.491 41.7739 160.501 41.9763C162.512 42.1787 164.497 41.6595 166.428 41.0963C168.36 40.5331 173.547 39.6883 175.558 39.7499C175.857 39.7499 176.218 39.7499 176.381 39.4991C176.592 39.1603 176.253 38.7511 175.941 38.5091C173.301 36.4323 166.89 35.1607 163.529 35.0199C160.167 34.8791 156.643 36.3399 154.821 39.1515" fill="#263238"/>
<path d="M156.537 39.0855C156.537 39.0855 179.857 31.6055 189.924 51.7531C189.924 51.7531 191.429 46.7063 191.429 44.0003C191.429 42.1963 190.351 31.4339 179.281 28.0503C179.281 28.0503 162.6 21.6879 156.537 39.0855Z" fill="#03A9F4"/>
<path d="M188.934 49.3903C185.399 44.1272 180.767 39.6917 175.356 36.3883C170.014 33.0399 161.157 29.7311 155.054 28.1075C153.224 27.6235 151.314 27.1967 149.444 27.5223C147.574 27.8479 145.744 29.0887 145.282 30.9279C144.701 33.2291 148.802 36.7799 150.707 38.1747C152.588 39.4282 154.536 40.5783 156.541 41.6199C156.541 41.6199 156.489 37.3519 163.322 36.4719C172.61 35.2751 188.934 49.3903 188.934 49.3903Z" fill="#4490C3"/>
<path d="M169.838 31.9751C169.838 31.9751 166.477 30.1183 163.106 29.6871C163.668 29.2446 164.283 28.875 164.937 28.5871C166.768 28.8905 168.538 29.4846 170.182 30.3471L169.838 31.9751Z" fill="#FAFAFA"/>
<path d="M199.116 92.5147C199.116 92.5147 192.745 99.7967 193.449 109.93C193.546 111.334 193.616 113.291 193.788 114.691C194.861 123.385 196.524 131.455 196.524 131.455H197.132L219.347 125.968C219.347 125.968 215.999 106.683 215.229 104.122C212.769 95.9247 204.334 91.4147 204.334 91.4147L199.116 92.5147Z" fill="#4490C3"/>
<path d="M174.067 189.125C174.067 189.125 174.067 189.015 174.067 188.8C174.067 188.584 174.067 188.254 174.067 187.832C174.067 186.978 174.067 185.729 174.067 184.114C174.067 180.871 174.067 176.194 174.093 170.333C174.133 158.633 174.19 142.353 174.256 123.992L174.397 124.102L165.949 126.302L157.65 128.454L157.734 128.344C157.848 137.549 157.818 146.234 157.774 154.084C157.73 161.933 157.686 168.943 157.65 174.803C157.615 180.664 157.65 185.363 157.65 188.619C157.65 190.239 157.65 191.493 157.65 192.351V193.319C157.65 193.534 157.65 193.644 157.65 193.644C157.65 193.644 157.65 193.534 157.65 193.319C157.65 193.103 157.65 192.773 157.65 192.351C157.65 191.471 157.62 190.239 157.593 188.619C157.554 185.377 157.527 180.664 157.532 174.803C157.536 168.943 157.58 161.929 157.606 154.084C157.633 146.239 157.659 137.549 157.54 128.348V128.256L157.628 128.234L165.922 126.082L174.375 123.882L174.52 123.843V123.992C174.423 142.353 174.34 158.638 174.282 170.333C174.243 176.176 174.208 180.871 174.186 184.114C174.186 185.729 174.159 186.978 174.15 187.832C174.15 188.272 174.15 188.575 174.15 188.8C174.15 189.024 174.067 189.125 174.067 189.125Z" fill="#263238"/>
<path d="M163.779 79.4203C163.779 79.4203 162.899 87.8727 165.742 89.1883C168.949 90.6667 172.148 89.2191 174.102 87.9651C179.342 84.6211 187.13 75.3327 187.13 75.3327L192.41 82.1879C192.41 82.1879 179.113 98.1687 176.443 98.0631C174.683 97.9971 171.977 96.3031 170.283 95.1107C169.356 94.4631 168.53 93.6817 167.832 92.7919L165.531 89.8659C162.657 91.2827 160.334 93.0999 158.728 95.4275C158.728 95.4275 157.963 89.5095 159.34 86.8255C160.717 84.1415 163.463 79.5083 163.463 79.5083L163.779 79.4203Z" fill="#4490C3"/>
<path d="M159.177 87.0543C159.166 87.1049 159.149 87.1538 159.124 87.1995C159.085 87.3051 159.027 87.4415 158.953 87.6131C158.77 88.1599 158.639 88.7226 158.561 89.2939C158.306 91.3982 158.306 93.5256 158.561 95.6299L158.403 95.5991C159.143 94.3488 160.11 93.2476 161.254 92.3519C162.549 91.299 163.964 90.4025 165.469 89.6811L165.539 89.6459L165.592 89.7075C166.521 90.7855 167.502 91.9075 168.536 93.0471C169.57 94.2409 170.734 95.3153 172.007 96.2503C172.616 96.6809 173.277 97.0314 173.974 97.2931C174.318 97.4181 174.671 97.5138 175.03 97.5791C175.382 97.6362 175.74 97.6495 176.095 97.6187C177.525 97.4867 178.735 96.6683 179.738 95.8059L188.842 86.0995L191.482 83.3143L192.19 82.5795L192.375 82.3903L192.446 82.3331L192.393 82.4035L192.217 82.6059L191.535 83.3627L188.939 86.1919L179.901 95.9511C179.38 96.4153 178.811 96.8224 178.203 97.1655C177.567 97.5264 176.862 97.7511 176.135 97.8255C175.759 97.8562 175.381 97.8429 175.008 97.7859C174.635 97.7203 174.268 97.6216 173.913 97.4911C173.194 97.2222 172.512 96.8629 171.884 96.4219C170.593 95.4782 169.412 94.3918 168.364 93.1835C167.326 92.0395 166.345 90.9131 165.421 89.8307L165.548 89.8571C164.058 90.5727 162.655 91.4586 161.368 92.4971C160.252 93.3742 159.305 94.4478 158.574 95.6651L158.442 95.8939L158.416 95.6343C158.17 93.5161 158.194 91.3753 158.486 89.2631C158.577 88.691 158.724 88.1294 158.926 87.5867C159.005 87.4019 159.076 87.2699 159.12 87.1775C159.136 87.1352 159.155 87.0941 159.177 87.0543Z" fill="#263238"/>
<g opacity="0.3">
<path opacity="0.3" d="M159.503 94.1779C159.414 94.3996 159.397 94.6438 159.456 94.8754C159.514 95.107 159.645 95.3141 159.828 95.4671C160.012 95.5374 160.211 95.5561 160.404 95.5212C160.597 95.4863 160.777 95.3991 160.924 95.2691C161.212 95.0053 161.461 94.7015 161.663 94.3671C162.189 93.6086 162.822 92.9299 163.542 92.3519C164.25 91.7799 165.223 91.2959 166.037 91.7007C166.546 92.037 166.932 92.5296 167.137 93.1043C168.241 95.3615 169.566 97.6583 171.726 98.9475C173.886 100.237 176.663 100.294 179.043 99.4535C181.41 98.5323 183.492 97.0041 185.08 95.0227C186.656 93.0473 188.053 90.9358 189.256 88.7131C190.25 86.9927 191.258 85.2195 191.566 83.2571C191.293 83.4111 190.65 84.4011 190.378 84.5551C190.378 84.5551 180.121 95.8499 179.158 96.4351C178.194 97.0203 175.536 100.919 168.008 92.4751L165.518 89.7735C165.518 89.7735 160.774 92.0747 159.503 94.1779Z" fill="black"/>
</g>
<path d="M186.973 118.546L175.696 116.817L175.173 120.222L186.45 121.952L186.973 118.546Z" fill="white"/>
<path d="M217.481 126.395L199.881 130.649L201.914 147.251L168.21 172.564C166.864 172.753 165.482 172.969 164.717 173.162C162.873 173.602 159.617 178.244 158.697 178.706L152.128 183.775C152.128 183.775 151.552 186.081 154.548 185.619C157.545 185.157 160.884 182.855 161.232 182.855C161.579 182.855 162.627 183.555 162.112 185.055C161.672 186.375 159.868 190.916 159.868 190.916L157.637 195.008C157.637 195.008 167.282 195.325 169.957 191.748C171.787 189.319 177.437 182.433 177.437 182.433C177.437 182.433 217.112 162.915 219.492 158.827C222.735 153.265 217.481 126.395 217.481 126.395Z" fill="#FFBE9D"/>
<path d="M209.368 154.405C209.392 153.8 209.365 153.193 209.289 152.592C209.076 151.141 208.364 149.809 207.276 148.824C206.189 147.84 204.792 147.265 203.327 147.198C202.721 147.181 202.114 147.215 201.514 147.299C201.664 147.227 201.824 147.178 201.989 147.154C202.431 147.06 202.884 147.02 203.335 147.035C204.852 147.06 206.308 147.635 207.432 148.654C208.556 149.672 209.272 151.064 209.447 152.57C209.501 153.019 209.501 153.472 209.447 153.921C209.444 154.085 209.418 154.248 209.368 154.405Z" fill="#EB996E"/>
<path d="M165.561 188.809C165.527 189.186 165.45 189.558 165.333 189.918C165.107 190.807 164.78 191.668 164.356 192.483C163.934 193.316 163.292 194.017 162.499 194.511C162.257 194.655 161.994 194.762 161.72 194.828C161.621 194.862 161.516 194.873 161.412 194.859C161.759 194.725 162.095 194.563 162.415 194.375C163.157 193.861 163.761 193.174 164.175 192.373C164.581 191.569 164.915 190.731 165.174 189.869C165.272 189.505 165.402 189.15 165.561 188.809V188.809Z" fill="#EB996E"/>
<path d="M170.234 187.273C170.168 187.643 170.054 188.002 169.895 188.342C169.564 189.185 169.179 190.005 168.743 190.797C168.305 191.59 167.817 192.354 167.282 193.085C167.079 193.408 166.836 193.703 166.56 193.965C166.73 193.631 166.927 193.312 167.15 193.011C167.528 192.434 168.03 191.625 168.54 190.705C169.051 189.785 169.46 188.945 169.746 188.298C169.879 187.943 170.042 187.6 170.234 187.273Z" fill="#EB996E"/>
<path d="M170.107 158.541C170.155 158.725 170.181 158.914 170.186 159.104C170.226 159.465 170.256 159.984 170.274 160.64C170.357 164.036 169.866 167.422 168.822 170.654C168.62 171.27 168.444 171.768 168.303 172.102C168.243 172.281 168.164 172.453 168.07 172.617C168.099 172.43 168.149 172.247 168.219 172.071C168.334 171.728 168.488 171.226 168.659 170.606C169.132 168.989 169.49 167.341 169.733 165.673C169.971 164.006 170.094 162.324 170.102 160.64C170.102 159.993 170.102 159.469 170.102 159.109C170.086 158.92 170.087 158.73 170.107 158.541V158.541Z" fill="#263238"/>
<path d="M160.572 163.826C160.786 164.275 160.971 164.738 161.126 165.211C161.452 166.091 161.905 167.262 162.446 168.56C162.987 169.858 163.489 171.024 163.863 171.864C164.083 172.311 164.276 172.771 164.439 173.242C164.156 172.826 163.914 172.384 163.718 171.922C163.304 171.094 162.772 169.937 162.235 168.635C161.698 167.332 161.272 166.131 160.986 165.251C160.804 164.79 160.666 164.312 160.572 163.826V163.826Z" fill="#263238"/>
<path d="M158.015 175.217C157.927 175.255 157.834 175.282 157.738 175.296L156.933 175.49C156.581 175.573 156.154 175.67 155.648 175.754C155.142 175.837 154.575 175.961 153.932 176.04C153.29 176.119 152.612 176.229 151.842 176.295C151.072 176.361 150.276 176.418 149.427 176.467C145.728 176.631 142.023 176.348 138.391 175.626C137.56 175.446 136.763 175.287 136.033 175.085C135.303 174.883 134.621 174.707 134.005 174.517C133.389 174.328 132.834 174.139 132.35 173.976C131.866 173.813 131.47 173.655 131.123 173.536L130.353 173.228C130.262 173.194 130.174 173.152 130.089 173.105C130.186 173.119 130.28 173.145 130.37 173.184L131.153 173.453C131.488 173.576 131.906 173.725 132.39 173.893C132.874 174.06 133.428 174.236 134.049 174.399C134.669 174.561 135.342 174.768 136.077 174.935C136.812 175.103 137.599 175.283 138.431 175.455C140.24 175.792 142.066 176.036 143.9 176.185C145.736 176.317 147.578 176.352 149.418 176.291C150.267 176.247 151.072 176.216 151.825 176.141C152.577 176.066 153.272 175.996 153.91 175.917C154.548 175.837 155.12 175.741 155.626 175.661C156.132 175.582 156.563 175.507 156.915 175.437L157.729 175.287C157.822 175.253 157.918 175.229 158.015 175.217V175.217Z" fill="#263238"/>
<path d="M156.339 167.565C155.611 167.299 154.911 166.962 154.249 166.558C153.552 166.22 152.889 165.816 152.269 165.352C152.999 165.615 153.699 165.953 154.359 166.36C155.058 166.695 155.721 167.099 156.339 167.565Z" fill="#263238"/>
<path d="M219.347 125.968L219.237 126.003L218.911 126.091L217.653 126.412L212.919 127.583L196.551 131.543L196.432 131.569V131.45C195.97 128.427 195.336 125.167 194.725 121.77C194.324 119.504 193.977 117.282 193.739 115.126C193.501 112.97 193.396 110.871 193.365 108.874C193.317 106.983 193.427 105.092 193.695 103.22C193.933 101.582 194.42 99.9899 195.138 98.4987C195.753 97.2767 196.575 96.1706 197.567 95.2295C198.314 94.518 199.171 93.9325 200.106 93.4959C200.7 93.2302 201.323 93.0339 201.963 92.9107L202.464 92.8491C202.521 92.8432 202.579 92.8432 202.636 92.8491C202.58 92.8673 202.523 92.8791 202.464 92.8843L201.971 92.9723C201.342 93.1081 200.729 93.3148 200.145 93.5883C199.228 94.0397 198.387 94.6337 197.655 95.3483C196.686 96.2881 195.884 97.3862 195.283 98.5955C194.585 100.076 194.114 101.652 193.884 103.273C193.626 105.137 193.523 107.019 193.576 108.9C193.611 110.889 193.726 112.975 193.963 115.126C194.201 117.278 194.553 119.495 194.953 121.757C195.561 125.149 196.19 128.414 196.652 131.437L196.515 131.345L212.905 127.451L217.653 126.342L218.92 126.056L219.25 125.985C219.282 125.977 219.314 125.971 219.347 125.968V125.968Z" fill="#263238"/>
</svg>
