<svg width="171" height="282" viewBox="0 0 171 282" fill="none" xmlns="http://www.w3.org/2000/svg">
<path d="M158.785 130.154H97.7142V97.6151C97.7141 95.8296 97.2177 94.0718 96.269 92.4976C95.3203 90.9234 93.9486 89.5815 92.2757 88.591L31.3862 52.5452L62.6287 24.802L127.581 63.2544C129.931 64.6454 132.75 65.2704 135.56 65.0232C138.371 64.776 140.997 63.6719 142.994 61.8986L167.422 40.2063C168.557 39.1991 169.456 38.0034 170.07 36.6874C170.684 35.3715 171 33.961 171 32.5367C171 31.1123 170.684 29.7019 170.07 28.3859C169.456 27.07 168.557 25.8743 167.422 24.8671C166.288 23.8599 164.942 23.0609 163.46 22.5159C161.978 21.9708 160.389 21.6902 158.785 21.6902C157.181 21.6902 155.593 21.9708 154.111 22.5159C152.629 23.0609 151.283 23.8599 150.148 24.8671L132.8 40.2741L67.8473 1.82166C65.4977 0.430707 62.678 -0.194341 59.8679 0.0528445C57.0578 0.30003 54.431 1.40418 52.4344 3.17743L3.57739 46.5621C2.29961 47.6968 1.32127 49.0691 0.712924 50.5801C0.104579 52.0911 -0.118607 53.7032 0.0594247 55.3C0.237456 56.8969 0.812274 58.4388 1.74246 59.8145C2.67264 61.1903 3.935 62.3656 5.43852 63.2557L73.2856 103.419V130.154H12.2144C8.97497 130.154 5.86821 131.296 3.5776 133.33C1.28698 135.364 0.000134235 138.123 0.000134235 141C0.000134235 143.876 1.28698 146.635 3.5776 148.669C5.86821 150.703 8.97497 151.846 12.2144 151.846H73.2856V259.223C61.5593 257.077 50.7979 251.927 42.3319 244.41C33.8659 236.892 28.0663 227.336 25.6501 216.923H36.6429C39.8823 216.923 42.9891 215.78 45.2797 213.746C47.5703 211.712 48.8571 208.953 48.8571 206.077C48.8571 203.2 47.5703 200.441 45.2797 198.407C42.9891 196.373 39.8823 195.231 36.6429 195.231H12.2144C8.97497 195.231 5.86821 196.373 3.5776 198.407C1.28698 200.441 0.000134235 203.2 0.000134235 206.077C0.0255929 226.206 9.04176 245.504 25.0706 259.738C41.0994 273.971 62.8318 281.977 85.4999 282C88.7393 282 91.8461 280.857 94.1367 278.823C96.4273 276.789 97.7142 274.03 97.7142 271.154V151.846H158.785C162.025 151.846 165.132 150.703 167.422 148.669C169.713 146.635 171 143.876 171 141C171 138.123 169.713 135.364 167.422 133.33C165.132 131.296 162.025 130.154 158.785 130.154Z" fill="#03A9F4"/>
</svg>
