<svg width="460" height="533" viewBox="0 0 460 533" fill="none" xmlns="http://www.w3.org/2000/svg">
<path d="M2.46518 290.218H0.549683V315.962H2.46518V290.218Z" fill="#F39D0B"/>
<path d="M2.46518 323.624H0.549683V334.274H2.46518V323.624Z" fill="#F39D0B"/>
<path d="M7.25391 196.129H320.495V532.24H16.2184C13.846 532.24 11.5707 531.298 9.89309 529.62C8.21551 527.942 7.27305 525.667 7.27305 523.295V196.129H7.25391Z" fill="#F39D0B"/>
<path opacity="0.2" d="M320.495 196.129H7.25391V219.957H187.483L193.459 532.24L197.635 219.957H320.495V196.129Z" fill="black"/>
<path d="M4.55311 145.042H320.495V213.157H4.55311C3.36942 213.157 2.23421 212.687 1.39722 211.85C0.560226 211.013 0.0900069 209.878 0.0900069 208.694V149.524C0.0874845 148.937 0.201068 148.354 0.42423 147.811C0.647392 147.267 0.97575 146.773 1.39044 146.356C1.80513 145.94 2.29798 145.609 2.84072 145.384C3.38346 145.158 3.96539 145.042 4.55311 145.042V145.042Z" fill="#F39D0B"/>
<path d="M127.873 532.24L124.597 145.042H192.712L195.968 532.24H127.873Z" fill="#263238"/>
<path d="M443.948 532.24H320.571V196.128H452.836L452.836 523.295C452.836 525.657 451.901 527.924 450.236 529.6C448.571 531.276 446.311 532.225 443.948 532.24V532.24Z" fill="#F39D0B"/>
<path opacity="0.2" d="M443.948 532.24H320.571V196.128H452.836L452.836 523.295C452.836 525.657 451.901 527.924 450.236 529.6C448.571 531.276 446.311 532.225 443.948 532.24V532.24Z" fill="black"/>
<path opacity="0.2" d="M320.495 196.129H452.817V219.957H378.975L368.937 532.24L370.029 219.957H320.495V196.129Z" fill="black"/>
<path d="M455.537 213.157L320.495 213.157V145.042H455.537C456.123 145.042 456.703 145.158 457.245 145.382C457.786 145.606 458.278 145.935 458.693 146.349C459.107 146.764 459.436 147.256 459.66 147.797C459.885 148.339 460 148.919 460 149.505V208.675C460.003 209.262 459.889 209.845 459.666 210.389C459.443 210.932 459.114 211.427 458.7 211.843C458.285 212.259 457.792 212.59 457.249 212.815C456.707 213.041 456.125 213.157 455.537 213.157V213.157Z" fill="#F39D0B"/>
<path opacity="0.2" d="M455.537 213.157L320.495 213.157V145.042H455.537C456.123 145.042 456.703 145.158 457.245 145.382C457.786 145.606 458.278 145.935 458.693 146.349C459.107 146.764 459.436 147.256 459.66 147.797C459.885 148.339 460 148.919 460 149.505V208.675C460.003 209.262 459.889 209.845 459.666 210.389C459.443 210.932 459.114 211.427 458.7 211.843C458.285 212.259 457.792 212.59 457.249 212.815C456.707 213.041 456.125 213.157 455.537 213.157V213.157Z" fill="black"/>
<path d="M368.937 532.24L374.646 145.042H417.15L411.442 532.24H368.937Z" fill="#263238"/>
<path opacity="0.2" d="M368.937 532.24L374.646 145.042H417.15L411.442 532.24H368.937Z" fill="black"/>
<path d="M391.119 16.5127V16.4169H335.397C332.19 16.6839 329.06 17.5411 326.165 18.9453C269.657 42.6208 242.189 104.664 230.045 144.966H287.05C287.05 144.966 421.958 12.6817 391.119 16.5127Z" fill="#263238"/>
<path opacity="0.5" d="M287.05 145.042C287.05 92.6919 326.662 42.6975 383.17 19.022C439.677 -4.6535 287.05 145.042 287.05 145.042Z" fill="black"/>
<path d="M405.677 49.6698H364.321C361.681 49.8966 359.095 50.5432 356.659 51.5853C307.929 69.1695 269.753 115.237 249.162 145.157H291.494C291.494 145.157 429.678 46.7965 405.677 49.6698Z" fill="#263238"/>
<path opacity="0.5" d="M291.571 145.042C311.511 93.3239 350.338 69.0546 399.068 51.4704C447.798 33.8861 291.571 145.042 291.571 145.042Z" fill="black"/>
<path d="M127.202 0.173472V0.0585474H71.3464C70.3228 0.0389573 69.3125 0.2932 68.4201 0.794979C67.5276 1.29676 66.7855 2.02783 66.2703 2.91261C48.8393 29.5954 123.735 99.5684 178.193 145.023H235.198C235.198 145.023 151.682 -4.1747 127.202 0.173472Z" fill="#263238"/>
<path opacity="0.5" d="M235.197 145.042C180.817 99.5875 105.844 29.6146 123.275 2.93173C140.706 -23.7511 235.197 145.042 235.197 145.042Z" fill="black"/>
<path d="M185.433 37.583H143.982C143.146 37.6035 142.324 37.8021 141.571 38.1654C140.818 38.5288 140.151 39.0485 139.614 39.6901C121.149 59.5154 162.294 111.483 193.248 145.215H235.523C235.523 145.215 204.492 34.25 185.433 37.583Z" fill="#263238"/>
<path opacity="0.5" d="M235.523 145.042C204.569 111.291 163.405 59.3431 181.889 39.5177C200.374 19.6924 235.523 145.042 235.523 145.042Z" fill="black"/>
</svg>
