<svg width="28" height="34" viewBox="0 0 28 34" fill="none" xmlns="http://www.w3.org/2000/svg">
<path d="M14 0.9C12.4438 0.9 11.1632 2.14414 11.1632 3.66667C11.1632 3.98306 11.2228 4.28544 11.3247 4.56759C7.51239 5.5633 5.00526 8.68797 5.00526 13C5.00526 17.9403 4.01378 20.1704 3.10356 21.3854C2.71403 21.9053 2.33237 22.2477 1.97379 22.5694C1.912 22.6249 1.8509 22.6797 1.79057 22.7347C1.3834 23.1059 0.9 23.6062 0.9 24.3333C0.9 25.2951 1.50084 26.093 2.3086 26.6177C3.11386 27.1408 4.15707 27.4876 5.3634 27.7488C6.68692 28.0354 8.22976 28.2056 9.8555 28.3077C9.8159 28.5331 9.79474 28.7645 9.79474 29C9.79474 31.2591 11.6878 33.1 14 33.1C16.3122 33.1 18.2053 31.2591 18.2053 29C18.2053 28.7638 18.1831 28.5328 18.1433 28.3077C19.7695 28.2056 21.3127 28.0354 22.6366 27.7488C23.8429 27.4876 24.8861 27.1408 25.6914 26.6177C26.4992 26.093 27.1 25.2951 27.1 24.3333C27.1 23.6062 26.6166 23.1059 26.2094 22.7347C26.1491 22.6797 26.088 22.6249 26.0262 22.5694C25.6676 22.2477 25.286 21.9053 24.8964 21.3854C23.9862 20.1704 22.9947 17.9403 22.9947 13C22.9947 8.71919 20.4887 5.57028 16.6741 4.57031C16.7766 4.28742 16.8368 3.98413 16.8368 3.66667C16.8368 2.14414 15.5562 0.9 14 0.9ZM14 2.43333C14.7111 2.43333 15.2684 2.98005 15.2684 3.66667C15.2684 4.35328 14.7111 4.9 14 4.9C13.2889 4.9 12.7316 4.35328 12.7316 3.66667C12.7316 2.98005 13.2889 2.43333 14 2.43333ZM8.13312 8.18889C9.12811 7.0067 10.5693 6.23285 12.3633 5.91174C12.8268 6.23559 13.3887 6.43333 14 6.43333C14.6106 6.43333 15.1721 6.23623 15.6354 5.913C17.4275 6.23212 18.8691 7.01458 19.865 8.20171C20.8684 9.39781 21.4263 11.013 21.4263 13C21.4263 18.1432 22.4876 20.767 23.6299 22.2917C24.1192 22.9448 24.6164 23.3887 24.9746 23.7085C25.0335 23.761 25.0886 23.8102 25.1392 23.8565C25.3215 24.0226 25.421 24.1214 25.4755 24.1929C25.5019 24.2274 25.515 24.2522 25.5221 24.2718C25.5288 24.2905 25.5316 24.3089 25.5316 24.3333C25.5316 24.5238 25.4872 24.6862 25.3807 24.8435C25.2724 25.0034 25.0963 25.1634 24.8234 25.3406C24.2816 25.6926 23.4004 26.0124 22.2976 26.2512C20.0934 26.7285 17.0518 26.9 14 26.9C10.9482 26.9 7.90657 26.7285 5.70239 26.2512C4.59959 26.0124 3.71842 25.6926 3.1766 25.3406C2.9037 25.1634 2.72757 25.0034 2.6193 24.8435C2.51282 24.6862 2.46842 24.5238 2.46842 24.3333C2.46842 24.3089 2.4712 24.2905 2.47794 24.2718C2.48499 24.2522 2.49811 24.2274 2.52446 24.1929C2.57904 24.1214 2.6785 24.0226 2.86075 23.8565C2.91145 23.8102 2.96654 23.761 3.02539 23.7085C3.38365 23.3887 3.88084 22.9448 4.37012 22.2917C5.51244 20.767 6.57368 18.1432 6.57368 13C6.57368 10.9943 7.13063 9.37998 8.13312 8.18889ZM11.3632 29C11.3632 28.7879 11.3978 28.5853 11.4507 28.3865C12.2922 28.4156 13.1434 28.4333 14 28.4333C14.8566 28.4333 15.7077 28.4156 16.5493 28.3865C16.6021 28.5856 16.6368 28.7882 16.6368 29C16.6368 30.4235 15.4674 31.5667 14 31.5667C12.5326 31.5667 11.3632 30.4235 11.3632 29Z" fill="#03A9F4" stroke="#03A9F4" stroke-width="0.2"/>
</svg>
