<svg width="675" height="675" viewBox="0 0 675 675" fill="none" xmlns="http://www.w3.org/2000/svg">
<circle cx="431.985" cy="146.872" r="145.872" fill="#F39D0C"/>
<path d="M26.4121 1.01551C25.967 1.13983 25.5283 1.28606 25.0977 1.45365C11.4856 3.37703 1 14.9136 1 29.0565C1 44.5432 13.5544 57.0975 29.0409 57.0975C44.5275 57.0975 57.0819 44.5432 57.0819 29.0565H122.365C139.844 29.0565 148.917 32.6449 155.663 38.6956C162.299 44.6474 167.649 54.7696 172.313 70.2418L284.476 522.841C288.71 538.91 292.935 555.419 304.631 568.846C309.504 574.441 315.637 578.985 323.033 582.429C314.84 592.185 309.45 604.281 309.45 617.918C309.45 648.725 334.725 674 365.532 674C396.339 674 421.614 648.725 421.614 617.918C421.614 607.649 418.613 598.185 413.727 589.877H499.603C494.717 598.185 491.716 607.649 491.716 617.918C491.716 648.725 516.991 674 547.798 674C578.605 674 603.88 648.725 603.88 617.918C603.88 603.507 598.024 590.645 588.983 580.676C589.758 578.559 590.011 576.286 589.721 574.051C589.431 571.815 588.606 569.683 587.316 567.834C586.026 565.985 584.309 564.475 582.311 563.431C580.314 562.386 578.093 561.839 575.839 561.836H361.589C339.982 561.836 331.141 557.238 325.223 550.444C319.371 543.725 315.78 531.92 311.641 516.269V515.831L302.002 477.713H559.19C562.062 477.721 564.867 476.842 567.219 475.195C569.572 473.548 571.359 471.213 572.334 468.512L673.106 202.122C673.903 200.006 674.173 197.727 673.892 195.483C673.611 193.238 672.788 191.096 671.494 189.242C670.2 187.387 668.474 185.875 666.465 184.836C664.455 183.798 662.224 183.265 659.962 183.282H229.271L199.477 63.6697C199.486 63.3776 199.486 63.0854 199.477 62.7934C194.119 44.735 187.176 29.0311 174.503 17.6649C161.831 6.29863 144.073 1.01551 122.365 1.01551H29.0409C28.603 0.99483 28.1644 0.99483 27.7265 1.01551C27.2886 0.994985 26.85 0.994985 26.4121 1.01551ZM236.281 211.323H639.808L549.551 449.672H295.43L236.281 211.323ZM365.532 589.877C381.185 589.877 393.573 602.265 393.573 617.918C393.573 633.571 381.185 645.959 365.532 645.959C349.879 645.959 337.491 633.571 337.491 617.918C337.491 602.265 349.879 589.877 365.532 589.877ZM547.798 589.877C563.451 589.877 575.839 602.265 575.839 617.918C575.839 633.571 563.451 645.959 547.798 645.959C532.146 645.959 519.757 633.571 519.757 617.918C519.757 602.265 532.146 589.877 547.798 589.877Z" fill="#03A9F4" stroke="#03A9F4" stroke-width="0.3"/>
</svg>
