<svg width="410" height="410" viewBox="0 0 410 410" fill="none" xmlns="http://www.w3.org/2000/svg">
<path d="M205 1C92.8771 1 1 84.0148 1 187.261C1 231.153 17.9227 271.381 45.625 303.12H45.3478C48.8274 308.941 49.2492 315.871 47.288 324.462C45.3269 333.053 40.8929 342.726 35.6467 351.625C30.4006 360.524 24.5516 368.583 19.8478 374.908C17.4959 378.07 15.3285 380.73 13.75 382.946C12.9608 384.054 12.4413 385.204 11.8098 386.272C11.1783 387.339 9.86957 387.284 9.86957 392.092C9.86957 395.782 11.3105 400.266 14.8587 403.734C18.4069 407.201 23.4734 409 29.2717 409C70.1695 409 107.353 378.631 135.707 361.88C157.415 369.075 180.592 373.522 205 373.522C317.123 373.522 409 290.507 409 187.261C409 84.0148 317.123 1 205 1ZM205 18.7391C308.408 18.7391 391.261 94.5605 391.261 187.261C391.261 279.961 308.408 355.783 205 355.783C181.027 355.783 158.119 351.597 137.092 344.141L133.212 342.755L129.886 344.973C99.1204 362.578 62.0662 390.956 29.8261 391.261C31.0475 389.602 32.2245 388.083 33.9837 385.717C38.7983 379.244 45.0981 370.321 50.8913 360.495C56.6845 350.668 62.1486 339.738 64.75 328.342C67.3514 316.947 67.0245 304.733 60.5924 293.973L60.038 293.141L59.7609 292.587C34.1193 263.637 18.7391 227.094 18.7391 187.261C18.7391 94.5605 101.592 18.7391 205 18.7391ZM128.223 89.6957C126.619 89.9783 125.125 90.6967 123.903 91.7723C122.68 92.8478 121.778 94.239 121.293 95.7935L94.4076 173.402C93.3626 174.859 92.7829 176.599 92.7446 178.391L81.3804 211.098C80.7937 212.236 80.4602 213.487 80.4029 214.766C80.3455 216.045 80.5657 217.321 81.0482 218.507C81.5308 219.693 82.2643 220.76 83.1983 221.635C84.1324 222.511 85.2448 223.174 86.4593 223.578C87.6738 223.983 88.9616 224.12 90.2341 223.981C91.5066 223.841 92.7338 223.427 93.8313 222.768C94.9288 222.109 95.8706 221.22 96.5921 220.162C97.3135 219.105 97.7976 217.904 98.0109 216.641L108.266 187.261H150.951L161.207 216.641C161.42 217.904 161.904 219.105 162.625 220.162C163.347 221.22 164.289 222.109 165.386 222.768C166.484 223.427 167.711 223.841 168.983 223.981C170.256 224.12 171.544 223.983 172.758 223.578C173.973 223.174 175.085 222.511 176.019 221.635C176.953 220.76 177.687 219.693 178.169 218.507C178.652 217.321 178.872 216.045 178.815 214.766C178.757 213.487 178.424 212.236 177.837 211.098L137.924 95.7935C137.289 93.7941 135.966 92.0844 134.19 90.968C132.414 89.8516 130.3 89.4008 128.223 89.6957V89.6957ZM129.609 125.451L144.853 169.522H114.364L129.609 125.451ZM275.125 151.505C274.75 151.574 274.38 151.666 274.016 151.783C272.014 152.231 270.228 153.36 268.965 154.978C267.701 156.595 267.038 158.6 267.087 160.652V178.391H222.739C222.462 178.378 222.185 178.378 221.908 178.391C221.631 178.378 221.353 178.378 221.076 178.391C218.724 178.612 216.555 179.758 215.048 181.577C213.54 183.396 212.818 185.74 213.038 188.092C213.259 190.445 214.405 192.613 216.224 194.121C218.043 195.628 220.387 196.351 222.739 196.13H274.293H277.897H300.071C296.571 207.75 288.519 227.48 270.69 245.467C255.598 230.577 248.793 218.027 248.793 218.027C247.964 216.437 246.673 215.136 245.09 214.295C243.506 213.454 241.705 213.112 239.924 213.315C238.456 213.481 237.052 214.012 235.841 214.858C234.629 215.705 233.649 216.841 232.988 218.162C232.327 219.484 232.007 220.95 232.056 222.427C232.106 223.904 232.524 225.345 233.272 226.62C233.272 226.62 240.934 240.459 257.109 256.832C247.014 264.396 234.944 271.377 219.967 276.511C218.705 276.724 217.504 277.208 216.446 277.93C215.389 278.651 214.5 279.593 213.841 280.69C213.182 281.788 212.768 283.015 212.628 284.288C212.488 285.56 212.625 286.848 213.03 288.062C213.435 289.277 214.098 290.389 214.973 291.323C215.849 292.257 216.916 292.991 218.102 293.473C219.288 293.956 220.564 294.176 221.843 294.119C223.122 294.062 224.373 293.728 225.511 293.141C243.589 286.944 258.187 278.269 270.136 268.75C280.359 277.265 292.553 285.681 307.554 292.864C309.686 293.893 312.139 294.033 314.375 293.254C316.61 292.474 318.444 290.838 319.473 288.707C320.502 286.575 320.642 284.121 319.862 281.886C319.083 279.651 317.447 277.817 315.315 276.788C302.711 270.753 292.239 263.868 283.44 256.832C306.215 233.365 315.084 208.17 318.364 196.13H329.174C330.349 196.147 331.516 195.93 332.607 195.492C333.697 195.053 334.69 194.403 335.527 193.577C336.364 192.752 337.029 191.769 337.483 190.684C337.936 189.6 338.17 188.436 338.17 187.261C338.17 186.085 337.936 184.922 337.483 183.837C337.029 182.753 336.364 181.77 335.527 180.944C334.69 180.119 333.697 179.468 332.607 179.03C331.516 178.592 330.349 178.375 329.174 178.391H284.826V160.652C284.871 159.391 284.646 158.135 284.167 156.967C283.688 155.8 282.965 154.748 282.046 153.882C281.128 153.017 280.036 152.357 278.842 151.947C277.649 151.537 276.381 151.386 275.125 151.505V151.505Z" fill="#03A9F4" stroke="#03A9F4"/>
</svg>
