<svg width="310" height="308" viewBox="0 0 310 308" fill="none" xmlns="http://www.w3.org/2000/svg">
<path d="M226.41 2L145.82 79.289H193.951V97.9667H96.5736C71.5519 97.9667 51.1308 117.551 51.1308 141.548V228.711H3L83.5899 306L164.18 228.711H116.049V210.033H213.426C238.448 210.033 258.869 190.449 258.869 166.452V79.289H307L295.918 68.6611L226.41 2ZM226.41 19.6077L275.657 66.8371H245.886V166.452C245.886 183.72 231.433 197.581 213.426 197.581H116.049V160.226H206.935V154V97.9667V66.8371H177.164L226.41 19.6077ZM96.5736 110.419H193.951V147.774H103.065V210.033V241.163H132.837L83.5899 288.392L34.3433 241.163H64.1144V141.548C64.1144 124.28 78.5674 110.419 96.5736 110.419Z" fill="#03A9F4" stroke="#03A9F4" stroke-width="2"/>
</svg>
