<svg width="368" height="369" viewBox="0 0 368 369" fill="none" xmlns="http://www.w3.org/2000/svg">
<path d="M43.2308 1C20.0733 1 1 19.4577 1 41.8677V259.829C1 282.239 20.0733 300.696 43.2308 300.696H85.4615V367L188.289 300.696H324.769C347.927 300.696 367 282.239 367 259.829V41.8677C367 19.4577 347.927 1 324.769 1H43.2308ZM43.7 19.3H324.3C336.5 19.3 348.7 28.2451 348.7 43.7V257.2C348.7 269.4 342.6 281.6 324.3 281.6H184L104.7 330.4V281.6H37.6C25.4 281.6 19.3 269.4 19.3 259.829V43.7C19.3 31.5 25.4 19.3 43.7 19.3ZM99.5385 137.226C95.805 137.226 92.2245 138.661 89.5846 141.216C86.9446 143.77 85.4615 147.235 85.4615 150.848C85.4615 154.461 86.9446 157.926 89.5846 160.481C92.2245 163.036 95.805 164.471 99.5385 164.471C103.272 164.471 106.852 163.036 109.492 160.481C112.132 157.926 113.615 154.461 113.615 150.848C113.615 147.235 112.132 143.77 109.492 141.216C106.852 138.661 103.272 137.226 99.5385 137.226ZM184 137.226C180.267 137.226 176.686 138.661 174.046 141.216C171.406 143.77 169.923 147.235 169.923 150.848C169.923 154.461 171.406 157.926 174.046 160.481C176.686 163.036 180.267 164.471 184 164.471C187.733 164.471 191.314 163.036 193.954 160.481C196.594 157.926 198.077 154.461 198.077 150.848C198.077 147.235 196.594 143.77 193.954 141.216C191.314 138.661 187.733 137.226 184 137.226ZM268.462 137.226C264.728 137.226 261.148 138.661 258.508 141.216C255.868 143.77 254.385 147.235 254.385 150.848C254.385 154.461 255.868 157.926 258.508 160.481C261.148 163.036 264.728 164.471 268.462 164.471C272.195 164.471 275.775 163.036 278.415 160.481C281.055 157.926 282.538 154.461 282.538 150.848C282.538 147.235 281.055 143.77 278.415 141.216C275.775 138.661 272.195 137.226 268.462 137.226Z" fill="#03A9F4" stroke="#03A9F4" stroke-width="2"/>
</svg>
