<svg width="441" height="593" viewBox="0 0 441 593" fill="none" xmlns="http://www.w3.org/2000/svg">
<path d="M220.5 5C101.671 5 5 101.609 5 220.363C5 259.458 22.5442 301.504 23.2795 303.278C28.9459 316.719 40.1265 337.596 48.1887 349.834L195.946 573.571C201.992 582.743 210.942 588 220.5 588C230.058 588 239.008 582.743 245.054 573.583L392.824 349.834C400.899 337.596 412.067 316.719 417.733 303.278C418.468 301.517 436 259.47 436 220.363C436 101.609 339.329 5 220.5 5ZM394.358 293.447C389.3 305.495 378.892 324.915 371.654 335.886L223.885 559.635C220.969 564.057 220.044 564.057 217.128 559.635L69.3584 335.886C62.1202 324.915 51.7128 305.482 46.6549 293.434C46.4394 292.915 30.3529 254.213 30.3529 220.363C30.3529 115.583 115.653 30.3368 220.5 30.3368C325.347 30.3368 410.647 115.583 410.647 220.363C410.647 254.264 394.523 293.067 394.358 293.447Z" fill="#F39D0B" stroke="#F39D0C" stroke-width="10"/>
<path d="M220.5 106C157.36 106 106 157.148 106 220C106 282.852 157.36 334 220.5 334C283.64 334 335 282.852 335 220C335 157.148 283.64 106 220.5 106ZM220.5 308.667C171.405 308.667 131.444 268.893 131.444 220C131.444 171.107 171.405 131.333 220.5 131.333C269.595 131.333 309.556 171.107 309.556 220C309.556 268.893 269.595 308.667 220.5 308.667Z" fill="#F39D0B" stroke="#F39D0C" stroke-width="10"/>
</svg>
