<svg width="165" height="187" viewBox="0 0 165 187" fill="none" xmlns="http://www.w3.org/2000/svg">
<path d="M112.136 90.0741H52.8636C28.3507 90.0741 8.40909 71.6323 8.40909 48.963C8.40909 26.2936 28.3507 7.85185 52.8636 7.85185C76.1282 7.85185 95.2362 24.4676 97.1293 45.537H87.8308C85.9452 45.537 84.2374 46.4586 83.2705 47.9969C82.2629 49.5933 82.2481 51.5872 83.2261 53.194L92.3282 68.1036V68.107C94.1804 71.1356 97.4293 72.9444 101.023 72.9444C104.616 72.9444 107.865 71.1356 109.717 68.1002L118.819 53.194C119.801 51.5838 119.786 49.5899 118.775 47.9934C117.804 46.4586 116.097 45.537 114.215 45.537H104.542C102.627 20.6888 80.2106 1 52.8636 1C24.2645 1 1 22.5148 1 48.963C1 75.4111 24.2645 96.9259 52.8636 96.9259H112.136C136.649 96.9259 156.591 115.368 156.591 138.037C156.591 160.706 136.649 179.148 112.136 179.148C88.6792 179.148 69.4563 162.251 67.8411 140.932C74.1314 139.349 78.7955 134.073 78.7955 127.759C78.7955 120.202 72.1495 114.056 63.9773 114.056C55.805 114.056 49.1591 120.202 49.1591 127.759C49.1591 134.183 53.9787 139.544 60.4357 141.024C62.1176 166.078 84.6301 186 112.136 186C140.735 186 164 164.485 164 138.037C164 111.589 140.735 90.0741 112.136 90.0741ZM103.26 64.7325C102.204 66.466 99.8373 66.4626 98.7815 64.7359L91.2427 52.3889H110.799L103.26 64.7325ZM56.5682 127.759C56.5682 123.98 59.8912 120.907 63.9773 120.907C68.0634 120.907 71.3864 123.98 71.3864 127.759C71.3864 131.538 68.0634 134.611 63.9773 134.611C59.8912 134.611 56.5682 131.538 56.5682 127.759Z" fill="#03A9F4" stroke="#03A9F4"/>
<path d="M61 40V33H50.875V26H44.125V33H40.75C37.0274 33 34 36.1395 34 40V47C34 50.8605 37.0274 54 40.75 54H54.25V61H34V68H44.125V75H50.875V68H54.25C57.9726 68 61 64.8605 61 61V54C61 50.1395 57.9726 47 54.25 47H40.75V40H61Z" fill="#03A9F4" stroke="#03A9F4"/>
<path d="M107 119H126V112H107C100.715 112 95.6 116.711 95.6 122.5V126H88V133H95.6V140H88V147H95.6V150.5C95.6 156.289 100.715 161 107 161H126V154H107C104.902 154 103.2 152.432 103.2 150.5V147H110.8V140H103.2V133H110.8V126H103.2V122.5C103.2 120.568 104.902 119 107 119Z" fill="#03A9F4" stroke="#03A9F4"/>
</svg>
