<svg width="347" height="347" viewBox="0 0 347 347" fill="none" xmlns="http://www.w3.org/2000/svg">
<path d="M331.981 11.6631L331.562 11.2832C323.562 4.00739 313.193 0 302.362 0C290.221 0 278.564 5.11736 270.379 14.0388L115.61 182.744C114.2 184.281 113.13 186.096 112.468 188.071L94.2696 242.391C92.1655 248.671 93.2215 255.616 97.0939 260.968C100.997 266.363 107.286 269.583 113.917 269.583H113.918C116.786 269.583 119.589 268.996 122.248 267.838L174.94 244.886C176.856 244.052 178.574 242.827 179.984 241.29L334.753 72.5854C350.859 55.0312 349.616 27.7036 331.981 11.6631ZM129.137 232.356L139.816 200.482L140.717 199.5L160.957 217.906L160.056 218.888L129.137 232.356ZM312.686 52.5157L181.114 195.936L160.874 177.529L292.447 34.1085C295.02 31.3033 298.542 29.7579 302.363 29.7579C305.716 29.7579 308.927 30.9998 311.411 33.2594L311.829 33.6393C317.292 38.6078 317.677 47.0759 312.686 52.5157Z" fill="#F39D0C"/>
<path d="M301.956 137.271C293.703 137.271 287.012 143.933 287.012 152.15V278.469C287.012 299.333 269.964 316.308 249.009 316.308H67.8914C46.9353 316.308 29.8875 299.333 29.8875 278.469V99.6027C29.8875 78.7384 46.9363 61.7635 67.8914 61.7635H198.985C207.238 61.7635 213.929 55.1017 213.929 46.8846C213.929 38.6675 207.238 32.0057 198.985 32.0057H67.8914C30.4553 32.0057 0 62.3299 0 99.6027V278.468C0 315.741 30.4563 346.065 67.8914 346.065H249.008C286.443 346.065 316.899 315.741 316.899 278.468V152.15C316.9 143.933 310.209 137.271 301.956 137.271Z" fill="#F39D0C"/>
</svg>
