<svg width="32" height="32" viewBox="0 0 32 32" fill="none" xmlns="http://www.w3.org/2000/svg">
<path d="M17.0205 4.04991L17.0205 4.04987L16.7597 3.35769H27.7391C28.0768 3.35769 28.3413 3.59938 28.3413 3.88462V4.41154H17.5913C17.3285 4.41154 17.1008 4.26356 17.0205 4.04991ZM5.27826 4.41154H3.6587V3.88462C3.6587 3.59938 3.92316 3.35769 4.26087 3.35769H6.1099L5.84908 4.04987L5.84907 4.04991C5.76876 4.26356 5.54104 4.41154 5.27826 4.41154ZM15.6891 4.4509L15.6891 4.45096C15.9649 5.17988 16.731 5.66538 17.5913 5.66538H29.0435C29.3812 5.66538 29.6457 5.90708 29.6457 6.19231V7.87308H2.35435V6.19231C2.35435 5.90708 2.61882 5.66538 2.95652 5.66538H5.27826C6.13853 5.66538 6.90537 5.17989 7.17984 4.4503L7.88938 2.56671C7.97034 2.3524 8.19876 2.20385 8.46283 2.20385H14.4061C14.6701 2.20385 14.8986 2.35237 14.9795 2.56725L15.6891 4.4509ZM15.2978 20.6154V20.6654H15.3478H16.6522H16.7022V20.6154C16.7022 18.9163 18.4306 17.2038 20.5652 17.2038C22.7016 17.2038 24.4283 18.7395 24.4283 20.6154C24.4283 23.0216 22.7132 25.3166 20.7915 27.0147C19.832 27.8626 18.8239 28.5591 17.959 29.0432C17.5265 29.2853 17.1305 29.474 16.7948 29.602C16.4577 29.7305 16.1858 29.7962 16 29.7962C15.8142 29.7962 15.5423 29.7305 15.2052 29.602C14.8695 29.474 14.4735 29.2853 14.041 29.0432C13.1761 28.5591 12.168 27.8626 11.2085 27.0147C9.28682 25.3166 7.57174 23.0216 7.57174 20.6154C7.57174 18.7395 9.29842 17.2038 11.4348 17.2038C13.5694 17.2038 15.2978 18.9163 15.2978 20.6154ZM29.7457 4.53311V3.88462C29.7457 2.89719 28.8395 2.10385 27.7391 2.10385H16.2832C15.9875 1.40936 15.2427 0.95 14.4067 0.95H8.46348C7.6241 0.95 6.8832 1.52138 6.58931 2.10385H4.26087C3.1605 2.10385 2.25435 2.89719 2.25435 3.88462V4.53311C1.93157 4.65798 1.61188 4.87592 1.36982 5.15536C1.11949 5.44435 0.95 5.80183 0.95 6.19231V8.5V9.07692V24.6538C0.95 25.6413 1.85615 26.4346 2.95652 26.4346H8.76354C9.96473 27.8734 11.4165 29.0245 12.7437 29.817C13.4102 30.2149 14.0458 30.5228 14.6033 30.7313C15.1599 30.9395 15.6419 31.05 16 31.05C16.3587 31.05 16.8412 30.9297 17.3975 30.7097C17.955 30.4892 18.5905 30.1671 19.2567 29.7598C20.5835 28.9487 22.0348 27.7979 23.2357 26.4346H29.0435C30.1439 26.4346 31.05 25.6413 31.05 24.6538V9.07692V8.5V6.19231C31.05 5.80183 30.8805 5.44435 30.6302 5.15536C30.3881 4.87592 30.0684 4.65798 29.7457 4.53311ZM29.0435 25.1808H24.218C25.1846 23.7829 25.8326 22.2257 25.8326 20.6154C25.8326 18.0374 23.4636 15.95 20.5652 15.95C18.618 15.95 16.9118 16.891 16 18.2899C15.0882 16.891 13.382 15.95 11.4348 15.95C8.53637 15.95 6.16739 18.0374 6.16739 20.6154C6.16739 22.2154 6.80747 24.0139 7.77031 25.1808H2.95652C2.61882 25.1808 2.35435 24.9391 2.35435 24.6538V9.12692H29.6457V24.6538C29.6457 24.9391 29.3812 25.1808 29.0435 25.1808Z" fill="#03A9F4" stroke="#0273BE" stroke-width="0.1"/>
</svg>
