<svg width="330" height="391" viewBox="0 0 330 391" fill="none" xmlns="http://www.w3.org/2000/svg">
<path d="M201.581 177.329C193.344 153.728 166.853 141.044 142.414 149C119.508 156.456 106.281 179.56 111.922 202.259C128.734 258.702 190.224 309.354 246.541 352.394C250.586 355.487 256.46 354.829 259.663 350.924C262.866 347.018 262.185 341.345 258.141 338.251C204.084 296.943 145.152 248.581 129.873 197.28C125.596 182.908 134.194 167.912 149.075 163.782C163.956 159.652 179.485 167.955 183.762 182.326C193.96 216.599 244.674 258.954 292.921 295.824C296.966 298.917 302.84 298.26 306.044 294.354C309.246 290.448 308.565 284.775 304.521 281.682C279.043 262.255 211.575 210.7 201.581 177.329Z" fill="#03A9F4"/>
<path d="M270.173 153.368C250.523 94.245 186.859 60.8478 125.847 77.6549C63.4712 95.2187 27.4145 159.08 45.3132 220.292C45.3259 220.336 45.3386 220.38 45.3513 220.423C60.1928 271.016 28.3771 285.048 18.236 288.134C13.4739 289.604 10.8276 294.584 12.3249 299.257C13.8221 303.93 18.8969 306.527 23.6591 305.058C51.2989 296.579 78.1431 268.054 62.723 215.509C47.5214 163.729 77.9719 109.662 130.735 94.7439C130.763 94.7364 130.791 94.7281 130.818 94.7206C182.988 80.33 237.344 109.345 253.379 160.144C253.593 160.836 253.897 161.497 254.283 162.113C255.223 163.639 257.158 166.849 315.257 213.114C319.13 216.205 324.824 215.629 327.974 211.827C331.123 208.026 330.537 202.438 326.663 199.348C305.549 182.531 274.692 157.536 270.173 153.368Z" fill="#03A9F4"/>
<path d="M232.908 168.103C220.206 125.513 174.429 100.913 130.517 113.079C87.4008 126.005 62.3755 169.57 73.7031 211.983C92.2797 294.135 78.3932 313.101 40.284 324.674C35.4387 326.153 32.7463 331.167 34.2697 335.871C35.7931 340.576 40.9564 343.191 45.8017 341.711C99.0475 325.638 110.617 291.848 91.7822 208.143C82.6323 174.952 101.977 140.64 135.703 130.241C169.877 120.821 205.469 139.972 215.361 173.103C219.039 185.283 228.806 201.999 304.122 259.881C308.105 262.943 313.889 262.292 317.043 258.425C320.197 254.559 319.526 248.942 315.544 245.879C247.18 193.374 235.482 176.747 232.908 168.103Z" fill="#03A9F4"/>
<path d="M261.526 297.269C229.321 273.692 175.417 234.25 162.151 189.777C160.613 184.929 155.291 182.201 150.265 183.686C145.362 185.134 142.529 190.068 143.859 194.845C158.858 245.194 215.921 286.95 250.01 311.904C256.938 316.717 263.609 321.865 269.996 327.329C273.776 330.851 279.801 330.751 283.453 327.104C287.016 323.546 287.016 317.904 283.453 314.347C276.483 308.261 269.163 302.559 261.526 297.269Z" fill="#03A9F4"/>
<path d="M211.538 355.786C202.659 341.463 186.304 331.804 167.72 329.906C137.851 329.906 133.23 374.057 132.58 382.903C132.279 387.113 135.96 390.738 140.802 391H141.365C146.011 391.008 149.862 387.868 150.15 383.835C151.257 368.1 158.179 345.184 167.72 345.184C180.739 345.184 189.98 356.092 197.395 364.846C199.844 367.882 202.527 370.771 205.424 373.493C208.914 376.424 214.475 376.34 217.846 373.305C221.135 370.345 221.135 365.652 217.846 362.692C215.574 360.511 213.466 358.204 211.538 355.786Z" fill="#03A9F4"/>
<path d="M129.979 274.881C128.332 270.105 123.307 267.635 118.757 269.364C114.476 270.99 112.095 275.785 113.277 280.398C120.779 304.988 106.038 353.248 83.867 360.807C79.2481 362.324 76.6758 367.483 78.1209 372.33C79.5669 377.176 84.4832 379.876 89.1021 378.359C89.1629 378.339 89.2228 378.319 89.2828 378.297C123.003 366.895 139.268 305.43 129.979 274.881Z" fill="#03A9F4"/>
<path d="M323.571 151.8C312.149 148.27 303.175 134.151 292.776 118.037C270.773 83.6911 240.6 36.6562 156.278 36.6562C70.5271 36.7539 1.03773 103.863 0.9375 186.675C0.9375 191.549 5.02889 195.5 10.0755 195.5C15.122 195.5 19.2134 191.549 19.2134 186.675C19.2939 113.602 80.6125 54.3838 156.278 54.306C230.421 54.306 256.391 94.7936 277.261 127.338C289.542 146.488 300.142 163.025 317.942 168.602C322.725 170.158 327.908 167.675 329.519 163.057C331.131 158.438 328.56 153.433 323.778 151.877C323.715 151.856 323.653 151.837 323.589 151.817L323.571 151.8Z" fill="#03A9F4"/>
<path d="M22.8757 256.594C28.9335 256.594 33.8448 253.311 33.8438 249.262C33.8438 248.122 33.4458 246.998 32.6817 245.978C28.0008 240.113 24.6927 233.804 22.8757 227.269C22.8757 223.22 17.9644 219.938 11.9066 219.938C5.84876 219.938 0.9375 223.22 0.9375 227.269C2.69798 236.111 6.80715 244.671 13.0686 252.548C14.9299 255.027 18.7254 256.594 22.8757 256.594Z" fill="#03A9F4"/>
<path d="M16.3273 71.9719C20.6655 74.6059 26.3267 73.2391 28.971 68.9178C28.9762 68.9092 28.9814 68.9015 28.9857 68.8929C36.9713 55.7702 76.3083 18.3272 149.906 18.3272C220.633 18.3272 270.955 54.0107 280.025 68.8929C282.662 73.2202 288.322 74.5982 292.666 71.9719C297.01 69.3457 298.393 63.7083 295.757 59.381C283.135 38.6707 227.404 0 149.906 0C67.4957 0 23.3193 42.8682 13.2362 59.399C10.61 63.722 11.9934 69.3465 16.3273 71.9719Z" fill="#03A9F4"/>
</svg>
