<svg width="341" height="356" viewBox="0 0 341 356" fill="none" xmlns="http://www.w3.org/2000/svg">
<path d="M207.923 161.16C199.386 139.719 171.935 128.197 146.609 135.424C122.872 142.197 109.165 163.186 115.011 183.807C132.432 235.082 196.154 281.096 254.514 320.195C258.705 323.005 264.792 322.408 268.112 318.86C271.431 315.312 270.725 310.158 266.534 307.347C210.516 269.822 149.447 225.888 133.613 179.283C129.181 166.228 138.09 152.604 153.511 148.853C168.933 145.101 185.025 152.643 189.457 165.699C200.025 196.834 252.578 235.311 302.576 268.805C306.767 271.615 312.854 271.018 316.174 267.469C319.493 263.921 318.788 258.768 314.597 255.957C288.195 238.309 218.279 191.475 207.923 161.16Z" fill="#03A9F4"/>
<path d="M279.003 139.392C258.64 85.6826 192.666 55.3433 129.441 70.6116C64.8022 86.5672 27.4376 144.582 45.9855 200.189C45.9987 200.228 46.0119 200.268 46.0251 200.308C61.4049 246.269 28.4351 259.016 17.9261 261.82C12.9912 263.154 10.2489 267.679 11.8005 271.924C13.3521 276.169 18.611 278.528 23.5458 277.194C52.1884 269.491 80.0064 243.577 64.0269 195.843C48.2739 148.805 79.829 99.6878 134.506 86.1359C134.535 86.1291 134.564 86.1215 134.592 86.1147C188.655 73.0417 244.983 99.4 261.6 145.548C261.821 146.176 262.136 146.778 262.537 147.337C263.51 148.723 265.515 151.639 325.722 193.668C329.735 196.476 335.636 195.953 338.9 192.499C342.164 189.046 341.556 183.97 337.542 181.162C315.662 165.885 283.686 143.179 279.003 139.392Z" fill="#03A9F4"/>
<path d="M240.385 152.778C227.223 114.088 179.785 91.7398 134.281 102.792C89.5999 114.534 63.6667 154.11 75.4053 192.64C94.6558 267.27 80.2655 284.5 40.7738 295.013C35.7528 296.357 32.9627 300.912 34.5413 305.186C36.12 309.46 41.4707 311.835 46.4917 310.491C101.669 295.889 113.658 265.193 94.1403 189.152C84.6585 159 104.705 127.83 139.655 118.383C175.068 109.825 211.952 127.223 222.202 157.321C226.014 168.385 236.135 183.571 314.184 236.153C318.31 238.935 324.304 238.343 327.573 234.83C330.841 231.318 330.146 226.216 326.02 223.433C255.175 175.735 243.053 160.631 240.385 152.778Z" fill="#03A9F4"/>
<path d="M270.042 270.118C236.669 248.7 180.809 212.869 167.062 172.468C165.468 168.063 159.953 165.586 154.745 166.934C149.664 168.25 146.728 172.732 148.106 177.072C163.649 222.811 222.782 260.744 258.109 283.413C265.288 287.785 272.2 292.461 278.819 297.425C282.736 300.625 288.98 300.534 292.764 297.221C296.456 293.988 296.456 288.864 292.764 285.632C285.542 280.103 277.955 274.924 270.042 270.118Z" fill="#03A9F4"/>
<path d="M218.241 323.277C209.04 310.265 192.092 301.491 172.832 299.767C141.88 299.767 137.092 339.875 136.418 347.911C136.106 351.735 139.921 355.028 144.939 355.267H145.522C150.337 355.274 154.327 352.421 154.626 348.758C155.773 334.463 162.946 313.646 172.832 313.646C186.324 313.646 195.901 323.555 203.584 331.507C206.123 334.265 208.902 336.89 211.905 339.363C215.521 342.025 221.284 341.948 224.777 339.192C228.185 336.503 228.185 332.24 224.777 329.55C222.423 327.569 220.239 325.474 218.241 323.277Z" fill="#03A9F4"/>
<path d="M133.723 249.779C132.016 245.441 126.809 243.197 122.093 244.768C117.658 246.245 115.19 250.601 116.415 254.792C124.189 277.13 108.913 320.971 85.938 327.838C81.1515 329.216 78.4859 333.903 79.9834 338.306C81.4819 342.709 86.5765 345.161 91.3629 343.783C91.4259 343.765 91.4881 343.747 91.5502 343.727C126.494 333.369 143.349 277.531 133.723 249.779Z" fill="#03A9F4"/>
<path d="M334.337 137.968C322.501 134.761 313.202 121.935 302.426 107.296C279.625 76.0951 248.357 33.3667 160.975 33.3667C72.1142 33.4554 0.103865 94.4196 0 169.65C0 174.077 4.23982 177.667 9.46945 177.667C14.6991 177.667 18.9389 174.077 18.9389 169.65C19.0224 103.267 82.5654 49.4711 160.976 49.4005C237.809 49.4005 264.72 86.181 286.348 115.746C299.075 133.142 310.059 148.165 328.505 153.231C333.461 154.645 338.832 152.39 340.502 148.194C342.172 143.998 339.508 139.451 334.552 138.038C334.487 138.019 334.423 138.002 334.357 137.984L334.337 137.968Z" fill="#03A9F4"/>
<path d="M22.734 233.167C29.0116 233.167 34.1011 230.185 34.1 226.506C34.1 225.471 33.6876 224.449 32.8958 223.523C28.0451 218.195 24.617 212.464 22.734 206.527C22.734 202.849 17.6446 199.867 11.367 199.867C5.08942 199.867 0 202.849 0 206.527C1.82435 214.559 6.08258 222.336 12.5712 229.491C14.5 231.744 18.4332 233.167 22.734 233.167Z" fill="#03A9F4"/>
<path d="M15.9481 65.4488C20.4436 67.8417 26.3102 66.6 29.0505 62.6744C29.0559 62.6666 29.0612 62.6595 29.0657 62.6517C37.341 50.7305 78.1051 16.7158 154.373 16.7158C227.665 16.7158 279.813 49.1322 289.212 62.6517C291.945 66.5828 297.809 67.8346 302.311 65.4488C306.813 63.063 308.247 57.9418 305.515 54.0107C292.434 35.1966 234.682 0.0666504 154.373 0.0666504C68.9727 0.0666504 23.1937 39.0099 12.7448 54.0271C10.0234 57.9543 11.4569 63.0638 15.9481 65.4488Z" fill="#03A9F4"/>
</svg>
