<svg width="621" height="560" viewBox="0 0 621 560" fill="none" xmlns="http://www.w3.org/2000/svg">
<g filter="url(#filter0_d)">
<path d="M169.804 0C76.5676 0 1 74.1803 1 165.706C1 325.018 189.253 477.243 277.203 545.033C277.286 545.099 277.37 545.165 277.454 545.231C278.057 545.695 278.876 546.357 279.469 546.813L279.52 546.764C288.443 553.383 299.316 556.975 310.5 557C321.701 556.986 332.594 553.393 341.531 546.764V546.813C341.704 546.68 341.961 546.503 342.135 546.368C342.268 546.266 342.455 546.125 342.588 546.022C342.757 545.875 342.925 545.727 343.092 545.577C430.769 478.03 620 325.398 620 165.706C620 74.1803 544.432 0 451.196 0C362.085 0 310.5 75.9545 310.5 75.9545C310.5 75.9545 258.915 0 169.804 0Z" fill="#F39D0B"/>
<path d="M277.668 544.445L277.66 544.439C233.691 510.548 164.69 455.582 106.685 389.196C48.6608 322.79 1.75 245.082 1.75 165.706C1.75 74.6076 76.9686 0.75 169.804 0.75C214.137 0.75 249.152 19.643 273.104 38.5658C285.078 48.0259 294.278 57.4865 300.483 64.5804C303.585 68.127 305.938 71.0809 307.513 73.1458C308.301 74.1782 308.894 74.9883 309.29 75.5391C309.488 75.8144 309.636 76.0249 309.734 76.166C309.784 76.2365 309.82 76.2896 309.845 76.3248L309.871 76.364L309.878 76.3734L309.879 76.3755C309.879 76.3757 309.88 76.3758 309.971 76.3138L309.88 76.3759L310.5 77.2895L311.12 76.3759L310.5 75.9545C311.12 76.3759 311.12 76.3759 311.121 76.3755L311.122 76.3734L311.129 76.364L311.155 76.3248C311.18 76.2896 311.216 76.2365 311.266 76.166C311.364 76.0249 311.512 75.8144 311.71 75.5391C312.106 74.9883 312.699 74.1782 313.487 73.1458C315.062 71.0809 317.415 68.127 320.517 64.5804C326.722 57.4865 335.922 48.0259 347.896 38.5658C371.848 19.643 406.863 0.75 451.196 0.75C544.031 0.75 619.25 74.6076 619.25 165.706C619.25 245.271 572.095 323.176 513.861 389.702C455.645 456.206 386.468 511.214 342.634 544.983L342.613 545L342.592 545.018C342.489 545.111 342.385 545.203 342.281 545.295V545.274L341.084 546.162C332.277 552.694 321.542 556.236 310.501 556.25C299.476 556.225 288.76 552.684 279.967 546.162L279.452 545.78L279.413 545.818C279.257 545.695 279.095 545.567 278.931 545.437C278.579 545.159 278.221 544.875 277.916 544.64C277.833 544.575 277.75 544.51 277.668 544.445Z" stroke="#F39D0B" stroke-width="1.5"/>
</g>
<defs>
<filter id="filter0_d" x="0" y="0" width="621" height="560" filterUnits="userSpaceOnUse" color-interpolation-filters="sRGB">
<feFlood flood-opacity="0" result="BackgroundImageFix"/>
<feColorMatrix in="SourceAlpha" type="matrix" values="0 0 0 0 0 0 0 0 0 0 0 0 0 0 0 0 0 0 127 0"/>
<feOffset dy="2"/>
<feGaussianBlur stdDeviation="0.5"/>
<feColorMatrix type="matrix" values="0 0 0 0 0 0 0 0 0 0 0 0 0 0 0 0 0 0 0.25 0"/>
<feBlend mode="normal" in2="BackgroundImageFix" result="effect1_dropShadow"/>
<feBlend mode="normal" in="SourceGraphic" in2="effect1_dropShadow" result="shape"/>
</filter>
</defs>
</svg>
