<svg height="512pt" viewBox="0 0 512 512.0015" width="512pt" xmlns="http://www.w3.org/2000/svg"><path d="m137.691406 452c-2.628906 0-5.210937 1.070312-7.070312 2.929688-1.859375 1.859374-2.929688 4.441406-2.929688 7.070312s1.070313 5.210938 2.929688 7.070312c1.859375 1.859376 4.441406 2.929688 7.070312 2.929688s5.210938-1.070312 7.070313-2.929688c1.859375-1.859374 2.929687-4.441406 2.929687-7.070312s-1.070312-5.210938-2.929687-7.070312c-1.859375-1.859376-4.441407-2.929688-7.070313-2.929688zm0 0"/><path d="m508.683594 297.648438-45.71875-41.070313 45.71875-41.074219c2.640625-2.371094 3.824218-5.960937 3.117187-9.433594-.710937-3.476562-3.207031-6.316406-6.5625-7.464843l-119.238281-40.785157v-105.539062c0-4.242188-2.675781-8.019531-6.675781-9.429688l-120-42.28125c-2.148438-.761718-4.496094-.761718-6.644531 0l-120 42.28125c-4.003907 1.410157-6.679688 5.1875-6.679688 9.429688v106.511719l-119.167969 39.789062c-3.375 1.125-5.898437 3.964844-6.621093 7.449219-.726563 3.484375.460937 7.09375 3.105468 9.472656l45.71875 41.070313-45.714844 41.074219c-2.644531 2.375-3.828124 5.972656-3.113281 9.453124.71875 3.480469 3.226563 6.320313 6.59375 7.457032l47.199219 15.960937v106.566407c0 4.289062 2.734375 8.101562 6.796875 9.472656l39.835937 13.46875c1.0625.359375 2.140626.53125 3.203126.53125 4.171874 0 8.0625-2.632813 9.472656-6.800782 1.769531-5.230468-1.039063-10.90625-6.269532-12.675781l-33.039062-11.171875v-92.628906l124.796875 42.191406c1.050781.355469 2.128906.527344 3.203125.527344 2.429688 0 4.820312-.886719 6.683594-2.558594l37.316406-33.523437v144.148437l-72.027344-24.355468c-5.234375-1.769532-10.90625 1.039062-12.675781 6.273437-1.769531 5.230469 1.039063 10.90625 6.269531 12.675781l85.230469 28.8125c1.046875.355469 2.128906.527344 3.203125.527344 1.085938 0 2.164062-.179688 3.195312-.527344.003907 0 .003907.003906.007813 0l192-64.914062c4.0625-1.371094 6.796875-5.183594 6.796875-9.472656v-106.566407l47.203125-15.960937c3.367187-1.136719 5.875-3.976563 6.59375-7.457032.714844-3.480468-.46875-7.078124-3.113281-9.453124zm-382.683594-30.664063-30.777344-10.40625 30.777344-10.40625zm20-200.574219 100 35.238282v205.90625l-100-33.808594zm120 35.238282 100-35.238282v207.335938l-100 33.808594zm120 144.523437 30.777344 10.40625-30.777344 10.40625zm96.644531-34.160156-36.980469 33.21875-59.664062-20.171875v-46.097656zm-226.644531-191.410157 89.910156 31.683594-89.910156 31.679688-89.910156-31.679688zm-130 159.277344v45.179688l-59.664062 20.171875-36.871094-33.121094zm73.664062 178.777344-170.253906-57.5625 36.925782-33.171875 170.257812 57.5625zm238.335938 71.253906-172 58.152344v-144.144531l37.316406 33.523437c1.863282 1.671875 4.253906 2.558594 6.683594 2.558594 1.074219 0 2.15625-.171875 3.203125-.527344l124.796875-42.191406zm-125.664062-71.253906-36.925782-33.171875 170.253906-57.5625 36.929688 33.171875zm0 0"/></svg>