<svg width="168" height="159" viewBox="0 0 168 159" fill="none" xmlns="http://www.w3.org/2000/svg">
<g filter="url(#filter0_d)">
<path d="M78.2163 145.827L78.1927 145.807L78.1688 145.789C66.415 136.509 48.226 121.652 32.9945 103.797C17.6493 85.8089 6 65.5732 6 45.517C6 23.1119 24.0524 5 46.269 5C56.6997 5 65.0539 9.54689 70.9507 14.3186C73.8866 16.6944 76.1461 19.0746 77.6628 20.8507C78.4188 21.736 78.9835 22.4633 79.3491 22.954C79.5316 23.1991 79.664 23.3844 79.745 23.5C79.7856 23.5578 79.8132 23.5981 79.8279 23.6197L79.8328 23.6267L79.8348 23.6297L79.8365 23.6323L79.839 23.6359L79.8399 23.6373L79.8402 23.6378L84 29.9115L88.1598 23.6378L88.161 23.6359L88.1635 23.6323L88.1652 23.6297L88.1672 23.6267L88.1721 23.6197C88.1868 23.5981 88.2144 23.5578 88.255 23.5C88.336 23.3844 88.4684 23.1991 88.6509 22.954C89.0165 22.4633 89.5812 21.736 90.3372 20.8507C91.8539 19.0746 94.1134 16.6944 97.0494 14.3186C102.946 9.54689 111.3 5 121.731 5C143.948 5 162 23.1119 162 45.517C162 65.6213 150.289 85.9097 134.886 103.933C119.598 121.822 101.362 136.69 89.6431 145.937L89.4977 146.052L89.4817 146.067L89.2969 146.207C87.7685 147.368 85.9099 147.996 84.0013 148C82.0965 147.993 80.242 147.366 78.7167 146.207L78.2237 145.832L78.2163 145.827Z" stroke="#F39D0B" stroke-width="10"/>
</g>
<defs>
<filter id="filter0_d" x="0" y="0" width="168" height="159" filterUnits="userSpaceOnUse" color-interpolation-filters="sRGB">
<feFlood flood-opacity="0" result="BackgroundImageFix"/>
<feColorMatrix in="SourceAlpha" type="matrix" values="0 0 0 0 0 0 0 0 0 0 0 0 0 0 0 0 0 0 127 0"/>
<feOffset dy="5"/>
<feGaussianBlur stdDeviation="0.5"/>
<feColorMatrix type="matrix" values="0 0 0 0 0 0 0 0 0 0 0 0 0 0 0 0 0 0 0.25 0"/>
<feBlend mode="normal" in2="BackgroundImageFix" result="effect1_dropShadow"/>
<feBlend mode="normal" in="SourceGraphic" in2="effect1_dropShadow" result="shape"/>
</filter>
</defs>
</svg>
