<svg width="32" height="32" viewBox="0 0 32 32" fill="none" xmlns="http://www.w3.org/2000/svg">
<path d="M15.9995 6.46661C15.1779 6.46661 14.3872 6.71376 13.7129 7.18134C13.5135 7.31956 13.4631 7.59443 13.6003 7.79529C13.7375 7.99615 14.0103 8.04689 14.2097 7.90872C14.7372 7.54292 15.3561 7.34956 15.9995 7.34956C17.7429 7.34956 19.1612 8.77855 19.1612 10.535C19.1612 12.2915 17.7429 13.7205 15.9995 13.7205C14.2561 13.7205 12.8378 12.2915 12.8378 10.535C12.8378 10.0169 12.9572 9.52292 13.1927 9.06695C13.3043 8.85062 13.2209 8.58408 13.0062 8.47158C12.7915 8.35913 12.527 8.4431 12.4153 8.65943C12.1184 9.23435 11.9614 9.88292 11.9614 10.535C11.9615 12.7784 13.7729 14.6035 15.9995 14.6035C18.226 14.6035 20.0375 12.7784 20.0375 10.535C20.0375 8.29169 18.226 6.46661 15.9995 6.46661Z" fill="#03A9F4" stroke="#03A9F4" stroke-width="0.5"/>
<path d="M30.9663 30.3889L26.6419 19.9203C26.5739 19.7557 26.4144 19.6485 26.2374 19.6485H21.928C22.7662 18.506 23.4639 17.368 24.0087 16.2507C24.9744 14.2706 25.4639 12.3476 25.4639 10.5351C25.4639 5.2774 21.2184 1 16 1C10.7816 1 6.53608 5.2774 6.53608 10.535C6.53608 12.3476 7.02563 14.2706 7.99126 16.2507C8.53606 17.368 9.23374 18.506 10.072 19.6484H5.76259C5.58563 19.6484 5.42602 19.7557 5.35811 19.9202L2.41132 27.0538C2.31833 27.2789 2.42403 27.5373 2.64745 27.6309C2.70253 27.654 2.75948 27.665 2.81561 27.665C2.98729 27.665 3.15024 27.5627 3.22026 27.393L3.64073 26.3751H6.6235L5.0778 30.1171H2.09509L2.54315 29.0323C2.63614 28.8072 2.53044 28.5488 2.30702 28.4552C2.08349 28.3613 1.82708 28.468 1.73415 28.693L1.03366 30.3889C0.977352 30.5252 0.992352 30.6808 1.07368 30.8035C1.15489 30.9262 1.29165 31 1.43813 31H30.5618C30.7082 31 30.845 30.9262 30.9263 30.8035C31.0076 30.6808 31.0226 30.5252 30.9663 30.3889ZM7.41241 10.535C7.41241 5.7642 11.2648 1.88289 16 1.88289C20.7352 1.88289 24.5875 5.76426 24.5875 10.535C24.5875 12.5356 23.8976 15.7325 20.706 19.8064C20.7028 19.8102 20.6999 19.8142 20.6968 19.8181C20.5338 20.026 20.3645 20.236 20.1882 20.4484C18.4344 22.5614 16.6596 24.1044 15.9999 24.6526C15.3422 24.1063 13.5758 22.5711 11.8232 20.4621C11.6425 20.2447 11.4691 20.0297 11.3023 19.817C11.2996 19.8136 11.2971 19.8101 11.2943 19.8067C8.10282 15.7331 7.41241 12.5363 7.41241 10.535ZM6.05479 20.5313H9.03763L7.94966 23.165H4.96688L6.05479 20.5313ZM8.61698 30.1171L11.3557 23.4873L19.1495 30.1171H8.61698ZM20.5079 30.1171L11.4638 22.4237C11.3571 22.3329 11.2136 22.2988 11.078 22.332C10.9423 22.3651 10.8303 22.4615 10.7767 22.5914L7.66788 30.1171H6.02702L7.68499 26.1033C7.7413 25.967 7.7263 25.8115 7.64497 25.6887C7.56376 25.566 7.42694 25.4922 7.28046 25.4922H4.00559L4.6022 24.0479H8.24192C8.41888 24.0479 8.57849 23.9406 8.6464 23.776L9.98679 20.5313H10.7472C10.8792 20.6971 11.0134 20.863 11.1512 21.0288C13.412 23.7493 15.6382 25.4959 15.7318 25.569C15.8108 25.6306 15.9054 25.6613 16 25.6613C16.0945 25.6613 16.1892 25.6305 16.2681 25.569C16.3196 25.5289 17.0156 24.9825 18.0067 24.0479H22.9685C23.2105 24.0479 23.4067 23.8503 23.4067 23.6065C23.4067 23.3627 23.2105 23.165 22.9685 23.165H18.9098C19.5173 22.5496 20.1813 21.8321 20.8488 21.0289C20.9866 20.863 21.1208 20.6972 21.2528 20.5313H25.9451L27.0331 23.165H24.7211C24.4791 23.165 24.283 23.3627 24.283 23.6065C24.283 23.8503 24.4791 24.0479 24.7211 24.0479H27.3977L27.9943 25.4922H18.9668C18.7839 25.4922 18.6203 25.6066 18.5563 25.7792C18.4924 25.9519 18.5415 26.1463 18.6796 26.2671L23.0819 30.1171H20.5079ZM24.4188 30.1171L20.14 26.3752H28.3591L29.9049 30.1171H24.4188Z" fill="#03A9F4" stroke="#03A9F4" stroke-width="0.8"/>
</svg>
