<svg width="981" height="860" viewBox="0 0 981 860" fill="none" xmlns="http://www.w3.org/2000/svg">
<path d="M77.71 4.55004C73.61 6.71004 68 12.32 65.41 16.85C60.66 24.84 60.45 27.64 60.45 72.76V120.25L45.99 140.76C3.90001 200.98 0.0100098 207.46 0.0100098 216.09C0.0100098 226.88 6.49001 248.04 13.61 259.91C20.73 272.21 38.22 288.4 50.52 294.45L60.45 299.2V489.14C60.45 671.97 60.67 679.74 64.77 688.37C67.14 693.77 71.89 699.38 75.99 701.97C82.9 706.07 86.57 706.29 240.25 706.29H397.18V737.59V768.89H321.42H245.65L238.31 776.23L230.97 783.57V817.24C230.97 848.97 231.19 850.91 235.72 855.23C240.47 859.55 241.76 859.55 505.32 859.55C762.83 859.55 770.17 859.34 775.14 855.45C780.11 851.35 780.32 850.27 780.32 820.27C780.32 798.69 779.46 787.25 777.3 782.28C771.69 769.11 770.18 768.9 687.51 768.9H613.04V737.6V706.3H755.07C893.43 706.3 897.1 706.09 904.01 701.98C908.11 699.39 912.86 693.78 915.23 688.38C919.33 679.75 919.55 671.97 919.55 492.17V305.03L932.72 298.12C963.16 281.72 984.74 241.57 979.13 211.35C978.27 206.82 966.4 187.61 948.7 162.14L919.56 120.26V73.85C919.56 29.82 919.35 26.79 914.81 17.73C911.79 11.9 907.04 6.94004 902.29 4.35004C895.17 0.680036 877.68 0.470056 490.01 0.470056C99.94 0.450056 84.83 0.670036 77.71 4.55004ZM889.32 52.69C889.32 74.06 889.32 74.4901 885.22 70.8201C874.21 60.6701 886.95 61.11 492.15 61.11C276.73 61.11 116.35 61.76 111.39 63.05C106.64 64.13 100.16 66.93 96.71 69.53L90.67 74.06V52.26V30.6701H490H889.33V52.69H889.32ZM190.6 92.6201C191.68 94.5601 167.29 210.47 165.13 213.93C164.27 215.44 142.03 216.3 97.78 216.3C44.03 216.3 32.16 215.87 33.02 213.49C34.32 210.25 110.94 100.6 116.12 94.7701C118.93 91.5301 123.67 91.1 154.54 91.1C173.98 91.11 190.17 91.7601 190.6 92.6201ZM306.51 94.78C306.51 103.85 295.5 212.63 294.42 214.36C293.12 216.52 196.42 217.17 196.42 215.01C196.42 212.2 222.75 94.35 223.62 92.84C224.27 91.98 243.05 91.11 265.71 91.11C303.06 91.11 306.51 91.33 306.51 94.78ZM423.07 96.94C423.07 104.93 412.28 210.05 411.2 213.5C410.55 215.66 400.19 216.31 369.32 216.31C346.87 216.31 327.88 215.66 327.44 214.58C326.79 213.5 337.58 94.35 338.66 91.54C338.88 91.32 357.87 91.11 380.97 91.11H423.06V96.94H423.07ZM524.52 91.54C527.76 117.44 536.82 213.5 535.96 214.58C534.67 216.74 445.3 216.74 443.79 214.58C443.36 213.72 445.73 185.87 449.19 152.63C452.64 119.39 455.45 91.98 455.45 91.54C455.45 91.32 470.99 91.11 489.99 91.11C508.98 91.11 524.52 91.33 524.52 91.54ZM641.3 91.54C642.38 94.56 652.96 214.58 652.09 215.22C651.66 215.87 632.88 216.3 610.43 216.3C579.78 216.3 569.42 215.65 568.77 213.49C567.69 210.25 556.9 105.13 556.9 96.93V91.1H598.99C622.09 91.11 641.08 91.33 641.3 91.54ZM756.35 93.05C757.43 94.56 783.55 212.2 783.55 215.01C783.55 217.17 686.85 216.52 685.55 214.58C684.47 212.64 673.46 104.49 673.46 95.43C673.46 91.33 674.75 91.11 714.26 91.11C736.92 91.11 755.7 91.97 756.35 93.05ZM879.39 115.93C903.78 149.82 945.65 210.26 946.95 213.5C948.46 217.39 817.01 217.6 814.63 213.93C812.47 210.26 788.3 94.5601 789.38 92.6201C790.03 91.7601 806.43 91.32 826.29 91.54L862.12 92.19L879.39 115.93ZM144.84 252.35C127.14 274.58 91.74 283 67.13 270.48C57.2 265.3 45.98 256.23 42.95 250.62C41.01 246.73 42.52 246.52 94.97 246.52H149.15L144.84 252.35ZM287.08 248.04C287.08 251.92 274.99 264.44 265.93 269.63C252.55 277.62 230.31 278.05 216.72 270.92C208.09 266.17 194.27 252.57 194.27 248.69C194.27 247.39 212.4 246.53 240.68 246.53C266.15 246.52 287.08 247.17 287.08 248.04ZM416.6 248.04C416.6 251.71 404.51 264.44 396.09 269.19C372.56 283.22 338.24 275.23 325.29 253.22L321.4 246.53H368.89C395.23 246.52 416.6 247.17 416.6 248.04ZM535.32 248.47C535.32 250.63 527.12 261.42 522.37 265.52C515.46 271.56 501.43 276.74 492.15 276.74C482.87 276.74 468.84 271.56 461.93 265.52C457.18 261.42 448.98 250.63 448.98 248.47C448.98 247.39 468.41 246.53 492.15 246.53C515.89 246.52 535.32 247.39 535.32 248.47ZM658.35 248.9C658.35 250.41 653.82 256.02 648.2 261.63C632.01 277.82 613.66 280.84 594.02 271.13C584.09 266.17 572 253.65 572 248.25C572 247.17 591.43 246.52 615.17 246.52C646.05 246.52 658.35 247.17 658.35 248.9ZM777.72 253.22C768.44 269.41 748.15 278.69 728.94 275.88C717.5 274.15 703.68 264.66 696.78 253.43L692.46 246.52H737.14H781.82L777.72 253.22ZM941.12 248.68C941.12 249.98 936.37 255.59 930.76 261.42C904.43 287.75 861.47 283.65 839.67 253L835.14 246.52H888.02C923.64 246.52 941.12 247.17 941.12 248.68ZM821.75 279.55L828.87 287.54L828.44 404.75L827.8 521.74H489.99H152.18L151.53 405.18L151.1 288.4L160.81 278.9L170.52 269.4L178.07 278.25C207.43 312.79 259.23 316.02 295.49 285.59L305.42 277.17L315.78 286.67C330.24 299.84 346.22 305.45 369.1 305.66C385.29 305.66 389.17 305.01 401.48 299.18C409.25 295.51 419.4 289.25 423.71 285.37L431.7 278.46L437.74 284.29C466.45 313.21 513.72 313.86 544.59 285.59L554.09 276.96L562.29 285.38C566.61 289.91 576.32 296.39 583.66 299.63C594.45 304.81 599.85 305.89 614.09 305.89C635.24 305.89 647.76 301.57 664.17 288.19L676.04 278.48L684.03 286.03C711.23 312.8 758.07 313.23 786.56 287.33C793.04 281.5 800.59 273.08 803.18 268.98L807.71 261.43L811.16 266.4C813.12 269.19 817.87 275.02 821.75 279.55ZM120.88 418.99C120.88 494.54 121.74 537.49 123.04 541.6C124.34 545.27 127.79 549.15 130.81 550.67C138.58 554.12 841.4 554.12 849.17 550.67C852.19 549.16 855.65 545.27 856.94 541.6C858.23 537.5 859.1 494.76 859.1 419.64C859.1 310.63 859.31 304.37 862.98 305.88C864.92 306.74 871.83 307.82 878.09 308.47L889.31 309.76V446.4V583.25H489.99H90.66V445.32V307.18L101.02 305.88C106.63 305.23 112.68 304.15 114.4 303.94C116.13 303.51 118.29 303.08 119.36 302.86C120.23 302.86 120.88 354.88 120.88 418.99ZM760.45 615.2L889.31 615.63V645.85V676.07H489.99H90.66V644.77V613.26L361.12 613.91C509.63 614.34 689.44 614.77 760.45 615.2ZM581.72 737.59V767.81H505.1H428.47L427.82 739.96C427.6 724.42 427.82 710.6 428.25 709.09C429.11 706.72 444.22 706.28 505.53 706.72L581.73 707.37V737.59H581.72ZM751.17 814.22V829.33H506.18H261.18V814.22V799.11H506.17H751.16V814.22H751.17Z" fill="#03A9F4"/>
<path d="M189.09 341.72L183.48 346.04V414.03C183.48 479 183.7 482.02 187.8 486.12C191.9 490.22 194.92 490.44 259.89 490.44H327.88L332.2 484.83C336.52 479.22 336.73 476.62 336.73 415.76C336.73 373.02 335.87 350.79 334.36 347.12C332.85 344.1 328.96 340.64 325.29 339.35C321.4 338.05 294.64 337.19 256.86 337.19C197.29 337.18 194.7 337.4 189.09 341.72ZM306.08 414.24L306.51 460.22H260.1H213.69V413.81V367.4L259.67 367.83L305.43 368.48L306.08 414.24Z" fill="#03A9F4"/>
<path d="M368.46 338.48C367.6 339.34 366.95 346.25 366.95 353.81V367.4H413.36H459.98L459.33 352.72L458.68 338.26L414.21 337.61C389.83 337.4 369.33 337.83 368.46 338.48Z" fill="#03A9F4"/>
<path d="M366.95 414.89V430H474.88H582.8V414.89V399.78H474.88H366.95V414.89Z" fill="#03A9F4"/>
<path d="M366.95 475.33V490.44H474.88H583.02L582.37 475.76L581.72 461.3L474.44 460.65L366.95 460.22V475.33V475.33Z" fill="#03A9F4"/>
</svg>
