<svg width="537" height="559" viewBox="0 0 537 559" fill="none" xmlns="http://www.w3.org/2000/svg">
<path d="M55.6731 5.00001C5.65684 5.00001 5 35.5 5 45.6667V508.25C5 513.333 5.65684 554 55.6731 554H481.327C531.343 554 532 523.5 532 513.333V50.75C532 45.6667 531.343 5 481.327 5L55.6731 5.00001ZM55.6731 25.3333H481.327C498.442 25.3333 511.731 36.442 511.731 50.75V508.25C511.731 522.558 498.442 533.667 481.327 533.667H55.6731C38.5576 533.667 25.2692 522.558 25.2692 508.25V50.75C25.2692 36.442 38.5576 25.3333 55.6731 25.3333ZM86.0769 137.167V177.833H450.923V137.167H268.5H86.0769ZM86.0769 279.5V330.333H136.75V279.5H86.0769ZM207.692 279.5V330.333H450.923V279.5H207.692ZM86.0769 381.167V432H136.75V381.167H86.0769ZM207.692 381.167V432H450.923V381.167H207.692Z" fill="#03A9F4" stroke="#03A9F4" stroke-width="10"/>
</svg>
