<svg width="366" height="366" viewBox="0 0 366 366" fill="none" xmlns="http://www.w3.org/2000/svg">
<path d="M213.5 268C223.717 268 232 259.941 232 250C232 240.059 223.717 232 213.5 232C203.283 232 195 240.059 195 250C195 259.941 203.283 268 213.5 268Z" fill="#03A9F4"/>
<path d="M262.5 268C272.717 268 281 259.941 281 250C281 240.059 272.717 232 262.5 232C252.283 232 244 240.059 244 250C244 259.941 252.283 268 262.5 268Z" fill="#03A9F4"/>
<path d="M311 268C320.941 268 329 259.941 329 250C329 240.059 320.941 232 311 232C301.059 232 293 240.059 293 250C293 259.941 301.059 268 311 268Z" fill="#03A9F4"/>
<path d="M164.5 268C174.717 268 183 259.941 183 250C183 240.059 174.717 232 164.5 232C154.283 232 146 240.059 146 250C146 259.941 154.283 268 164.5 268Z" fill="#03A9F4"/>
<path d="M342.298 197.077H302.348V175.962C302.348 156.557 284.501 140.769 262.565 140.769H254.609V126.692C254.609 118.929 247.472 112.615 238.696 112.615H222.783V63.3462C222.783 28.4143 190.662 0 151.174 0C111.686 0 79.5652 28.4143 79.5652 63.3462V112.615H63.6522C54.8761 112.615 47.7391 118.929 47.7391 126.692V140.769H39.7826C17.8465 140.769 0 156.557 0 175.962V330.808C0 350.213 17.8465 366 39.7826 366H262.565C284.501 366 302.348 350.213 302.348 330.808V309.692H342.298C355.362 309.692 366 300.282 366 288.725V218.045C366 206.487 355.362 197.077 342.298 197.077ZM238.696 140.769H190.957V126.692H238.696V140.769ZM95.4783 63.3462C95.4783 36.1847 120.47 14.0769 151.174 14.0769C181.878 14.0769 206.87 36.1847 206.87 63.3462V112.615H190.957C182.18 112.615 175.043 118.929 175.043 126.692V140.769H127.304V126.692C127.304 118.929 120.167 112.615 111.391 112.615H95.4783V63.3462ZM63.6522 126.692H111.391V140.769H63.6522V126.692ZM286.435 330.808C286.435 342.449 275.725 351.923 262.565 351.923H206.87C206.87 344.16 199.733 337.846 190.957 337.846H111.391C102.615 337.846 95.4783 344.16 95.4783 351.923H39.7826C26.6225 351.923 15.913 342.449 15.913 330.808V302.654H47.7391V288.577H15.913V274.5H47.7391V260.423H15.913V246.346H47.7391V232.269H15.913V218.192H47.7391V204.115H15.913V175.962C15.913 164.32 26.6225 154.846 39.7826 154.846H262.565C275.725 154.846 286.435 164.32 286.435 175.962V197.077H135.094C122.029 197.077 111.391 206.487 111.391 218.045V288.718C111.391 300.282 122.029 309.692 135.094 309.692H286.435V330.808ZM350.087 288.725C350.087 292.526 346.594 295.615 342.298 295.615H135.094C130.797 295.615 127.304 292.526 127.304 288.725V218.045C127.304 214.244 130.797 211.154 135.094 211.154H342.29C346.594 211.154 350.087 214.244 350.087 218.045V288.725Z" fill="#03A9F4"/>
</svg>
