<svg width="981" height="981" viewBox="0 0 981 981" fill="none" xmlns="http://www.w3.org/2000/svg">
<path d="M629 343.625C629 265.961 566.99 203 490.5 203C414.01 203 352 265.961 352 343.625C352 400.807 385.66 450.035 433.916 471.992V485.376L397.428 511.289L447.288 549.578L446.065 592.794L415.653 621.191L439.99 640.936L402.28 661.923L446.065 703.898L431.47 732.294L485.762 774.269L528.325 776.363V478.82C586.438 462.177 629 407.944 629 343.625V343.625Z" stroke="#231F20" stroke-width="30" stroke-miterlimit="10" stroke-linecap="round" stroke-linejoin="round"/>
<path d="M490.691 774.346V481.69" stroke="#231F20" stroke-width="30" stroke-miterlimit="10" stroke-linecap="round" stroke-linejoin="round"/>
<path d="M490.5 335.983C512.002 335.983 529.433 318.285 529.433 296.453C529.433 274.621 512.002 256.923 490.5 256.923C468.998 256.923 451.567 274.621 451.567 296.453C451.567 318.285 468.998 335.983 490.5 335.983Z" stroke="#231F20" stroke-width="30" stroke-miterlimit="10" stroke-linecap="round" stroke-linejoin="round"/>
<path d="M490 980.2C219.4 980.2 0 760.8 0 490.2C0 219.6 219.4 0.200001 490 0.200001C577.2 0.200001 659 23.1 730 63.1L775.6 0L857.2 214.5L643.2 183.1L693.7 113.2C633.1 80.4 563.8 61.5 490 61.5C253.2 61.5 61.2 253.5 61.2 490.3C61.2 727.1 253.2 919 490 919C726.8 919 918.8 727 918.8 490.3C918.8 432.5 907.2 377.4 886.5 327.1L943.1 303.8C966.8 361.3 980.1 424.2 980.1 490.3C980 760.8 760.6 980.2 490 980.2Z" fill="black"/>
</svg>
