<svg width="13" height="13" viewBox="0 0 13 13" fill="none" xmlns="http://www.w3.org/2000/svg">
<path d="M10.3553 13C10.3067 13 10.2585 12.986 10.216 12.9579L6.5 10.5104L2.7843 12.9579C2.69353 13.0176 2.5773 13.0135 2.49047 12.9474C2.40389 12.8816 2.36427 12.7668 2.39025 12.6576L3.46065 8.19337L0.0941375 5.24184C0.0120212 5.16972 -0.0202482 5.05245 0.0128082 4.94537C0.0458646 4.83856 0.137688 4.76341 0.244466 4.75598L4.62156 4.44464L6.25654 0.172599C6.29641 0.0685442 6.39296 0 6.5 0C6.60704 0 6.70359 0.0685442 6.74346 0.172599L8.37844 4.44464L12.7553 4.75598C12.8623 4.76341 12.9541 4.83856 12.9872 4.94537C13.0202 5.05245 12.988 5.16944 12.9059 5.24184L9.53935 8.19337L10.6098 12.6576C10.636 12.7666 10.5961 12.8814 10.5095 12.9474C10.4636 12.9821 10.4096 13 10.3553 13Z" fill="#F39D0B"/>
</svg>
