<svg width="175" height="175" viewBox="0 0 175 175" fill="none" xmlns="http://www.w3.org/2000/svg">
<path d="M112 70H91V49H84V70H63V77H84V98H91V77H112V70Z" fill="#03A9F4"/>
<path d="M170.702 67.2579L161 56.1004V28.0143C161 22.2256 156.286 17.5079 150.497 17.5079H115.895L99.1795 4.03355C92.526 -1.33868 82.4845 -1.34918 75.824 4.03005L59.1045 17.5079H24.5035C18.7145 17.5079 14 22.2256 14 28.0143V59.0963L5.656 66.7714C2.0615 70.0752 0 74.7755 0 79.6578V157.501C0 167.15 7.8575 175 17.5035 175H157.493C167.143 175 175 167.146 175 157.501V78.7478C175 74.527 173.47 70.4462 170.702 67.2579ZM165.417 71.8532C165.442 71.8812 165.455 71.9092 165.48 71.9372L161 74.7965V66.7714L165.417 71.8532ZM80.2165 9.48278C84.2975 6.18944 90.7025 6.18594 94.7835 9.47928L104.744 17.5079H70.2555L80.2165 9.48278ZM24.5035 24.5075H150.493C152.425 24.5075 154 26.0859 154 28.0143V79.2623L92.9495 118.236C89.5125 120.434 85.0605 120.427 81.6235 118.229L21 79.4128V28.0143C21 26.0859 22.575 24.5075 24.5035 24.5075ZM14 68.6088V74.9295L10.003 72.3676C10.143 72.2241 10.248 72.0596 10.395 71.9232L14 68.6088ZM168 157.501C168 163.29 163.286 168 157.497 168H17.5035C11.7145 168 7 163.29 7 157.501V79.6578C7 79.3708 7.0665 79.0943 7.091 78.8108L77.8505 124.123C80.717 125.953 84.007 126.874 87.2935 126.874C90.5695 126.874 93.8525 125.96 96.712 124.134L167.986 78.6358C167.986 78.6743 168 78.7093 168 78.7478V157.501V157.501Z" fill="#03A9F4"/>
</svg>
