<svg width="327" height="327" viewBox="0 0 327 327" fill="none" xmlns="http://www.w3.org/2000/svg">
<path d="M288.678 0.0194103C284.163 0.501737 279.997 2.61069 277.003 5.93059C274.008 9.25048 272.401 13.5405 272.498 17.9551V49.4114C243.545 24.2606 205.277 9.1252 163.499 9.1252C73.4133 9.1252 0 80.4902 0 168.063C0 255.643 73.4147 327 163.499 327C253.584 327 326.998 255.643 326.998 168.063C327.032 165.722 326.587 163.399 325.69 161.228C324.792 159.056 323.459 157.079 321.769 155.413C320.079 153.746 318.065 152.423 315.844 151.52C313.623 150.617 311.239 150.151 308.832 150.151C306.424 150.151 304.041 150.617 301.82 151.52C299.599 152.423 297.584 153.746 295.894 155.413C294.204 157.079 292.871 159.056 291.973 161.228C291.076 163.399 290.631 165.722 290.665 168.063C290.665 236.559 233.953 299.75 163.499 299.75C93.0456 299.75 36.3331 236.559 36.3331 168.063C36.3331 99.5761 93.047 44.4446 163.499 44.4446C198.162 44.4446 229.415 58.0049 252.345 79.764H208.916C206.508 79.7309 204.118 80.1633 201.884 81.0359C199.65 81.9085 197.617 83.2041 195.903 84.8472C194.188 86.4904 192.827 88.4483 191.898 90.6073C190.969 92.7664 190.49 95.0834 190.49 97.4238C190.49 99.7641 190.969 102.081 191.898 104.24C192.827 106.399 194.188 108.357 195.903 110C197.617 111.643 199.65 112.939 201.884 113.812C204.118 114.684 206.508 115.117 208.916 115.083H290.665H308.832V97.4238V17.9551C308.87 15.5895 308.418 13.2406 307.505 11.0478C306.591 8.85505 305.233 6.86309 303.512 5.19018C301.792 3.51727 299.742 2.19752 297.487 1.30927C295.231 0.421027 292.815 -0.0176055 290.381 0.0194103C289.814 -0.00647009 289.245 -0.00647009 288.678 0.0194103Z" fill="#03A9F4"/>
</svg>
