<svg width="479" height="415" viewBox="0 0 479 415" fill="none" xmlns="http://www.w3.org/2000/svg">
<path d="M18.2381 303.6V285.2V27.6C18.2381 22.5216 22.3325 18.4 27.3571 18.4H355.643C360.667 18.4 364.762 22.5216 364.762 27.6V202.4H383V27.6C383 12.3832 370.726 0 355.643 0H27.3571C12.2742 0 0 12.3832 0 27.6V285.2V303.6V340.4C0 355.617 12.2742 368 27.3571 368H255.333V349.6H27.3571C22.3325 349.6 18.2381 345.478 18.2381 340.4V329.507C21.1015 330.538 24.1472 331.2 27.3571 331.2H255.333V312.8H27.3571C22.3325 312.8 18.2381 308.678 18.2381 303.6Z" fill="#03A9F4"/>
<path d="M460.182 283.273H455.637C454.574 279.97 453.36 277.307 452.062 274.861L455.346 271.568C462.685 264.238 462.685 252.289 455.346 244.959L442.041 231.654C434.937 224.541 422.536 224.541 415.423 231.654L411.951 235.126C409.269 233.847 406.531 232.708 403.727 231.73V226.818C403.727 216.44 395.287 208 384.909 208H366.091C355.713 208 347.273 216.44 347.273 226.818V231.73C344.478 232.708 341.731 233.856 339.049 235.126L335.577 231.654C328.464 224.541 316.053 224.541 308.968 231.654L295.654 244.959C288.315 252.289 288.315 264.238 295.654 271.568L298.948 274.861C297.649 277.307 296.426 279.97 295.372 283.273H290.818C280.44 283.273 272 291.713 272 302.091V320.909C272 331.287 280.44 339.727 290.818 339.727H295.363C296.426 343.03 297.64 345.693 298.938 348.139L295.654 351.423C292.098 354.979 290.141 359.712 290.141 364.746C290.141 369.771 292.098 374.494 295.654 378.032L308.968 391.355C316.289 398.666 328.229 398.675 335.577 391.346L339.049 387.874C341.721 389.144 344.469 390.282 347.263 391.261V396.182C347.263 406.56 355.703 415 366.082 415H384.9C395.278 415 403.718 406.56 403.718 396.182V391.261C406.512 390.282 409.26 389.134 411.932 387.874L415.423 391.355C422.762 398.666 434.693 398.675 442.022 391.346L455.336 378.032C462.675 370.702 462.675 358.752 455.336 351.423L452.052 348.139C453.351 345.693 454.574 343.03 455.628 339.727H460.182C470.56 339.727 479 331.287 479 320.909V302.091C479 291.713 470.56 283.273 460.182 283.273ZM460.182 320.909H440.507L439.058 328.568C437.732 335.559 435.972 338.523 433.065 343.416L428.483 351.169L442.032 364.708L428.727 378.022L415.178 364.473L408.902 368.18C403.624 371.295 397.931 373.647 391.975 375.181L384.909 377.006V396.182H366.091V377.006L359.034 375.19C353.078 373.656 347.386 371.304 342.107 368.19L335.831 364.483L322.282 378.032L308.968 364.718L322.517 351.178L317.935 343.425C315.018 338.523 313.259 335.568 311.942 328.577L310.493 320.909H290.818V302.091H310.493L311.942 294.432C313.268 287.422 315.037 284.458 317.954 279.556L322.517 271.831L308.968 258.282L322.282 244.978L335.831 258.517L342.107 254.81C347.386 251.696 353.078 249.344 359.034 247.81L366.091 245.984V226.818H384.909V245.984L391.966 247.8C397.922 249.334 403.614 251.686 408.893 254.801L415.169 258.508L428.718 244.968L442.022 258.273L428.473 271.822L433.037 279.547C435.963 284.449 437.722 287.413 439.049 294.423L440.507 302.091H460.182V320.909Z" fill="#03A9F4"/>
<path d="M375 272C352.94 272 335 289.716 335 311.5C335 333.284 352.94 351 375 351C397.06 351 415 333.284 415 311.5C415 289.716 397.06 272 375 272ZM375 331.25C363.97 331.25 355 322.392 355 311.5C355 300.608 363.97 291.75 375 291.75C386.03 291.75 395 300.608 395 311.5C395 322.392 386.03 331.25 375 331.25Z" fill="#03A9F4"/>
<path d="M350 78H132.874C128.68 60.8 114.109 48 96.6765 48C79.2441 48 64.6733 60.8 60.4794 78H31V98H60.4794C64.6733 115.2 79.2441 128 96.6765 128C114.109 128 128.68 115.2 132.874 98H350V78ZM96.6765 108C86.3277 108 77.9118 99.03 77.9118 88C77.9118 76.97 86.3277 68 96.6765 68C107.025 68 115.441 76.97 115.441 88C115.441 99.03 107.025 108 96.6765 108Z" fill="#03A9F4"/>
<path d="M320.521 178H350V158H320.521C316.327 140.8 301.756 128 284.324 128C266.891 128 252.32 140.8 248.126 158H31V178H248.126C252.32 195.2 266.891 208 284.324 208C301.756 208 316.327 195.2 320.521 178ZM265.559 168C265.559 156.97 273.975 148 284.324 148C294.672 148 303.088 156.97 303.088 168C303.088 179.03 294.672 188 284.324 188C273.975 188 265.559 179.03 265.559 168Z" fill="#03A9F4"/>
<path d="M182.704 208C165.087 208 150.362 218.24 146.124 232H31V248H146.124C150.362 261.76 165.087 272 182.704 272C200.32 272 215.045 261.76 219.283 248H287V232H219.283C215.045 218.24 200.32 208 182.704 208ZM182.704 256C172.246 256 163.741 248.824 163.741 240C163.741 231.176 172.246 224 182.704 224C193.162 224 201.667 231.176 201.667 240C201.667 248.824 193.162 256 182.704 256Z" fill="#03A9F4"/>
</svg>
