<?xml version="1.0"?>
<svg xmlns="http://www.w3.org/2000/svg" viewBox="0 0 50 50" enable-background="new 0 0 50 50">
    <path style="text-indent:0;text-align:start;line-height:normal;text-transform:none;block-progression:tb;-inkscape-font-specification:Bitstream Vera Sans" d="M 2.8125 8 C 1.2791667 8 0 9.2791667 0 10.8125 L 0 37 C 0 38.645455 1.3545455 40 3 40 L 7.09375 40 C 7.5685656 42.834783 10.035015 45 13 45 C 15.964985 45 18.431434 42.834783 18.90625 40 L 30 40 L 34.09375 40 C 34.568566 42.834783 37.035015 45 40 45 C 42.964985 45 45.431434 42.834783 45.90625 40 L 47 40 C 47.833333 40 48.561615 39.625885 49.09375 39.09375 C 49.625885 38.561615 50 37.833333 50 37 L 50 27.40625 C 50 26.28174 49.572192 25.251873 49.1875 24.46875 C 48.802808 23.685627 48.40625 23.125 48.40625 23.125 L 48.40625 23.09375 L 44.3125 17.59375 L 44.28125 17.59375 L 44.28125 17.5625 C 43.39491 16.454575 41.971429 15 40 15 L 32 15 C 31.642361 15 31.311741 15.066769 31 15.1875 L 31 10.90625 C 31 9.30625 29.69375 8 28.09375 8 L 2.8125 8 z M 2.8125 10 L 28.09375 10 C 28.49375 10 29 10.50625 29 10.90625 L 29 18 L 29 38 L 18.90625 38 C 18.431434 35.165217 15.964985 33 13 33 C 10.035015 33 7.5685656 35.165217 7.09375 38 L 3 38 C 2.4454545 38 2 37.554545 2 37 L 2 10.8125 C 2 10.345833 2.3458333 10 2.8125 10 z M 22.9375 14.59375 L 22.25 15.3125 L 14.15625 24.1875 L 9.65625 20.25 L 8.90625 19.59375 L 7.59375 21.09375 L 8.34375 21.75 L 13.53125 26.34375 L 14.28125 27 L 14.9375 26.28125 L 23.75 16.6875 L 24.40625 15.9375 L 22.9375 14.59375 z M 32 17 L 36 17 L 36 26 C 36 26.833333 36.374115 27.561615 36.90625 28.09375 C 37.438385 28.625885 38.166667 29 39 29 L 48 29 L 48 37 C 48 37.166667 47.874115 37.438385 47.65625 37.65625 C 47.438385 37.874115 47.166667 38 47 38 L 45.90625 38 C 45.431434 35.165217 42.964985 33 40 33 C 37.035015 33 34.568566 35.165217 34.09375 38 L 31 38 L 31 18 C 31 17.833333 31.125885 17.561615 31.34375 17.34375 C 31.561615 17.125885 31.833333 17 32 17 z M 38 17 L 40 17 C 40.823399 17 41.972579 17.925528 42.6875 18.8125 L 46.78125 24.28125 L 46.8125 24.3125 C 46.83268 24.34158 47.101885 24.724149 47.40625 25.34375 C 47.659125 25.85853 47.793194 26.471743 47.875 27 L 39 27 C 38.833333 27 38.561615 26.874115 38.34375 26.65625 C 38.125885 26.438385 38 26.166667 38 26 L 38 17 z M 13 35 C 15.220984 35 17 36.779016 17 39 C 17 41.220984 15.220984 43 13 43 C 10.779016 43 9 41.220984 9 39 C 9 36.779016 10.779016 35 13 35 z M 40 35 C 42.220984 35 44 36.779016 44 39 C 44 41.220984 42.220984 43 40 43 C 37.779016 43 36 41.220984 36 39 C 36 36.779016 37.779016 35 40 35 z" overflow="visible" enable-background="accumulate" font-family="Bitstream Vera Sans"/>
</svg>
