<svg width="270" height="270" viewBox="0 0 270 270" fill="none" xmlns="http://www.w3.org/2000/svg">
<path d="M255 240H244.5C245 238.5 245 237.5 245 236V108.5C253.5 105.5 260 97 260 87.5V48.5C260 45.5 259 42 257 39.5L232 6C229 2 224.5 0 220 0H50C45.5 0 41 2 38 6L13 39.5C11 42 10 45 10 48.5V87.5C10 97.5 16.5 105.5 25 108.5V236C25 237.5 25.5 239 25.5 240H15C6.5 240 0 246.5 0 255C0 263.5 6.5 270 15 270H255C263.5 270 270 263.5 270 255C270 246.5 263.5 240 255 240ZM224 12L249 45.5C249.5 46.5 250 47.5 250 48.5V87.5C250 94.5 244.5 100 237.5 100H232C229.5 100 227.5 99 225.5 98C225.5 98 225 98 225 97.5L224.5 97C221.5 94.5 220 90 220 86V47.5V45C220 44 219.5 43 219 42C219 41.5 218.5 41 218.5 40.5L203.5 10H220C221.5 10 223 10.5 224 12ZM107 10L91.5 40.5C91.5 41 91 41.5 91 42C90.5 43 90 44 90 45V47.5V86C90 93 84.5 99 77.5 99H72.5C65.5 99 60 93.5 60 86V47.5C60 46.5 60 46 60.5 45.5L78 10.5H107V10ZM130 10V45V86C130 93 124.5 99 117.5 99H112.5C105.5 99 100 93.5 100 86V47.5C100 46.5 100 46 100.5 45.5L118 10.5H130V10ZM152 10L169.5 45C170 45.5 170 46.5 170 47V85.5C170 92.5 164.5 98.5 157.5 98.5H152.5C145.5 98.5 140 93 140 85.5V45V10H152ZM192.5 10L209.5 45C210 45.5 210 46.5 210 47V85.5C210 92.5 204.5 98.5 197.5 98.5H192.5C185.5 98.5 180 93 180 85.5V47V45C180 44 179.5 43 179 42C179 41.5 178.5 41 178.5 40.5L163 10H192.5ZM20 87.5V48.5C20 47.5 20.5 46.5 21 45.5L46 12C47 10.5 48.5 10 50 10H67L51.5 40.5C51.5 41 51 41.5 51 42C50.5 43 50 44 50 45V47.5V86C50 93.5 44 100 37.5 100H32.5C25.5 100 20 94.5 20 87.5ZM35 236V110H37.5C38.5 110 40 110 41 109.5C46.5 108.5 51.5 105.5 55 101.5C59 106.5 65.5 110 72.5 110H77.5C84.5 110 91 106.5 95 101.5C99 106.5 105.5 110 112.5 110H117.5C124.5 110 131 106.5 135 101.5C139 106.5 145.5 110 152.5 110H157.5C164.5 110 171 106.5 175 101.5C179 106.5 185.5 110 192.5 110H197.5C204.5 110 211 106.5 215 101.5C216 102.5 216.5 103.5 217.5 104.5C221.5 108 226 110 231.5 110H232C232 110 232 110 232.5 110H235V236C235 237.5 234 239 233 240H175V145C175 136.5 168.5 130 160 130H110C101.5 130 95 136.5 95 145V240H37C36 239 35 237.5 35 236ZM105 240V145C105 142 107 140 110 140H160C163 140 165 142 165 145V240H105ZM255 260H15C12 260 10 258 10 255C10 252 12 250 15 250H34.5C36 250.5 38 251 40 251H230C232 251 233.5 250.5 235.5 250H255C258 250 260 252 260 255C260 258 258 260 255 260Z" fill="#03A9F4"/>
</svg>
