<svg width="353" height="353" viewBox="0 0 353 353" fill="none" xmlns="http://www.w3.org/2000/svg">
<path d="M175.954 0C78.9693 0 0 79.175 0 176.5C0 273.818 78.9693 353 175.954 353C225.304 353 271.004 333.144 304.758 296.924C310.3 290.982 310.015 281.549 304.068 276.011C298.121 270.488 288.679 270.751 283.137 276.701C255.021 306.875 217.039 323.583 175.954 323.583C95.2058 323.583 29.4407 257.602 29.4407 176.5C29.4407 95.3982 95.2058 29.4167 175.954 29.4167C217.282 29.4167 255.452 46.2908 283.597 76.7591C289.117 82.7233 298.314 82.9642 304.298 77.4486C310.267 71.9403 310.73 62.7366 305.218 56.765C271.928 20.7296 224.87 0 175.954 0ZM286.817 110.312C283.05 110.312 279.337 111.807 276.467 114.679C270.719 120.423 270.719 129.619 276.467 135.363L302.688 161.792H176.644C168.519 161.792 161.924 168.381 161.924 176.5C161.924 184.619 168.519 191.208 176.644 191.208H302.688L276.467 217.637C270.719 223.381 270.719 232.577 276.467 238.321C279.337 241.196 283.049 242.687 286.817 242.687C290.586 242.687 294.29 241.196 297.167 238.321L348.689 186.842C354.437 181.098 354.437 171.902 348.689 166.158L297.167 114.679C294.293 111.807 290.585 110.312 286.817 110.312Z" fill="#03A9F4"/>
</svg>
