<svg width="163" height="148" viewBox="0 0 163 148" fill="none" xmlns="http://www.w3.org/2000/svg">
<path d="M159.922 2.03457C157.142 -0.31864 152.774 -0.65534 148.259 1.15396H148.252C143.503 3.05577 13.8236 58.5707 8.54447 60.8388C7.58429 61.1718 -0.801471 64.2947 0.0623144 71.2507C0.833419 77.5222 7.57317 80.1196 8.39618 80.4193L41.3646 91.6858C43.5519 98.9527 51.6151 125.763 53.3983 131.491C54.5105 135.061 56.3233 139.753 59.5004 140.718C62.2882 141.791 65.0613 140.811 66.8556 139.405L87.0118 120.746L119.55 146.072L120.325 146.535C122.535 147.512 124.651 148 126.672 148C128.233 148 129.73 147.708 131.161 147.123C136.036 145.125 137.986 140.489 138.19 139.964L162.495 13.8783C163.978 7.14428 161.916 3.71807 159.922 2.03457ZM70.4405 96.1924L59.3187 125.793L48.197 88.7924L133.463 25.8922L70.4405 96.1924Z" fill="#20A0E1"/>
</svg>
