<svg width="981" height="981" viewBox="0 0 981 981" fill="none" xmlns="http://www.w3.org/2000/svg">
<path d="M490 980.2C219.4 980.2 0 760.8 0 490.2C0 219.6 219.4 0.200001 490 0.200001C577.2 0.200001 659 23.1 730 63.1L775.6 0L857.2 214.5L643.2 183.1L693.7 113.2C633.1 80.4 563.8 61.5 490 61.5C253.2 61.5 61.2 253.5 61.2 490.3C61.2 727.1 253.2 919 490 919C726.8 919 918.8 727 918.8 490.3C918.8 432.5 907.2 377.4 886.5 327.1L943.1 303.8C966.8 361.3 980.1 424.2 980.1 490.3C980 760.8 760.6 980.2 490 980.2Z" fill="black"/>
</svg>
